<svg width="384" height="426" viewBox="0 0 384 426" fill="none" xmlns="http://www.w3.org/2000/svg">
<g clip-path="url(#clip0_3_1633)">
<rect x="0.962036" width="381" height="169.695" fill="white"/>
<path d="M382.606 101.745H290.75V180.76H382.606V101.745Z" fill="#E6E6E6"/>
<path opacity="0.51" d="M369.728 112.821H303.622V169.694H369.728V112.821Z" fill="#A5A5A5"/>
<path opacity="0.08" d="M357.671 180.509L342.562 180.768L343.384 160.293C343.468 158.218 344.327 156.251 345.791 154.78C347.255 153.308 349.218 152.44 351.292 152.346L363.775 151.783L357.671 180.509Z" fill="black"/>
<path d="M403.977 168.48C403.985 164.76 393.622 161.72 380.83 161.691C368.038 161.662 357.662 164.655 357.653 168.375C357.645 172.095 368.008 175.135 380.8 175.164C393.592 175.193 403.968 172.2 403.977 168.48Z" fill="#FF0000"/>
<path d="M359.353 158.564V166.777C359.353 170.499 369.705 173.536 382.499 173.567C395.294 173.597 405.669 170.606 405.677 166.884V158.671L359.353 158.564Z" fill="#FF0000"/>
<path opacity="0.46" d="M359.353 158.564V166.777C359.353 170.499 369.705 173.536 382.499 173.567C395.294 173.597 405.669 170.606 405.677 166.884V158.671L359.353 158.564Z" fill="white"/>
<path d="M405.678 158.669C405.687 154.948 395.324 151.909 382.532 151.88C369.74 151.851 359.363 154.843 359.355 158.563C359.346 162.284 369.709 165.323 382.501 165.352C395.293 165.381 405.67 162.389 405.678 158.669Z" fill="#FF0000"/>
<path d="M357.693 148.661V156.873C357.693 160.595 368.053 163.64 380.84 163.663C393.627 163.686 404.01 160.702 404.017 156.98V148.767L357.693 148.661Z" fill="#FF0000"/>
<path opacity="0.46" d="M357.693 148.661V156.873C357.693 160.595 368.053 163.64 380.84 163.663C393.627 163.686 404.01 160.702 404.017 156.98V148.767L357.693 148.661Z" fill="white"/>
<path d="M403.53 148.368C403.53 144.648 393.16 141.632 380.368 141.632C367.576 141.632 357.206 144.648 357.206 148.368C357.206 152.088 367.576 155.104 380.368 155.104C393.16 155.104 403.53 152.088 403.53 148.368Z" fill="#FF0000"/>
<path opacity="0.08" d="M322.414 97.9474C322.414 97.9474 315.054 106.252 308.257 112.82C301.46 119.389 300.029 180.768 300.029 180.768H290.75V141.257L289.669 116.268L292.364 103.588L322.414 97.9474Z" fill="black"/>
<path d="M344.252 138.098C345.174 137.572 345.911 136.774 346.365 135.814C346.818 134.855 346.965 133.778 346.787 132.732C346.33 129.421 342.372 128.165 339.259 127.952V122.974H336.214V127.906H334.152V122.966H331.107V127.899H324.919V131.08H327.202C328.237 131.08 328.725 131.377 328.725 132.214L328.808 145.915C328.808 147.057 328.253 147.437 327.636 147.437H325.292V150.68H331.259V155.719H334.349V150.672H336.412V155.719H339.419V150.672H340.073C346.391 150.634 348.446 147.529 348.446 143.32C348.424 142.108 348 140.937 347.241 139.992C346.482 139.047 345.431 138.381 344.252 138.098ZM334.144 131.316H336.336C337.858 131.316 340.903 131.552 340.903 134.049C340.956 134.834 340.71 135.611 340.212 136.222C339.715 136.832 339.004 137.231 338.224 137.337H334.167L334.144 131.316ZM337.645 147.087H334.243L334.205 140.511H338.148C339.069 140.511 342.539 140.785 342.555 143.244C342.57 145.702 340.941 147.095 337.653 147.11L337.645 147.087Z" fill="white"/>
<path d="M355.547 96.1357H316.553V101.745H355.547V96.1357Z" fill="#A5A5A5"/>
<path d="M283.443 49.1205C283.443 49.1205 271.044 56.732 277.773 63.2932C284.501 69.8543 290.111 58.1782 290.111 58.1782L289.761 48.641L283.443 49.1205Z" fill="#24285B"/>
<path d="M282.127 58.0264C282.127 58.0264 271.783 53.6117 266.858 65.3106C263.851 72.4579 281.046 90.5048 262.382 88.952C248.682 87.8103 245.721 75.0077 246.269 68.2715C246.46 66.315 246.117 64.3432 245.276 62.5661C244.436 60.7889 243.13 59.2727 241.496 58.1786C240.22 57.2738 238.662 56.8553 237.104 56.9988C231.662 57.6687 240.218 65.44 240.218 65.44C240.218 65.44 237.378 102.835 263.57 104.913C289.761 106.991 289.883 81.0741 282.127 58.0264Z" fill="#F4A28C"/>
<path d="M281.624 57.941L291.055 59.6384C291.055 59.6384 322.795 70.5153 300.044 101.738C296.124 107.144 293.496 113.378 292.364 119.96L267.375 116.268L266.949 111.587C266.445 105.173 264.565 98.9423 261.438 93.3194C257.48 86.3396 255.532 73.126 281.624 57.941Z" fill="#FEEADA"/>
<path d="M284.379 40.9977C284.379 40.9977 282.857 45.1384 282.811 48.1449C282.802 48.4396 282.852 48.7331 282.958 49.0083C283.064 49.2835 283.223 49.5348 283.427 49.7475C283.632 49.9601 283.876 50.1299 284.147 50.2468C284.417 50.3638 284.709 50.4255 285.003 50.4284C285.942 50.4981 286.881 50.2944 287.706 49.8418C288.532 49.3893 289.208 48.7074 289.654 47.8785L291.938 44.5142C292.331 43.788 292.486 42.9569 292.382 42.1378C292.279 41.3186 291.921 40.5526 291.359 39.9473C289.449 37.5649 285.179 38.4326 284.379 40.9977Z" fill="#F4A28C"/>
<path opacity="0.08" d="M291.268 73.6139C291.268 73.6139 285.529 79.2693 290.187 89.8112C294.845 100.353 283.984 105.795 283.984 105.795L277.407 117.753L292.364 119.968C292.364 119.968 293.886 109.974 297.875 105.034C301.863 100.094 310.913 96.144 310.913 96.144L308.257 85.8456L291.268 73.6139Z" fill="black"/>
<path d="M291.519 45.0851L289.974 59.4404L282.126 58.0247L286.404 48.1449L291.519 45.0851Z" fill="#F4A28C"/>
<path d="M287.927 45.8605C287.927 45.8605 288.406 44.2316 289.601 44.6959C290.796 45.1602 290.119 47.5122 288.391 47.2762L287.927 45.8605Z" fill="#F4A28C"/>
<path d="M283.557 43.6536L281.928 44.9704C281.838 45.0464 281.767 45.1439 281.723 45.2539C281.679 45.364 281.663 45.4833 281.677 45.601C281.691 45.7187 281.733 45.8312 281.801 45.9284C281.869 46.0256 281.96 46.1044 282.065 46.1578L283.588 46.9189L283.557 43.6536Z" fill="#F4A28C"/>
<path opacity="0.31" d="M285.376 50.2685C286.396 50.2884 287.4 50.0078 288.261 49.4617C288.261 49.4617 287.462 51.9811 283.983 53.7393L285.376 50.2685Z" fill="#CE8172"/>
<path d="M285.887 34.6318C285.245 34.8748 284.671 35.2699 284.216 35.7834C283.76 36.2968 283.436 36.9132 283.272 37.5795C283.107 38.2458 283.106 38.9421 283.27 39.6087C283.434 40.2752 283.757 40.892 284.212 41.406C284.967 42.2696 285.844 43.0183 286.815 43.6286C290.857 46.2698 280.779 64.6897 291.131 65.7553C301.483 66.8209 300.151 61.5994 297.433 56.2942C294.716 50.9889 295.69 43.5905 295.469 39.5488C295.31 36.6336 289.708 33.3074 285.887 34.6318Z" fill="#24285B"/>
<path d="M292.448 70.835C293.079 69.8039 293.927 68.9218 294.932 68.2495C295.937 67.5772 297.076 67.1305 298.27 66.9403C299.464 66.7501 300.685 66.8208 301.849 67.1475C303.014 67.4743 304.093 68.0494 305.014 68.8332C312.291 74.9224 321.052 87.0247 322.833 94.9102C325.421 106.373 282.652 109.189 282.652 109.189C282.652 109.189 283.93 114.358 277.864 115.134C273.853 115.644 276.288 111.077 278.404 107.911C279.621 106.093 281.321 104.651 283.314 103.747L304.839 93.9512C304.839 93.9512 285.414 82.6329 292.448 70.835Z" fill="#F4A28C"/>
<path d="M242.402 67.0748C252.23 67.0748 260.198 59.1073 260.198 49.279C260.198 39.4507 252.23 31.4833 242.402 31.4833C232.574 31.4833 224.606 39.4507 224.606 49.279C224.606 59.1073 232.574 67.0748 242.402 67.0748Z" fill="#FF0000"/>
<path opacity="0.46" d="M242.402 67.0748C252.23 67.0748 260.198 59.1073 260.198 49.279C260.198 39.4507 252.23 31.4833 242.402 31.4833C232.574 31.4833 224.606 39.4507 224.606 49.279C224.606 59.1073 232.574 67.0748 242.402 67.0748Z" fill="white"/>
<path d="M242.569 61.6468C252.398 61.6468 260.365 53.6794 260.365 43.851C260.365 34.0227 252.398 26.0553 242.569 26.0553C232.741 26.0553 224.774 34.0227 224.774 43.851C224.774 53.6794 232.741 61.6468 242.569 61.6468Z" fill="#FF0000"/>
<path d="M247.639 42.0228C248.215 41.6946 248.675 41.1972 248.959 40.598C249.242 39.9988 249.334 39.3269 249.222 38.6737C248.933 36.611 246.467 35.8498 244.518 35.6976V32.5845H242.6V35.6671H241.306V32.5845H239.388V35.6291H235.529V37.6157H236.967C237.614 37.6157 237.926 37.7984 237.934 38.3236L237.987 46.8485C237.987 47.5563 237.637 47.7771 237.226 47.7847H235.81V49.8094H239.532V52.9605H241.466V49.8094H242.752V52.9605H244.625V49.817H245.028C248.971 49.817 250.272 47.8532 250.257 45.25C250.237 44.4988 249.97 43.7751 249.496 43.1914C249.023 42.6078 248.37 42.197 247.639 42.0228ZM241.329 37.7984H242.699C243.658 37.7984 245.546 37.9506 245.553 39.511C245.588 40.0004 245.436 40.4848 245.126 40.8653C244.816 41.2459 244.373 41.4938 243.886 41.5585H241.352L241.329 37.7984ZM243.513 47.6325H241.39V43.5298H243.856C244.427 43.5298 246.588 43.7049 246.604 45.2348C246.619 46.7647 245.568 47.6248 243.513 47.6325Z" fill="white"/>
<path d="M400.958 38.2646H338.573V73.2092H400.958V38.2646Z" fill="#24285B"/>
<path d="M373.8 47.696H349.001V53.2905H373.8V47.696Z" fill="white"/>
<path d="M250.272 147.112L267.642 183.381L271.44 181.554L262.748 149.464L250.272 147.112Z" fill="#F4A28C"/>
<path d="M277.407 129.108L282.644 185.997H287.789L290.187 129.108H277.407Z" fill="#F4A28C"/>
<path opacity="0.49" d="M373.8 57.6355H349.001V63.23H373.8V57.6355Z" fill="white"/>
<path d="M379.31 49.6499H392.022L385.666 62.0871L379.31 49.6499Z" fill="#FEEADA"/>
<path d="M267.383 116.267L250.272 147.109L290.111 154.614L292.364 119.958L267.383 116.267Z" fill="#24285B"/>
<path d="M23.254 91.4993V74.1473H29.122C30.362 74.1473 31.466 74.3553 32.434 74.7713C33.402 75.1873 34.162 75.8033 34.714 76.6193C35.274 77.4353 35.554 78.4393 35.554 79.6313C35.554 80.7833 35.294 81.7673 34.774 82.5833C34.262 83.3993 33.546 84.0193 32.626 84.4433C31.706 84.8673 30.638 85.0793 29.422 85.0793H25.534V91.4993H23.254ZM25.522 83.2073H29.374C30.566 83.2073 31.534 82.8753 32.278 82.2113C33.022 81.5473 33.394 80.6433 33.394 79.4993C33.394 78.3473 33.01 77.4753 32.242 76.8833C31.474 76.2913 30.482 75.9953 29.266 75.9953H25.522V83.2073ZM38.0793 91.4993V79.0913H40.1913V81.4793C40.3993 80.8873 40.6913 80.3993 41.0673 80.0153C41.4433 79.6233 41.8713 79.3313 42.3513 79.1393C42.8393 78.9473 43.3433 78.8513 43.8633 78.8513C44.0473 78.8513 44.2273 78.8633 44.4033 78.8873C44.5793 78.9113 44.7153 78.9513 44.8113 79.0073V81.1553C44.6913 81.0993 44.5353 81.0633 44.3433 81.0473C44.1593 81.0233 44.0033 81.0113 43.8753 81.0113C43.3793 80.9793 42.9153 81.0113 42.4833 81.1073C42.0513 81.1953 41.6713 81.3513 41.3433 81.5753C41.0153 81.7993 40.7553 82.0953 40.5633 82.4633C40.3793 82.8233 40.2873 83.2633 40.2873 83.7833V91.4993H38.0793ZM52.0582 91.7393C50.9142 91.7393 49.9142 91.4953 49.0582 91.0073C48.2022 90.5113 47.5382 89.7873 47.0662 88.8353C46.5942 87.8833 46.3582 86.7193 46.3582 85.3433C46.3582 84.0473 46.5782 82.9113 47.0182 81.9353C47.4582 80.9593 48.1022 80.2033 48.9502 79.6673C49.8062 79.1233 50.8422 78.8513 52.0582 78.8513C53.2022 78.8513 54.1942 79.1033 55.0342 79.6073C55.8822 80.1033 56.5382 80.8353 57.0022 81.8033C57.4662 82.7713 57.6982 83.9513 57.6982 85.3433C57.6982 86.6073 57.4822 87.7193 57.0502 88.6793C56.6262 89.6393 55.9942 90.3913 55.1542 90.9353C54.3222 91.4713 53.2902 91.7393 52.0582 91.7393ZM52.0582 89.9873C52.8022 89.9873 53.4302 89.7993 53.9422 89.4233C54.4542 89.0473 54.8422 88.5073 55.1062 87.8033C55.3702 87.0993 55.5022 86.2633 55.5022 85.2953C55.5022 84.4073 55.3862 83.6113 55.1542 82.9073C54.9222 82.1953 54.5502 81.6313 54.0382 81.2153C53.5342 80.7993 52.8742 80.5913 52.0582 80.5913C51.3062 80.5913 50.6702 80.7793 50.1502 81.1553C49.6302 81.5233 49.2342 82.0593 48.9622 82.7633C48.6982 83.4673 48.5662 84.3113 48.5662 85.2953C48.5662 86.1673 48.6862 86.9593 48.9262 87.6713C49.1662 88.3833 49.5422 88.9473 50.0542 89.3633C50.5662 89.7793 51.2342 89.9873 52.0582 89.9873ZM67.0482 79.0913V80.7113H64.0362V91.4993H61.8042V80.7113H59.1882V79.0913H61.8042V77.1713C61.8042 76.1873 62.0562 75.4393 62.5602 74.9273C63.0642 74.4073 63.8162 74.1473 64.8162 74.1473H67.1562L67.1682 75.7193H65.3082C64.8042 75.7193 64.4602 75.8553 64.2762 76.1273C64.0922 76.3993 64.0002 76.8113 64.0002 77.3633V79.0913H67.0482ZM72.1842 79.0913V91.4993H70.0362V79.0913H72.1842ZM72.2322 74.1593V76.4633H69.9642V74.1593H72.2322ZM82.5629 80.7113H79.7669V88.4273C79.7669 88.8673 79.8109 89.1913 79.8989 89.3993C79.9949 89.5993 80.1509 89.7273 80.3669 89.7833C80.5909 89.8393 80.8949 89.8673 81.2789 89.8673H82.6349V91.3553C82.4829 91.4113 82.2509 91.4593 81.9389 91.4993C81.6349 91.5393 81.2549 91.5593 80.7989 91.5593C79.9429 91.5593 79.2789 91.4433 78.8069 91.2113C78.3349 90.9793 78.0029 90.6353 77.8109 90.1793C77.6269 89.7233 77.5349 89.1633 77.5349 88.4993V80.7113H75.5189V79.0913H77.5949L78.1349 75.4793H79.7669V79.0793H82.5629V80.7113ZM97.6304 91.7393C96.8144 91.7393 96.0224 91.6393 95.2544 91.4393C94.4864 91.2313 93.7904 90.9233 93.1664 90.5153C92.5424 90.1073 92.0224 89.6033 91.6064 89.0033C91.1984 88.3953 90.9424 87.6913 90.8384 86.8913H93.1664C93.3104 87.5473 93.5944 88.0993 94.0184 88.5473C94.4504 88.9953 94.9744 89.3313 95.5904 89.5553C96.2144 89.7793 96.8904 89.8913 97.6184 89.8913C98.4344 89.8913 99.1624 89.7793 99.8024 89.5553C100.45 89.3233 100.958 88.9953 101.326 88.5713C101.702 88.1473 101.89 87.6393 101.89 87.0473C101.89 86.5273 101.77 86.0753 101.53 85.6913C101.298 85.3073 100.958 84.9873 100.51 84.7313C100.062 84.4753 99.5184 84.2753 98.8784 84.1313L95.4704 83.3393C94.1904 83.0593 93.1864 82.5593 92.4584 81.8393C91.7384 81.1193 91.3704 80.1673 91.3544 78.9833C91.3544 77.9833 91.6184 77.1033 92.1464 76.3433C92.6824 75.5833 93.4144 74.9913 94.3424 74.5673C95.2784 74.1433 96.3464 73.9313 97.5464 73.9313C98.9304 73.9313 100.094 74.1673 101.038 74.6393C101.982 75.1113 102.694 75.7313 103.174 76.4993C103.654 77.2673 103.898 78.0873 103.906 78.9593H101.614C101.542 78.1753 101.31 77.5553 100.918 77.0993C100.534 76.6353 100.05 76.3073 99.4664 76.1153C98.8824 75.9153 98.2464 75.8153 97.5584 75.8153C97.0624 75.8153 96.5824 75.8793 96.1184 76.0073C95.6624 76.1273 95.2504 76.3113 94.8824 76.5593C94.5224 76.8073 94.2344 77.1153 94.0184 77.4833C93.8024 77.8513 93.6944 78.2793 93.6944 78.7673C93.6944 79.3913 93.9064 79.8993 94.3304 80.2913C94.7624 80.6833 95.5424 81.0193 96.6704 81.2993L99.9704 82.0913C100.834 82.2753 101.538 82.5473 102.082 82.9073C102.634 83.2673 103.058 83.6753 103.354 84.1313C103.658 84.5873 103.866 85.0633 103.978 85.5593C104.098 86.0553 104.158 86.5433 104.158 87.0233C104.158 87.8953 103.898 88.6913 103.378 89.4113C102.858 90.1233 102.11 90.6913 101.134 91.1153C100.166 91.5313 98.9984 91.7393 97.6304 91.7393ZM107.454 91.4993V73.6673H109.614V80.9153C109.822 80.5713 110.102 80.2513 110.454 79.9553C110.806 79.6513 111.234 79.4073 111.738 79.2233C112.242 79.0313 112.826 78.9353 113.49 78.9353C114.298 78.9353 115.03 79.0873 115.686 79.3913C116.342 79.6873 116.862 80.1113 117.246 80.6633C117.63 81.2153 117.822 81.8713 117.822 82.6313V91.4993H115.602V83.0753C115.602 82.3313 115.346 81.7593 114.834 81.3593C114.33 80.9513 113.67 80.7473 112.854 80.7473C112.302 80.7473 111.782 80.8393 111.294 81.0233C110.806 81.1993 110.41 81.4713 110.106 81.8393C109.81 82.1993 109.662 82.6593 109.662 83.2193V91.4993H107.454ZM124.668 91.7393C123.868 91.7393 123.16 91.5993 122.544 91.3193C121.928 91.0313 121.444 90.6193 121.092 90.0833C120.748 89.5473 120.576 88.8993 120.576 88.1393C120.576 86.7633 121.056 85.7393 122.016 85.0673C122.976 84.3953 124.516 84.0353 126.636 83.9873L128.856 83.9273V82.9553C128.856 82.1953 128.628 81.5953 128.172 81.1553C127.716 80.7073 127.008 80.4833 126.048 80.4833C125.336 80.4913 124.708 80.6593 124.164 80.9873C123.628 81.3153 123.28 81.8513 123.12 82.5953H121.164C121.212 81.7873 121.44 81.1073 121.848 80.5553C122.256 79.9953 122.824 79.5713 123.552 79.2833C124.288 78.9953 125.156 78.8513 126.156 78.8513C127.236 78.8513 128.132 79.0033 128.844 79.3073C129.564 79.6113 130.1 80.0593 130.452 80.6513C130.812 81.2433 130.992 81.9713 130.992 82.8353V91.4993H129.096L128.94 89.1713C128.46 90.1393 127.848 90.8113 127.104 91.1873C126.368 91.5553 125.556 91.7393 124.668 91.7393ZM125.34 90.1433C125.756 90.1433 126.168 90.0673 126.576 89.9153C126.992 89.7633 127.372 89.5593 127.716 89.3033C128.06 89.0393 128.332 88.7473 128.532 88.4273C128.74 88.0993 128.848 87.7633 128.856 87.4193V85.2953L127.008 85.3313C126.064 85.3473 125.272 85.4433 124.632 85.6193C124 85.7953 123.524 86.0713 123.204 86.4473C122.892 86.8233 122.736 87.3153 122.736 87.9233C122.736 88.6193 122.976 89.1633 123.456 89.5553C123.944 89.9473 124.572 90.1433 125.34 90.1433ZM134.782 91.4993V79.0913H136.894V81.4793C137.102 80.8873 137.394 80.3993 137.77 80.0153C138.146 79.6233 138.574 79.3313 139.054 79.1393C139.542 78.9473 140.046 78.8513 140.566 78.8513C140.75 78.8513 140.93 78.8633 141.106 78.8873C141.282 78.9113 141.418 78.9513 141.514 79.0073V81.1553C141.394 81.0993 141.238 81.0633 141.046 81.0473C140.862 81.0233 140.706 81.0113 140.578 81.0113C140.082 80.9793 139.618 81.0113 139.186 81.1073C138.754 81.1953 138.374 81.3513 138.046 81.5753C137.718 81.7993 137.458 82.0953 137.266 82.4633C137.082 82.8233 136.99 83.2633 136.99 83.7833V91.4993H134.782ZM146.487 79.0913V91.4993H144.339V79.0913H146.487ZM146.535 74.1593V76.4633H144.267V74.1593H146.535ZM150.532 91.4993V79.0913H152.68V80.8913C152.88 80.5473 153.156 80.2233 153.508 79.9193C153.868 79.6153 154.3 79.3713 154.804 79.1873C155.316 79.0033 155.904 78.9113 156.568 78.9113C157.352 78.9113 158.072 79.0673 158.728 79.3793C159.392 79.6913 159.92 80.1793 160.312 80.8433C160.712 81.4993 160.912 82.3473 160.912 83.3873V91.4993H158.692V83.6033C158.692 82.6353 158.436 81.9193 157.924 81.4553C157.42 80.9833 156.764 80.7473 155.956 80.7473C155.396 80.7473 154.872 80.8393 154.384 81.0233C153.896 81.1993 153.5 81.4713 153.196 81.8393C152.892 82.1993 152.74 82.6553 152.74 83.2073V91.4993H150.532ZM169.616 95.6033C167.664 95.6033 166.144 95.3193 165.056 94.7513C163.976 94.1913 163.436 93.3873 163.436 92.3393C163.436 91.8913 163.54 91.5113 163.748 91.1993C163.956 90.8793 164.204 90.6153 164.492 90.4073C164.78 90.1993 165.048 90.0353 165.296 89.9153C165.544 89.7873 165.704 89.6953 165.776 89.6393C165.64 89.5593 165.468 89.4593 165.26 89.3393C165.06 89.2193 164.884 89.0593 164.732 88.8593C164.58 88.6593 164.504 88.3993 164.504 88.0793C164.504 87.6873 164.688 87.3273 165.056 86.9993C165.424 86.6713 165.968 86.4273 166.688 86.2673C165.96 85.8993 165.392 85.4113 164.984 84.8033C164.576 84.1953 164.372 83.5353 164.372 82.8233C164.372 82.0233 164.588 81.3273 165.02 80.7353C165.46 80.1433 166.084 79.6913 166.892 79.3793C167.7 79.0593 168.66 78.8993 169.772 78.8993C170.58 78.8993 171.26 78.9953 171.812 79.1873C172.364 79.3713 172.876 79.6353 173.348 79.9793C173.476 79.9233 173.676 79.8393 173.948 79.7273C174.228 79.6073 174.536 79.4793 174.872 79.3433C175.208 79.2073 175.52 79.0793 175.808 78.9593C176.104 78.8313 176.34 78.7353 176.516 78.6713L176.504 80.7233L174.332 81.1313C174.452 81.3873 174.548 81.6673 174.62 81.9713C174.7 82.2753 174.74 82.5593 174.74 82.8233C174.74 83.5513 174.548 84.2113 174.164 84.8033C173.788 85.3953 173.216 85.8673 172.448 86.2193C171.68 86.5713 170.72 86.7473 169.568 86.7473C169.472 86.7473 169.348 86.7473 169.196 86.7473C169.052 86.7393 168.928 86.7313 168.824 86.7233C167.976 86.7473 167.392 86.8433 167.072 87.0113C166.752 87.1713 166.592 87.3513 166.592 87.5513C166.592 87.7833 166.772 87.9433 167.132 88.0313C167.492 88.1193 168.104 88.1953 168.968 88.2593C169.28 88.2753 169.664 88.2953 170.12 88.3193C170.584 88.3433 171.096 88.3753 171.656 88.4153C172.96 88.4953 173.964 88.8273 174.668 89.4113C175.372 89.9953 175.724 90.7833 175.724 91.7753C175.724 92.9033 175.22 93.8233 174.212 94.5353C173.204 95.2473 171.672 95.6033 169.616 95.6033ZM170.012 94.1753C171.156 94.1753 172.032 94.0033 172.64 93.6593C173.248 93.3153 173.552 92.7953 173.552 92.0993C173.552 91.6033 173.364 91.1993 172.988 90.8873C172.62 90.5673 172.056 90.3833 171.296 90.3353L167.816 90.1073C167.504 90.0913 167.18 90.1713 166.844 90.3473C166.508 90.5153 166.22 90.7513 165.98 91.0553C165.748 91.3593 165.632 91.7033 165.632 92.0873C165.632 92.7433 165.988 93.2553 166.7 93.6233C167.42 93.9913 168.524 94.1753 170.012 94.1753ZM169.628 85.3193C170.524 85.3193 171.244 85.1113 171.788 84.6953C172.34 84.2793 172.616 83.6633 172.616 82.8473C172.616 82.0073 172.34 81.3673 171.788 80.9273C171.244 80.4873 170.524 80.2673 169.628 80.2673C168.724 80.2673 167.992 80.4913 167.432 80.9393C166.88 81.3793 166.604 82.0153 166.604 82.8473C166.604 83.6313 166.868 84.2393 167.396 84.6713C167.924 85.1033 168.668 85.3193 169.628 85.3193Z" fill="black"/>
</g>
<g clip-path="url(#clip1_3_1633)">
<g clip-path="url(#clip2_3_1633)">
<rect x="0.902954" y="173" width="205.746" height="117.503" rx="4.28818" fill="white"/>
<path d="M48.408 205.16C47.864 205.16 47.336 205.093 46.824 204.96C46.312 204.821 45.848 204.616 45.432 204.344C45.016 204.072 44.6694 203.736 44.392 203.336C44.12 202.931 43.9494 202.461 43.88 201.928H45.432C45.528 202.365 45.7174 202.733 46 203.032C46.288 203.331 46.6374 203.555 47.048 203.704C47.464 203.853 47.9147 203.928 48.4 203.928C48.944 203.928 49.4294 203.853 49.856 203.704C50.288 203.549 50.6267 203.331 50.872 203.048C51.1227 202.765 51.248 202.427 51.248 202.032C51.248 201.685 51.168 201.384 51.008 201.128C50.8534 200.872 50.6267 200.659 50.328 200.488C50.0294 200.317 49.6667 200.184 49.24 200.088L46.968 199.56C46.1147 199.373 45.4454 199.04 44.96 198.56C44.48 198.08 44.2347 197.445 44.224 196.656C44.224 195.989 44.4 195.403 44.752 194.896C45.1094 194.389 45.5974 193.995 46.216 193.712C46.84 193.429 47.552 193.288 48.352 193.288C49.2747 193.288 50.0507 193.445 50.68 193.76C51.3094 194.075 51.784 194.488 52.104 195C52.424 195.512 52.5867 196.059 52.592 196.64H51.064C51.016 196.117 50.8614 195.704 50.6 195.4C50.344 195.091 50.0214 194.872 49.632 194.744C49.2427 194.611 48.8187 194.544 48.36 194.544C48.0294 194.544 47.7094 194.587 47.4 194.672C47.096 194.752 46.8214 194.875 46.576 195.04C46.336 195.205 46.144 195.411 46 195.656C45.856 195.901 45.784 196.187 45.784 196.512C45.784 196.928 45.9254 197.267 46.208 197.528C46.496 197.789 47.016 198.013 47.768 198.2L49.968 198.728C50.544 198.851 51.0134 199.032 51.376 199.272C51.744 199.512 52.0267 199.784 52.224 200.088C52.4267 200.392 52.5654 200.709 52.64 201.04C52.72 201.371 52.76 201.696 52.76 202.016C52.76 202.597 52.5867 203.128 52.24 203.608C51.8934 204.083 51.3947 204.461 50.744 204.744C50.0987 205.021 49.32 205.16 48.408 205.16ZM56.5573 196.728V205H55.1253V196.728H56.5573ZM56.5893 193.44V194.976H55.0773V193.44H56.5893ZM63.4724 197.808H61.6084V202.952C61.6084 203.245 61.6377 203.461 61.6964 203.6C61.7604 203.733 61.8644 203.819 62.0084 203.856C62.1577 203.893 62.3604 203.912 62.6164 203.912H63.5204V204.904C63.4191 204.941 63.2644 204.973 63.0564 205C62.8537 205.027 62.6004 205.04 62.2964 205.04C61.7257 205.04 61.2831 204.963 60.9684 204.808C60.6537 204.653 60.4324 204.424 60.3044 204.12C60.1817 203.816 60.1204 203.443 60.1204 203V197.808H58.7764V196.728H60.1604L60.5204 194.32H61.6084V196.72H63.4724V197.808ZM66.4352 201.208C66.4352 201.731 66.5205 202.205 66.6912 202.632C66.8672 203.053 67.1312 203.389 67.4832 203.64C67.8405 203.891 68.2858 204.016 68.8192 204.016C69.3472 204.016 69.8005 203.893 70.1792 203.648C70.5632 203.403 70.8085 203.048 70.9152 202.584H72.3152C72.2138 203.144 71.9898 203.616 71.6432 204C71.2965 204.384 70.8778 204.675 70.3872 204.872C69.8965 205.064 69.3845 205.16 68.8512 205.16C68.0778 205.16 67.3978 204.992 66.8112 204.656C66.2245 204.32 65.7658 203.837 65.4352 203.208C65.1045 202.579 64.9392 201.824 64.9392 200.944C64.9392 200.075 65.0885 199.312 65.3872 198.656C65.6858 198 66.1178 197.488 66.6832 197.12C67.2538 196.752 67.9392 196.568 68.7392 196.568C69.5178 196.568 70.1765 196.736 70.7152 197.072C71.2538 197.408 71.6618 197.883 71.9392 198.496C72.2218 199.104 72.3632 199.827 72.3632 200.664V201.208H66.4352ZM66.4432 200.208H70.9392C70.9392 199.733 70.8592 199.307 70.6992 198.928C70.5392 198.544 70.2938 198.243 69.9632 198.024C69.6378 197.8 69.2272 197.688 68.7312 197.688C68.2138 197.688 67.7845 197.813 67.4432 198.064C67.1072 198.309 66.8538 198.627 66.6832 199.016C66.5178 199.4 66.4378 199.797 66.4432 200.208ZM80.9245 205.16C80.3485 205.16 79.8125 205.072 79.3165 204.896C78.8259 204.715 78.4179 204.435 78.0925 204.056C77.7672 203.672 77.5619 203.184 77.4765 202.592H78.8205C78.8952 202.917 79.0285 203.189 79.2205 203.408C79.4179 203.621 79.6632 203.784 79.9565 203.896C80.2499 204.003 80.5699 204.056 80.9165 204.056C81.4712 204.056 81.9192 203.952 82.2605 203.744C82.6019 203.536 82.7725 203.216 82.7725 202.784C82.7725 202.48 82.6819 202.237 82.5005 202.056C82.3245 201.869 82.0499 201.733 81.6765 201.648L79.9645 201.224C79.2979 201.064 78.7645 200.813 78.3645 200.472C77.9645 200.131 77.7645 199.653 77.7645 199.04C77.7592 198.555 77.8739 198.128 78.1085 197.76C78.3432 197.392 78.6952 197.101 79.1645 196.888C79.6339 196.675 80.2179 196.568 80.9165 196.568C81.8125 196.568 82.5352 196.771 83.0845 197.176C83.6392 197.576 83.9272 198.165 83.9485 198.944H82.6445C82.5912 198.549 82.4125 198.237 82.1085 198.008C81.8099 197.773 81.4072 197.656 80.9005 197.656C80.3725 197.656 79.9432 197.763 79.6125 197.976C79.2819 198.184 79.1165 198.509 79.1165 198.952C79.1165 199.245 79.2339 199.477 79.4685 199.648C79.7032 199.813 80.0499 199.952 80.5085 200.064L82.1645 200.48C82.5485 200.581 82.8632 200.715 83.1085 200.88C83.3592 201.045 83.5565 201.229 83.7005 201.432C83.8499 201.635 83.9539 201.848 84.0125 202.072C84.0765 202.291 84.1085 202.501 84.1085 202.704C84.1085 203.211 83.9805 203.648 83.7245 204.016C83.4739 204.379 83.1112 204.661 82.6365 204.864C82.1672 205.061 81.5965 205.16 80.9245 205.16ZM87.232 201.208C87.232 201.731 87.3174 202.205 87.488 202.632C87.664 203.053 87.928 203.389 88.28 203.64C88.6374 203.891 89.0827 204.016 89.616 204.016C90.144 204.016 90.5974 203.893 90.976 203.648C91.36 203.403 91.6054 203.048 91.712 202.584H93.112C93.0107 203.144 92.7867 203.616 92.44 204C92.0934 204.384 91.6747 204.675 91.184 204.872C90.6934 205.064 90.1814 205.16 89.648 205.16C88.8747 205.16 88.1947 204.992 87.608 204.656C87.0214 204.32 86.5627 203.837 86.232 203.208C85.9014 202.579 85.736 201.824 85.736 200.944C85.736 200.075 85.8854 199.312 86.184 198.656C86.4827 198 86.9147 197.488 87.48 197.12C88.0507 196.752 88.736 196.568 89.536 196.568C90.3147 196.568 90.9734 196.736 91.512 197.072C92.0507 197.408 92.4587 197.883 92.736 198.496C93.0187 199.104 93.16 199.827 93.16 200.664V201.208H87.232ZM87.24 200.208H91.736C91.736 199.733 91.656 199.307 91.496 198.928C91.336 198.544 91.0907 198.243 90.76 198.024C90.4347 197.8 90.024 197.688 89.528 197.688C89.0107 197.688 88.5814 197.813 88.24 198.064C87.904 198.309 87.6507 198.627 87.48 199.016C87.3147 199.4 87.2347 199.797 87.24 200.208ZM97.2797 205.104C96.8317 205.104 96.469 205.043 96.1917 204.92C95.9197 204.797 95.709 204.632 95.5597 204.424C95.4157 204.216 95.317 203.979 95.2637 203.712C95.2157 203.44 95.1917 203.16 95.1917 202.872V193.112H96.6477V202.728C96.6477 203.144 96.7277 203.456 96.8877 203.664C97.053 203.872 97.2823 203.987 97.5757 204.008L98.0237 204.016V204.976C97.901 205.013 97.773 205.043 97.6397 205.064C97.5063 205.091 97.3863 205.104 97.2797 205.104ZM100.888 201.208C100.888 201.731 100.974 202.205 101.144 202.632C101.32 203.053 101.584 203.389 101.936 203.64C102.294 203.891 102.739 204.016 103.272 204.016C103.8 204.016 104.254 203.893 104.632 203.648C105.016 203.403 105.262 203.048 105.368 202.584H106.768C106.667 203.144 106.443 203.616 106.096 204C105.75 204.384 105.331 204.675 104.84 204.872C104.35 205.064 103.838 205.16 103.304 205.16C102.531 205.16 101.851 204.992 101.264 204.656C100.678 204.32 100.219 203.837 99.8883 203.208C99.5576 202.579 99.3923 201.824 99.3923 200.944C99.3923 200.075 99.5416 199.312 99.8403 198.656C100.139 198 100.571 197.488 101.136 197.12C101.707 196.752 102.392 196.568 103.192 196.568C103.971 196.568 104.63 196.736 105.168 197.072C105.707 197.408 106.115 197.883 106.392 198.496C106.675 199.104 106.816 199.827 106.816 200.664V201.208H100.888ZM100.896 200.208H105.392C105.392 199.733 105.312 199.307 105.152 198.928C104.992 198.544 104.747 198.243 104.416 198.024C104.091 197.8 103.68 197.688 103.184 197.688C102.667 197.688 102.238 197.813 101.896 198.064C101.56 198.309 101.307 198.627 101.136 199.016C100.971 199.4 100.891 199.797 100.896 200.208ZM112.144 196.568C112.736 196.568 113.269 196.683 113.744 196.912C114.219 197.136 114.605 197.456 114.904 197.872C115.208 198.288 115.397 198.779 115.472 199.344H114.16C114.112 199.056 114 198.792 113.824 198.552C113.653 198.312 113.427 198.12 113.144 197.976C112.861 197.832 112.531 197.76 112.152 197.76C111.443 197.76 110.867 198.016 110.424 198.528C109.981 199.04 109.76 199.824 109.76 200.88C109.76 201.835 109.963 202.6 110.368 203.176C110.779 203.747 111.381 204.032 112.176 204.032C112.555 204.032 112.883 203.96 113.16 203.816C113.443 203.667 113.669 203.472 113.84 203.232C114.011 202.987 114.12 202.725 114.168 202.448H115.456C115.387 203.003 115.2 203.483 114.896 203.888C114.592 204.293 114.203 204.608 113.728 204.832C113.259 205.051 112.731 205.16 112.144 205.16C111.403 205.16 110.744 204.997 110.168 204.672C109.597 204.347 109.149 203.867 108.824 203.232C108.499 202.597 108.336 201.819 108.336 200.896C108.336 200.032 108.483 199.277 108.776 198.632C109.075 197.981 109.507 197.475 110.072 197.112C110.643 196.749 111.333 196.568 112.144 196.568ZM121.41 197.808H119.546V202.952C119.546 203.245 119.575 203.461 119.634 203.6C119.698 203.733 119.802 203.819 119.946 203.856C120.095 203.893 120.298 203.912 120.554 203.912H121.458V204.904C121.357 204.941 121.202 204.973 120.994 205C120.791 205.027 120.538 205.04 120.234 205.04C119.663 205.04 119.221 204.963 118.906 204.808C118.591 204.653 118.37 204.424 118.242 204.12C118.119 203.816 118.058 203.443 118.058 203V197.808H116.714V196.728H118.098L118.458 194.32H119.546V196.72H121.41V197.808ZM125.135 196.728V205H123.703V196.728H125.135ZM125.167 193.44V194.976H123.655V193.44H125.167ZM131.027 205.16C130.264 205.16 129.597 204.997 129.027 204.672C128.456 204.341 128.013 203.859 127.699 203.224C127.384 202.589 127.227 201.813 127.227 200.896C127.227 200.032 127.373 199.275 127.667 198.624C127.96 197.973 128.389 197.469 128.955 197.112C129.525 196.749 130.216 196.568 131.027 196.568C131.789 196.568 132.451 196.736 133.011 197.072C133.576 197.403 134.013 197.891 134.323 198.536C134.632 199.181 134.787 199.968 134.787 200.896C134.787 201.739 134.643 202.48 134.355 203.12C134.072 203.76 133.651 204.261 133.091 204.624C132.536 204.981 131.848 205.16 131.027 205.16ZM131.027 203.992C131.523 203.992 131.941 203.867 132.283 203.616C132.624 203.365 132.883 203.005 133.059 202.536C133.235 202.067 133.323 201.509 133.323 200.864C133.323 200.272 133.245 199.741 133.091 199.272C132.936 198.797 132.688 198.421 132.347 198.144C132.011 197.867 131.571 197.728 131.027 197.728C130.525 197.728 130.101 197.853 129.755 198.104C129.408 198.349 129.144 198.707 128.963 199.176C128.787 199.645 128.699 200.208 128.699 200.864C128.699 201.445 128.779 201.973 128.939 202.448C129.099 202.923 129.349 203.299 129.691 203.576C130.032 203.853 130.477 203.992 131.027 203.992ZM136.723 205V196.728H138.155V197.928C138.288 197.699 138.472 197.483 138.707 197.28C138.947 197.077 139.235 196.915 139.571 196.792C139.912 196.669 140.304 196.608 140.747 196.608C141.27 196.608 141.75 196.712 142.187 196.92C142.63 197.128 142.982 197.453 143.243 197.896C143.51 198.333 143.643 198.899 143.643 199.592V205H142.163V199.736C142.163 199.091 141.992 198.613 141.651 198.304C141.315 197.989 140.878 197.832 140.339 197.832C139.966 197.832 139.616 197.893 139.291 198.016C138.966 198.133 138.702 198.315 138.499 198.56C138.296 198.8 138.195 199.104 138.195 199.472V205H136.723Z" fill="black"/>
<path d="M101.532 305.551C122.452 305.551 139.412 288.614 139.412 267.721C139.412 246.827 122.452 229.89 101.532 229.89C80.6112 229.89 63.6517 246.827 63.6517 267.721C63.6517 288.614 80.6112 305.551 101.532 305.551Z" fill="#E6E6E6"/>
<path d="M73.5356 242.959C73.5356 242.959 73.8704 248.414 77.618 246.777C81.3655 245.14 86.4222 243.369 85.8775 249.367C85.3329 255.365 88.3359 256.188 92.5631 254.686C96.7903 253.184 94.7517 252.78 95.0215 247.321C95.2913 241.862 88.201 241.592 89.2903 237.77C90.3795 233.947 98.9189 238.503 95.9509 230.284C95.9509 230.284 81.0007 231.532 73.5356 242.959Z" fill="#C9C9C9"/>
<path d="M105.055 257.175C104.26 257.174 103.474 257.344 102.751 257.674C101.252 258.388 99.4534 260.109 100.478 264.211C102.117 270.783 104.85 265.903 108.398 266.706C111.945 267.51 120.045 268.328 116.048 275.559C112.05 282.79 116.592 284.287 120.42 282.515C124.247 280.744 121.649 273.648 125.611 276.787C129.574 279.925 125.017 289.811 134.67 286.028C134.67 286.028 145.778 269.231 134.67 249.41C134.67 249.41 129.634 239.784 125.676 243.198C121.719 246.611 127.175 246.801 127.715 250.718C128.254 254.635 125.951 259.411 122.793 255.014C119.635 250.618 120.694 251.022 115.643 250.458C111.605 250.024 108.792 250.508 108.722 253.951C108.706 254.807 108.356 255.623 107.748 256.226C107.14 256.83 106.321 257.174 105.464 257.185L105.055 257.175Z" fill="#C9C9C9"/>
<path d="M104.055 235.866C104.055 235.866 100.123 234.773 100.178 239.549C100.233 244.324 102.826 244.04 105.674 242.822C108.522 241.605 106.084 245.552 111.545 244.459C117.007 243.366 117.421 242.089 116.192 240.207C114.963 238.326 112.949 231.09 104.055 235.866Z" fill="#C9C9C9"/>
<path d="M63.6521 267.71C63.6521 267.71 68.274 260.165 73.3207 265.265C78.3674 270.365 68.4389 269.546 73.5356 274.457C78.6322 279.367 82.1849 267.97 85.053 272.301C87.9211 276.632 93.5474 279.587 86.9567 283.409C80.3661 287.232 84.3085 292.531 87.3465 291.393C90.3845 290.256 95.7809 297.951 87.3465 302.701C87.3465 302.726 62.5828 293.709 63.6521 267.71Z" fill="#C9C9C9"/>
<path d="M103.256 276.378C103.256 276.378 98.0644 276.378 98.0495 281.289C98.0345 286.199 107.743 281.558 105.485 286.878C103.226 292.197 108.533 293.634 111.481 291.419C114.429 289.203 109.342 282.526 109.832 277.815C110.321 273.105 103.831 274.198 103.256 276.378Z" fill="#C9C9C9"/>
<path opacity="0.08" d="M91.2637 261.419L96.5602 260.55L93.1824 273.769L89.6847 274.508C88.911 274.672 88.1859 275.013 87.5661 275.504C86.9463 275.995 86.4487 276.622 86.1121 277.337C84.3033 281.145 80.156 288.899 74.185 294.119C74.185 294.119 65.0809 286.135 63.8218 273.31L69.6929 262.377L74.1899 262.097L91.2637 261.419Z" fill="black"/>
<path d="M57.766 275.31L67.5845 263.094L69.7031 264.95L61.3386 278.913L57.766 275.31Z" fill="#FEEADA"/>
<path d="M45.4142 259.237L47.223 264.666L42.9208 267.391L41.3768 257.989L45.4142 259.237Z" fill="#F4A28C"/>
<path d="M39.8979 252.74C40.1224 252.223 40.4726 251.771 40.9168 251.424C41.3609 251.077 41.8848 250.847 42.4409 250.753C42.997 250.66 43.5677 250.707 44.1009 250.89C44.6341 251.073 45.1131 251.387 45.4942 251.802C47.328 253.753 49.5315 256.857 47.0381 258.544C43.2157 261.129 39.713 256.298 39.713 256.298C39.4225 255.12 39.4868 253.882 39.8979 252.74Z" fill="#F4A28C"/>
<path d="M42.6908 256.074C42.6908 256.074 41.6914 255.256 41.2717 256.414C40.852 257.572 42.5559 258.14 43.0705 257.552C43.5852 256.963 42.6908 256.074 42.6908 256.074Z" fill="#F4A28C"/>
<path d="M37.9042 270.056C38.5563 268.622 39.5096 267.345 40.6994 266.312C41.8891 265.279 43.2875 264.513 44.7996 264.067C50.6408 262.316 61.3987 264.232 64.6766 269.691C69.1736 277.177 62.5929 300.905 62.5929 300.905L42.9609 302.427C42.9609 302.427 32.158 282.945 37.9042 270.056Z" fill="#FEEADA"/>
<path opacity="0.08" d="M46.4936 263.534C46.4936 263.534 37.3096 293.076 63.8321 295.032L62.583 300.881L42.9509 302.403C42.9509 302.403 36.0305 291.554 36.3253 276.314C36.3253 276.314 36.4902 268.779 41.8216 265.446C43.2255 264.485 44.8181 263.833 46.4936 263.534Z" fill="black"/>
<path d="M54.5031 263.89C53.5203 265.461 52.9992 267.276 52.9992 269.129C52.9992 270.982 53.5203 272.797 54.5031 274.369C56.6417 277.977 62.8726 285.008 67.1298 289.654C67.6109 290.179 68.2102 290.583 68.8784 290.832C69.5465 291.081 70.2643 291.167 70.9725 291.084C71.6807 291.002 72.3591 290.752 72.9515 290.355C73.544 289.959 74.0336 289.428 74.38 288.805L83.529 272.702L80.426 270.706L72.0416 282.982C72.0416 282.982 66.3004 264.129 54.5031 263.89Z" fill="#FEEADA"/>
<path opacity="0.2" d="M54.5031 263.89C53.5203 265.461 52.9992 267.276 52.9992 269.129C52.9992 270.982 53.5203 272.797 54.5031 274.369C56.6417 277.977 62.8726 285.008 67.1298 289.654C67.6109 290.179 68.2102 290.583 68.8784 290.832C69.5465 291.081 70.2643 291.167 70.9725 291.084C71.6807 291.002 72.3591 290.752 72.9515 290.355C73.544 289.959 74.0336 289.428 74.38 288.805L83.529 272.702L80.426 270.706L72.0416 282.982C72.0416 282.982 66.3004 264.129 54.5031 263.89Z" fill="white"/>
<path d="M82.4495 271.985C82.4495 271.985 87.6411 270.084 85.5225 267.15C83.4039 264.215 80.4258 270.693 80.4258 270.693L82.4495 271.985Z" fill="#F4A28C"/>
<path d="M41.6567 259.728L38.7486 256.734C38.4483 256.421 38.215 256.051 38.063 255.645C37.9109 255.239 37.8433 254.807 37.8642 254.374C37.9341 252.842 38.2639 250.382 39.5281 248.57C41.5268 245.701 44.17 244.613 44.8246 247.073C45.4792 249.533 45.6191 246.604 47.223 247.927C48.827 249.249 48.4972 250.017 47.223 250.721C45.9489 251.425 43.3106 252.428 43.0757 254.524C42.8409 256.619 44.8296 258.306 41.6567 259.728Z" fill="#24285B"/>
<path d="M70.4123 262.96L75.0143 252.401L78.0223 256.234L83.8484 253.464L86.3968 257.761L92.6826 256.857L88.9451 268.864L82.8441 270.431L80.041 265.84L74.1948 267.447L70.4123 262.96Z" fill="#FF0000"/>
<path opacity="0.2" d="M75.3094 255.016L71.9766 262.411L74.7648 265.889L80.7758 263.888L83.2292 269.183L87.8761 267.865L90.8842 258.389L85.4877 259.312L83.2292 255.016L77.7728 257.785L75.3094 255.016Z" fill="white"/>
<path opacity="0.08" d="M78.0225 256.233L74.1951 267.446L80.0412 265.839L83.8487 253.463L78.0225 256.233Z" fill="black"/>
<path opacity="0.08" d="M86.3968 257.759L82.8441 270.429L88.9451 268.862L92.6826 256.856L86.3968 257.759Z" fill="black"/>
<path d="M67.954 263.414C67.954 263.414 68.5337 260.774 69.7029 260.091C70.8721 259.407 73.2605 259.946 72.2362 261.418C71.2119 262.89 69.7029 264.951 69.7029 264.951L67.954 263.414Z" fill="#F4A28C"/>
<path d="M128.09 258.254C132.662 258.254 136.369 257.052 136.369 255.569C136.369 254.086 132.662 252.884 128.09 252.884C123.517 252.884 119.81 254.086 119.81 255.569C119.81 257.052 123.517 258.254 128.09 258.254Z" fill="#24285B"/>
<path d="M140.252 232.806C140.253 230.93 139.819 229.079 138.984 227.398C138.149 225.717 136.935 224.252 135.438 223.118C133.942 221.983 132.202 221.211 130.356 220.861C128.51 220.51 126.608 220.592 124.799 221.098C122.99 221.605 121.323 222.523 119.929 223.781C118.534 225.039 117.451 226.602 116.763 228.349C116.075 230.095 115.801 231.976 115.963 233.846C116.125 235.715 116.718 237.522 117.696 239.124L128.09 256.125L138.423 239.209C139.621 237.288 140.255 235.069 140.252 232.806ZM128.09 239.269C126.913 239.27 125.763 238.922 124.784 238.27C123.805 237.619 123.041 236.692 122.589 235.607C122.138 234.522 122.018 233.327 122.246 232.174C122.474 231.022 123.039 229.962 123.87 229.13C124.7 228.298 125.759 227.73 126.913 227.498C128.066 227.267 129.263 227.382 130.351 227.83C131.438 228.277 132.369 229.037 133.025 230.012C133.681 230.988 134.033 232.135 134.036 233.31C134.038 234.092 133.885 234.866 133.588 235.588C133.29 236.311 132.852 236.967 132.3 237.521C131.747 238.074 131.091 238.513 130.369 238.813C129.647 239.113 128.872 239.268 128.09 239.269Z" fill="#FF0000"/>
</g>
<g clip-path="url(#clip3_3_1633)">
<rect x="196" y="173" width="219.373" height="117.503" rx="4.28818" fill="white"/>
<path d="M252.694 203V191.432H254.742L258.23 200.984L261.766 191.432H263.806V203H262.278V193.648L258.926 203H257.542L254.214 193.736V203H252.694ZM268.803 203.16C268.27 203.16 267.798 203.067 267.387 202.88C266.976 202.688 266.654 202.413 266.419 202.056C266.19 201.699 266.075 201.267 266.075 200.76C266.075 199.843 266.395 199.16 267.035 198.712C267.675 198.264 268.702 198.024 270.115 197.992L271.595 197.952V197.304C271.595 196.797 271.443 196.397 271.139 196.104C270.835 195.805 270.363 195.656 269.723 195.656C269.248 195.661 268.83 195.773 268.467 195.992C268.11 196.211 267.878 196.568 267.771 197.064H266.467C266.499 196.525 266.651 196.072 266.923 195.704C267.195 195.331 267.574 195.048 268.059 194.856C268.55 194.664 269.128 194.568 269.795 194.568C270.515 194.568 271.112 194.669 271.587 194.872C272.067 195.075 272.424 195.373 272.659 195.768C272.899 196.163 273.019 196.648 273.019 197.224V203H271.755L271.651 201.448C271.331 202.093 270.923 202.541 270.427 202.792C269.936 203.037 269.395 203.16 268.803 203.16ZM269.251 202.096C269.528 202.096 269.803 202.045 270.075 201.944C270.352 201.843 270.606 201.707 270.835 201.536C271.064 201.36 271.246 201.165 271.379 200.952C271.518 200.733 271.59 200.509 271.595 200.28V198.864L270.363 198.888C269.734 198.899 269.206 198.963 268.779 199.08C268.358 199.197 268.04 199.381 267.827 199.632C267.619 199.883 267.515 200.211 267.515 200.616C267.515 201.08 267.675 201.443 267.995 201.704C268.32 201.965 268.739 202.096 269.251 202.096ZM275.546 203V194.728H276.954V196.32C277.093 195.925 277.288 195.6 277.538 195.344C277.789 195.083 278.074 194.888 278.394 194.76C278.72 194.632 279.056 194.568 279.402 194.568C279.525 194.568 279.645 194.576 279.762 194.592C279.88 194.608 279.97 194.635 280.034 194.672V196.104C279.954 196.067 279.85 196.043 279.722 196.032C279.6 196.016 279.496 196.008 279.41 196.008C279.08 195.987 278.77 196.008 278.482 196.072C278.194 196.131 277.941 196.235 277.722 196.384C277.504 196.533 277.33 196.731 277.202 196.976C277.08 197.216 277.018 197.509 277.018 197.856V203H275.546ZM289.013 203H287.445L284.853 198.848L283.221 200.536V203H281.749V191.112H283.221V198.864L287.109 194.728H288.805L285.821 197.88L289.013 203ZM291.462 199.208C291.462 199.731 291.547 200.205 291.718 200.632C291.894 201.053 292.158 201.389 292.51 201.64C292.867 201.891 293.312 202.016 293.846 202.016C294.374 202.016 294.827 201.893 295.206 201.648C295.59 201.403 295.835 201.048 295.942 200.584H297.342C297.24 201.144 297.016 201.616 296.67 202C296.323 202.384 295.904 202.675 295.414 202.872C294.923 203.064 294.411 203.16 293.878 203.16C293.104 203.16 292.424 202.992 291.838 202.656C291.251 202.32 290.792 201.837 290.462 201.208C290.131 200.579 289.966 199.824 289.966 198.944C289.966 198.075 290.115 197.312 290.414 196.656C290.712 196 291.144 195.488 291.71 195.12C292.28 194.752 292.966 194.568 293.766 194.568C294.544 194.568 295.203 194.736 295.742 195.072C296.28 195.408 296.688 195.883 296.966 196.496C297.248 197.104 297.39 197.827 297.39 198.664V199.208H291.462ZM291.47 198.208H295.966C295.966 197.733 295.886 197.307 295.726 196.928C295.566 196.544 295.32 196.243 294.99 196.024C294.664 195.8 294.254 195.688 293.758 195.688C293.24 195.688 292.811 195.813 292.47 196.064C292.134 196.309 291.88 196.627 291.71 197.016C291.544 197.4 291.464 197.797 291.47 198.208ZM303.358 195.808H301.494V200.952C301.494 201.245 301.524 201.461 301.582 201.6C301.646 201.733 301.75 201.819 301.894 201.856C302.044 201.893 302.246 201.912 302.502 201.912H303.406V202.904C303.305 202.941 303.15 202.973 302.942 203C302.74 203.027 302.486 203.04 302.182 203.04C301.612 203.04 301.169 202.963 300.854 202.808C300.54 202.653 300.318 202.424 300.19 202.12C300.068 201.816 300.006 201.443 300.006 201V195.808H298.662V194.728H300.046L300.406 192.32H301.494V194.72H303.358V195.808ZM307.084 194.728V203H305.652V194.728H307.084ZM307.116 191.44V192.976H305.604V191.44H307.116ZM309.781 203V194.728H311.213V195.928C311.346 195.699 311.53 195.483 311.765 195.28C312.005 195.077 312.293 194.915 312.629 194.792C312.97 194.669 313.362 194.608 313.805 194.608C314.327 194.608 314.807 194.712 315.245 194.92C315.687 195.128 316.039 195.453 316.301 195.896C316.567 196.333 316.701 196.899 316.701 197.592V203H315.221V197.736C315.221 197.091 315.05 196.613 314.709 196.304C314.373 195.989 313.935 195.832 313.397 195.832C313.023 195.832 312.674 195.893 312.349 196.016C312.023 196.133 311.759 196.315 311.557 196.56C311.354 196.8 311.253 197.104 311.253 197.472V203H309.781ZM322.503 205.736C321.202 205.736 320.188 205.547 319.463 205.168C318.743 204.795 318.383 204.259 318.383 203.56C318.383 203.261 318.452 203.008 318.591 202.8C318.73 202.587 318.895 202.411 319.087 202.272C319.279 202.133 319.458 202.024 319.623 201.944C319.788 201.859 319.895 201.797 319.943 201.76C319.852 201.707 319.738 201.64 319.599 201.56C319.466 201.48 319.348 201.373 319.247 201.24C319.146 201.107 319.095 200.933 319.095 200.72C319.095 200.459 319.218 200.219 319.463 200C319.708 199.781 320.071 199.619 320.551 199.512C320.066 199.267 319.687 198.941 319.415 198.536C319.143 198.131 319.007 197.691 319.007 197.216C319.007 196.683 319.151 196.219 319.439 195.824C319.732 195.429 320.148 195.128 320.687 194.92C321.226 194.707 321.866 194.6 322.607 194.6C323.146 194.6 323.599 194.664 323.967 194.792C324.335 194.915 324.676 195.091 324.991 195.32C325.076 195.283 325.21 195.227 325.391 195.152C325.578 195.072 325.783 194.987 326.007 194.896C326.231 194.805 326.439 194.72 326.631 194.64C326.828 194.555 326.986 194.491 327.103 194.448L327.095 195.816L325.647 196.088C325.727 196.259 325.791 196.445 325.839 196.648C325.892 196.851 325.919 197.04 325.919 197.216C325.919 197.701 325.791 198.141 325.535 198.536C325.284 198.931 324.903 199.245 324.391 199.48C323.879 199.715 323.239 199.832 322.471 199.832C322.407 199.832 322.324 199.832 322.223 199.832C322.127 199.827 322.044 199.821 321.975 199.816C321.41 199.832 321.02 199.896 320.807 200.008C320.594 200.115 320.487 200.235 320.487 200.368C320.487 200.523 320.607 200.629 320.847 200.688C321.087 200.747 321.495 200.797 322.071 200.84C322.279 200.851 322.535 200.864 322.839 200.88C323.148 200.896 323.49 200.917 323.863 200.944C324.732 200.997 325.402 201.219 325.871 201.608C326.34 201.997 326.575 202.523 326.575 203.184C326.575 203.936 326.239 204.549 325.567 205.024C324.895 205.499 323.874 205.736 322.503 205.736ZM322.767 204.784C323.53 204.784 324.114 204.669 324.519 204.44C324.924 204.211 325.127 203.864 325.127 203.4C325.127 203.069 325.002 202.8 324.751 202.592C324.506 202.379 324.13 202.256 323.623 202.224L321.303 202.072C321.095 202.061 320.879 202.115 320.655 202.232C320.431 202.344 320.239 202.501 320.079 202.704C319.924 202.907 319.847 203.136 319.847 203.392C319.847 203.829 320.084 204.171 320.559 204.416C321.039 204.661 321.775 204.784 322.767 204.784ZM322.511 198.88C323.108 198.88 323.588 198.741 323.951 198.464C324.319 198.187 324.503 197.776 324.503 197.232C324.503 196.672 324.319 196.245 323.951 195.952C323.588 195.659 323.108 195.512 322.511 195.512C321.908 195.512 321.42 195.661 321.047 195.96C320.679 196.253 320.495 196.677 320.495 197.232C320.495 197.755 320.671 198.16 321.023 198.448C321.375 198.736 321.871 198.88 322.511 198.88Z" fill="black"/>
<path opacity="0.3" d="M229.724 245.431C216.734 253.355 209.039 267.9 210.248 283.099C210.873 290.864 213.754 298.357 221.368 302.45C241.673 313.342 330.318 313.547 343.439 294.281C356.561 275.016 351.678 247.605 323.148 236.191C298.426 226.275 263.264 224.968 229.724 245.431Z" fill="#E6E6E6"/>
<path d="M288.783 252.257V266.158H297.746L299.708 271.69L302.022 266.158H310.99V252.257H288.783Z" fill="#E6E6E6"/>
<path d="M294.349 260.32C295.15 260.32 295.799 259.67 295.799 258.868C295.799 258.065 295.15 257.415 294.349 257.415C293.549 257.415 292.9 258.065 292.9 258.868C292.9 259.67 293.549 260.32 294.349 260.32Z" fill="white"/>
<path d="M299.884 260.32C300.685 260.32 301.334 259.67 301.334 258.868C301.334 258.065 300.685 257.415 299.884 257.415C299.084 257.415 298.435 258.065 298.435 258.868C298.435 259.67 299.084 260.32 299.884 260.32Z" fill="white"/>
<path d="M305.378 260.32C306.179 260.32 306.828 259.67 306.828 258.868C306.828 258.065 306.179 257.415 305.378 257.415C304.578 257.415 303.929 258.065 303.929 258.868C303.929 259.67 304.578 260.32 305.378 260.32Z" fill="white"/>
<path d="M268.731 236.6C268.731 236.6 266.58 237.181 266.466 238.374C266.353 239.568 267.608 243.82 267.594 243.911C267.581 244.002 270.208 243.784 270.208 243.784C270.208 243.784 268.731 240.807 269.582 239.781C270.434 238.755 270.642 236.373 268.731 236.6Z" fill="#F4A28C"/>
<path d="M263.767 235.966C265.75 237.878 267.887 239.623 270.158 241.18L271.349 240.205L265.878 235.004L263.767 235.966Z" fill="#C1C1C1"/>
<path d="M260.533 247.129C260.664 247.256 268.333 255.043 269.112 253.682L266.457 243.18L270.208 242.726C270.208 242.726 278.198 261.983 274.117 261.983C270.036 261.983 261.104 256.959 261.104 256.959L260.533 247.129Z" fill="#FEEADA"/>
<path opacity="0.46" d="M260.533 247.129C260.664 247.256 268.333 255.043 269.112 253.682L266.457 243.18L270.208 242.726C270.208 242.726 278.198 261.983 274.117 261.983C270.036 261.983 261.104 256.959 261.104 256.959L260.533 247.129Z" fill="white"/>
<path d="M223.827 270.112C223.827 270.112 223.274 271.605 223.374 272.159C223.473 272.712 223.777 274.074 223.374 274.927C222.971 275.78 222.423 275.631 222.423 275.631C222.423 275.631 222.169 277.037 221.97 277.124C221.77 277.21 218.654 276.398 218.482 275.376C218.31 274.355 220.226 268.065 220.226 268.065L223.827 270.112Z" fill="#F4A28C"/>
<path d="M247.801 287.511L264.107 316.116L266.331 315.626L257.304 284.434L247.801 287.511Z" fill="#F4A28C"/>
<path d="M238.153 284.051L240.794 296.758L231.957 290.527L230.431 292.519C230.431 292.519 239.49 305.753 246.148 303.829C252.806 301.904 247.479 281.337 247.479 281.337L238.153 284.051Z" fill="#F4A28C"/>
<path d="M252.231 234.393C252.231 234.393 252.104 233.131 251.166 233.308C250.229 233.485 250.396 235.301 251.696 235.369L252.231 234.393Z" fill="#F4A28C"/>
<path d="M249.934 233.242L250.496 244.002L257.335 245.826L253.616 235.733L249.934 233.242Z" fill="#F4A28C"/>
<path opacity="0.31" d="M254.291 237.356C253.53 237.327 252.793 237.077 252.172 236.634C252.172 236.634 252.665 238.545 255.184 239.997L254.291 237.356Z" fill="#CE8172"/>
<path d="M255.732 231.58C255.732 231.58 256.511 234.757 256.298 237.026C256.278 237.244 256.215 237.455 256.112 237.647C256.01 237.84 255.87 238.01 255.702 238.148C255.533 238.286 255.339 238.389 255.13 238.451C254.922 238.513 254.703 238.534 254.486 238.51C253.363 238.383 251.882 237.893 251.257 236.241L249.848 233.55C249.624 232.981 249.581 232.357 249.726 231.763C249.87 231.169 250.195 230.634 250.655 230.233C252.285 228.612 255.342 229.611 255.732 231.58Z" fill="#F4A28C"/>
<path d="M256.121 233.615L257.217 234.727C257.28 234.79 257.325 234.868 257.349 234.953C257.373 235.038 257.376 235.129 257.356 235.215C257.336 235.301 257.294 235.382 257.235 235.448C257.176 235.514 257.102 235.564 257.018 235.593L255.813 236.02L256.121 233.615Z" fill="#F4A28C"/>
<path d="M263.45 257.784C260.606 264.923 256.855 263.593 255.886 269.289L254.89 274.894L244.472 271.717L240.527 270.519L240.35 270.464L240.373 270.364C240.563 269.416 242.04 261.91 241.175 256.813C240.722 254.24 239.879 249.86 240.722 246.443C241.628 242.926 244.318 240.425 251.171 241.95C251.782 242.082 252.426 242.25 253.105 242.454C254.414 242.987 255.677 243.626 256.883 244.364C260.778 246.77 266.023 251.335 263.45 257.784Z" fill="#FEEADA"/>
<path opacity="0.09" d="M247.588 263.633C246.75 264.995 246.968 265.798 246.252 267.214L244.44 271.73C243.317 271.389 241.428 271.217 240.495 270.531C240.436 270.488 240.384 270.436 240.341 270.377C240.531 269.429 242.008 261.922 241.143 256.826C240.69 254.252 239.847 249.873 240.69 246.456C241.25 245.892 241.905 245.432 242.624 245.094C244.531 244.241 247.801 244.609 247.815 244.64C248.816 245.362 250.165 250.118 250.559 251.271C251.964 255.278 249.857 259.975 247.588 263.633Z" fill="black"/>
<path d="M242.814 242.161C242.814 242.161 232.587 246.245 225.888 254.918C219.189 263.591 219.361 269.727 219.361 269.727L224.293 270.975C224.293 270.975 227.038 261.898 231.957 259.175C236.876 256.452 244.35 257.246 247.226 250.098C250.102 242.95 246.881 241.33 242.814 242.161Z" fill="#FEEADA"/>
<path d="M258.554 256.948C258.468 246.728 251.402 242.203 251.402 242.203C251.402 242.203 251.307 242.112 251.166 241.963C251.778 242.094 252.421 242.262 253.1 242.466C254.409 243 255.672 243.639 256.878 244.377C257.131 244.758 257.39 245.171 257.661 245.611C260.125 249.61 258.554 256.948 258.554 256.948Z" fill="#24285B"/>
<path d="M251.574 233.875C251.574 233.875 256.733 242.988 253.838 245.221C250.944 247.454 245.3 247.817 244.019 243.81C242.737 239.802 246.628 238.259 245.921 232.514C245.214 226.768 256.266 225.747 256.791 229.028C257.317 232.31 251.574 233.875 251.574 233.875Z" fill="#24285B"/>
<path d="M240.332 270.477L254.871 274.893L261.104 292.102L239.299 294.54C239.299 294.54 233.053 278.828 240.332 270.477Z" fill="#24285B"/>
<path d="M230.635 292.561C230.635 292.561 228.619 292.625 227.713 293.964C226.807 295.302 224.851 294.14 226.581 292.198C227.115 291.591 227.7 291.031 228.329 290.523C228.896 290.039 229.324 289.413 229.57 288.708C229.626 288.578 229.721 288.468 229.842 288.393C229.963 288.318 230.103 288.283 230.245 288.291C231.373 288.213 231.962 290.514 231.962 290.514L230.635 292.561Z" fill="#FEEADA"/>
<path d="M277.835 234.584L258.019 237.507L257.367 235.964L273.265 223.76L277.835 234.584Z" fill="#E6E6E6"/>
<path d="M272.731 222.926L272.727 222.928C272.252 223.129 272.03 223.677 272.231 224.153L276.833 235.063C277.033 235.539 277.581 235.762 278.055 235.561L278.06 235.559C278.534 235.358 278.756 234.809 278.556 234.334L273.954 223.423C273.753 222.948 273.206 222.725 272.731 222.926Z" fill="#C1C1C1"/>
<path d="M267.282 237.922C267.437 238.301 267.667 238.645 267.957 238.934C268.101 239.081 268.273 239.197 268.463 239.275C268.653 239.353 268.857 239.391 269.062 239.388C269.264 239.376 269.458 239.304 269.62 239.182C269.781 239.059 269.902 238.89 269.968 238.698C270.181 237.949 269.515 236.724 268.731 236.565C267.871 236.365 266.865 236.983 267.282 237.922Z" fill="#F4A28C"/>
<path d="M335.146 229.387H311.108V247.559H335.146V229.387Z" fill="#E6E6E6"/>
<path d="M343.24 272.932H320.158V290.382H343.24V272.932Z" fill="#E6E6E6"/>
<path d="M328.529 278.083V284.591L335.776 281.26L328.529 278.083Z" fill="white"/>
<path d="M303.44 276.559H271.712V300.544H303.44V276.559Z" fill="#E6E6E6"/>
<path d="M280.893 287.138H276.93V295.298H280.893V287.138Z" fill="white"/>
<path d="M286.455 282.939H282.492V295.297H286.455V282.939Z" fill="white"/>
<path d="M292.411 289.116H288.448V295.298H292.411V289.116Z" fill="white"/>
<path d="M298.217 281.806H294.254V295.298H298.217V281.806Z" fill="white"/>
<path d="M323.125 234.961L323.288 234.721C323.639 234.205 324.127 233.798 324.696 233.545C325.138 233.354 325.621 233.274 326.101 233.314C326.806 233.36 327.47 233.668 327.962 234.176C328.387 234.611 328.66 235.171 328.741 235.774C328.789 236.163 328.789 236.556 328.741 236.945C328.666 237.931 328.253 238.861 327.573 239.577C327.159 240.029 326.717 240.455 326.25 240.852L323.859 242.953C323.623 243.162 323.406 243.38 323.17 243.593L323.129 243.63L322.957 243.471C322.183 242.74 321.381 242.041 320.579 241.342C320.054 240.888 319.524 240.435 319.035 239.94C318.67 239.589 318.352 239.192 318.088 238.76C317.816 238.298 317.634 237.788 317.554 237.258C317.493 236.865 317.47 236.466 317.486 236.069C317.499 235.491 317.689 234.931 318.03 234.465C318.371 233.999 318.847 233.65 319.393 233.464C319.937 233.265 320.527 233.231 321.091 233.364C321.654 233.498 322.166 233.795 322.563 234.217C322.77 234.423 322.951 234.653 323.102 234.902C323.106 234.923 323.114 234.943 323.125 234.961Z" fill="white"/>
<path d="M294.644 238.773H286.219V245.154H294.644V238.773Z" fill="#E6E6E6"/>
</g>
</g>
<g clip-path="url(#clip4_3_1633)">
<g clip-path="url(#clip5_3_1633)">
<rect x="0.962036" y="299" width="134.71" height="126.519" rx="4.28818" fill="white"/>
<path d="M113.237 402.166C112.31 402.053 111.382 401.919 110.466 401.732C109.721 401.582 108.927 401.732 108.188 401.55C107.834 401.431 107.509 401.24 107.233 400.99C106.956 400.741 106.734 400.436 106.58 400.097C106.251 399.534 106.067 398.899 106.044 398.248C106.037 397.925 106.094 397.604 106.212 397.303C106.33 397.002 106.506 396.727 106.73 396.495L107.802 398.526C107.822 398.132 107.921 397.746 108.093 397.39C108.266 397.035 108.507 396.718 108.804 396.457C109.382 397.153 109.873 397.916 110.267 398.73C110.388 397.997 110.625 397.287 110.97 396.629C111.005 396.539 111.071 396.464 111.157 396.42C111.313 396.361 111.468 396.506 111.575 396.64C111.929 397.09 112.256 397.83 112.712 398.14C113.168 397.615 113.568 397.044 113.907 396.436C114.812 397.103 115.479 398.042 115.81 399.116C116.325 398.39 116.76 397.61 117.107 396.79C117.705 397.314 118.087 398.042 118.179 398.832C118.563 398.402 118.857 397.899 119.042 397.352C119.096 397.16 119.192 396.908 119.391 396.934C119.475 396.955 119.549 397.004 119.6 397.074C120.024 397.564 120.261 398.189 120.27 398.837C120.27 398.532 122.387 397.808 122.73 397.712C122.719 398.531 122.428 399.322 121.905 399.952C120.877 401.156 119.449 401.95 117.884 402.187C116.343 402.412 114.776 402.405 113.237 402.166Z" fill="#FF0000"/>
<path d="M115.66 374.912C115.553 374.683 115.391 374.484 115.188 374.333C115.087 374.259 114.965 374.218 114.84 374.218C114.714 374.218 114.592 374.259 114.491 374.333C114.339 374.516 114.266 374.751 114.288 374.987L114.234 376.676C113.906 375.816 113.495 374.99 113.006 374.21C112.417 373.272 111.548 372.323 110.444 372.339C110.203 372.339 109.908 372.431 109.86 372.661C109.843 372.785 109.861 372.912 109.914 373.026C110.241 373.942 110.68 374.821 110.932 375.759C111.233 376.698 111.165 377.715 110.744 378.606C110.452 377.903 110.011 377.273 109.453 376.756C109.136 376.461 108.659 376.22 108.289 376.419C108.165 376.514 108.069 376.642 108.012 376.789C107.956 376.935 107.94 377.095 107.968 377.249C108.005 377.56 108.129 377.855 108.182 378.166C108.327 379.05 107.839 379.913 107.298 380.632C106.691 381.295 106.219 382.071 105.909 382.915C105.788 383.506 105.831 384.119 106.036 384.686C106.24 385.254 106.597 385.754 107.067 386.131C108.017 386.867 109.195 387.246 110.396 387.203C112.154 387.203 115.36 386.721 116.485 385.14C117.557 383.639 117.354 380.793 117.096 379.104C116.878 377.631 116.391 376.21 115.66 374.912Z" fill="#E6E6E6"/>
<path d="M53.5989 368.384C57.4905 363.56 65.236 364.476 67.7714 370.11C68.5667 371.99 68.9995 374.003 69.0471 376.044C69.5831 388.265 75.8868 394.928 81.6758 392.821C87.4649 390.715 90.2522 380.493 90.2522 380.493C90.2522 380.493 94.9853 377.116 96.0359 380.493C97.0865 383.87 92.7072 383.891 92.7072 383.891C92.7072 383.891 87.0789 416.932 62.5452 395.791C47.0434 382.433 49.6109 373.299 53.5989 368.384Z" fill="#F4A28C"/>
<path opacity="0.08" d="M53.5989 368.384C57.4905 363.56 65.236 364.476 67.7714 370.11C68.5667 371.99 68.9995 374.003 69.0471 376.044C69.5831 388.265 75.8868 394.928 81.6758 392.821C87.4649 390.715 90.2522 380.493 90.2522 380.493C90.2522 380.493 94.9853 377.116 96.0359 380.493C97.0865 383.87 92.7072 383.891 92.7072 383.891C92.7072 383.891 87.0789 416.932 62.5452 395.791C47.0434 382.433 49.6109 373.299 53.5989 368.384Z" fill="black"/>
<path d="M63.435 353.318C64.0513 354.783 64.4678 356.325 64.6732 357.901C64.6855 358.09 64.6603 358.28 64.599 358.459C64.5376 358.639 64.4414 358.804 64.3159 358.946C64.1903 359.088 64.0379 359.204 63.8674 359.287C63.6969 359.369 63.5116 359.418 63.3224 359.429C62.7149 359.498 62.1003 359.392 61.5506 359.125C61.0009 358.857 60.5389 358.438 60.2188 357.917L58.6108 355.773C58.3376 355.315 58.2136 354.784 58.2559 354.253C58.2982 353.722 58.5046 353.217 58.8466 352.809C60.0527 351.238 62.8507 351.672 63.435 353.318Z" fill="#F4A28C"/>
<path d="M58.8893 355.729L57.7851 365.055L63.0435 365.677L61.7249 358.586L58.8893 355.729Z" fill="#F4A28C"/>
<path d="M64.0514 355.015L65.1234 355.819C65.1861 355.865 65.2362 355.926 65.2689 355.996C65.3016 356.067 65.316 356.144 65.3106 356.222C65.3053 356.299 65.2804 356.374 65.2383 356.44C65.1962 356.505 65.1382 356.559 65.0698 356.596L64.0943 357.132L64.0514 355.015Z" fill="#F4A28C"/>
<path opacity="0.31" d="M61.8428 359.185C61.3323 359.119 60.844 358.936 60.417 358.649C60.417 358.649 59.822 361.945 62.3788 362.133L61.8428 359.185Z" fill="#CE8172"/>
<path d="M60.9421 356.258C60.9421 356.258 60.583 355.213 59.8218 355.551C59.0607 355.888 59.5645 357.394 60.6848 357.191L60.9421 356.258Z" fill="#F4A28C"/>
<path d="M62.8505 353.374C62.0648 353.857 61.2044 354.207 60.3044 354.409C60.3044 354.409 60.969 357.576 58.9321 359.27C58.9321 359.27 54.9173 355.781 56.9381 352.967C58.632 350.603 59.8059 348.646 62.3734 349.579C62.7464 349.713 63.075 349.947 63.3229 350.256C63.5707 350.565 63.7281 350.937 63.7775 351.33C63.8269 351.723 63.7664 352.122 63.6028 352.483C63.4392 352.844 63.1788 353.152 62.8505 353.374Z" fill="#24285B"/>
<path d="M54.8851 355.18C56.46 355.18 57.7367 353.903 57.7367 352.328C57.7367 350.753 56.46 349.476 54.8851 349.476C53.3102 349.476 52.0334 350.753 52.0334 352.328C52.0334 353.903 53.3102 355.18 54.8851 355.18Z" fill="#24285B"/>
<path d="M60.9583 355.938C60.9583 355.938 60.3526 354.812 59.4896 355.402C58.6266 355.992 59.2002 357.342 60.6045 357.401L60.9583 355.938Z" fill="#F4A28C"/>
<path d="M54.7245 363.942L57.0562 364.038C59.7715 364.143 62.4183 364.92 64.7588 366.3C69.6152 369.163 76.9855 374.737 75.9671 381.754C74.4608 392.11 66.5545 401.523 66.5545 401.523L47.1612 400.783C47.1612 400.783 30.8447 363.079 54.7245 363.942Z" fill="#FEEADA"/>
<path opacity="0.08" d="M52.511 367.799C52.511 367.799 62.9527 375.304 56.6813 388.495C50.4098 401.687 58.2893 401.199 58.2893 401.199L47.1615 400.781L45.3497 395.957L52.511 367.799Z" fill="black"/>
<path d="M54.1456 371.413C53.6525 366.154 47.0594 363.951 43.4788 367.832C41.3347 370.185 39.5658 373.686 39.5015 378.853C39.3353 392.296 32.5332 399.945 23.9568 388.984C23.543 388.446 23.0229 388 22.429 387.673C21.8351 387.345 21.1801 387.144 20.5048 387.081C18.7574 386.931 16.6401 387.081 16.4364 388.555C16.0451 391.449 18.275 391.578 19.808 391.342C20.2057 391.276 20.614 391.335 20.9768 391.511C21.3396 391.687 21.6391 391.97 21.8342 392.323C23.5119 395.373 28.3308 402.588 35.8994 401.473C44.0898 400.272 55.6518 387.435 54.1456 371.413Z" fill="#F4A28C"/>
<path d="M48.1959 407.514L42.8357 424.538C42.1183 426.831 40.936 428.951 39.3626 430.766C37.7892 432.581 35.8585 434.052 33.6911 435.087L25.8652 438.84L26.1814 441.15L37.8774 438.625C40.6219 437.811 43.1669 436.435 45.3504 434.584C47.5338 432.733 49.3079 430.447 50.5597 427.873L58.8199 410.859L48.1959 407.514Z" fill="#F4A28C"/>
<path d="M65.8365 412.31L68.3397 448.776L66.0133 449.585L56.7562 415.473L65.8365 412.31Z" fill="#F4A28C"/>
<path d="M46.4699 399.174L67.3748 400.289L70.7089 429.282L36.8805 427.883L46.4699 399.174Z" fill="#FEEADA"/>
<path opacity="0.08" d="M54.7247 400.289C54.7247 400.289 51.3424 404.282 48.9732 413.153C46.6039 422.024 46.5718 428.162 46.5718 428.162L36.8805 427.851L46.4699 399.174L54.7247 400.289Z" fill="black"/>
<path d="M67.3749 400.288L71.7864 420.512L56.3436 421.439C58.3483 411.255 46.47 399.173 46.47 399.173C46.47 399.173 56.8957 388.715 60.4656 381.613C61.2911 379.973 61.752 378.515 61.6341 377.405C61.0016 371.466 52.704 363.967 52.704 363.967C52.704 363.967 53.9529 363.737 55.5985 363.554C58.359 367.151 67.7448 375.347 68.3558 372.179C68.7043 370.367 67.8198 369.992 65.1397 366.492C65.9116 366.921 67.3535 367.794 67.3535 367.794C68.3612 368.459 69.3421 370.726 70.4463 371.6C71.3254 372.291 77.1145 376.456 77.6022 379.715C78.7654 387.461 67.3749 400.288 67.3749 400.288Z" fill="#24285B"/>
<path d="M17.9534 367.215L16.8814 362.455C16.8573 362.348 16.8124 362.247 16.7493 362.158C16.6861 362.068 16.6059 361.992 16.5132 361.934C16.4206 361.876 16.3173 361.836 16.2094 361.818C16.1015 361.8 15.991 361.803 15.8844 361.828L9.82733 363.205C9.72068 363.229 9.61986 363.274 9.53071 363.337C9.44157 363.401 9.36588 363.481 9.30804 363.574C9.25019 363.667 9.21134 363.77 9.19375 363.878C9.17615 363.986 9.18016 364.096 9.20554 364.202L10.2776 368.978C10.4858 369.908 11.0444 370.722 11.8374 371.251L14.6247 373.127L19.3793 393.919C19.4151 394.077 19.5119 394.214 19.6485 394.3C19.7852 394.387 19.9505 394.416 20.1082 394.38C20.2659 394.345 20.4029 394.248 20.4893 394.111C20.5757 393.974 20.6044 393.809 20.5692 393.651L15.8201 372.8L17.5139 369.97C18.0091 369.142 18.1665 368.155 17.9534 367.215ZM14.7373 363.682C14.7188 363.603 14.7327 363.519 14.7759 363.45C14.8192 363.38 14.8882 363.331 14.9678 363.312C15.0474 363.294 15.1311 363.308 15.2004 363.351C15.2698 363.394 15.3192 363.463 15.3376 363.543L16.4097 368.292C16.4273 368.371 16.4129 368.454 16.3697 368.522C16.3265 368.59 16.258 368.639 16.1792 368.657C16.1405 368.666 16.1002 368.668 16.0608 368.662C16.0214 368.656 15.9836 368.642 15.9497 368.621C15.9158 368.6 15.8864 368.572 15.8632 368.54C15.84 368.507 15.8235 368.47 15.8147 368.432L14.7373 363.682ZM12.8827 364.106C12.8678 364.027 12.8834 363.946 12.9261 363.878C12.9689 363.811 13.0357 363.762 13.1131 363.741C13.192 363.723 13.2747 363.737 13.3437 363.779C13.4128 363.821 13.4627 363.888 13.483 363.966L14.555 368.716C14.5727 368.794 14.5583 368.877 14.5151 368.945C14.4719 369.014 14.4034 369.062 14.3246 369.08C14.2458 369.096 14.1638 369.081 14.0958 369.038C14.0279 368.995 13.9792 368.928 13.9601 368.85L12.8827 364.106ZM11.028 364.524C11.012 364.446 11.0271 364.365 11.0702 364.297C11.1132 364.23 11.1808 364.183 11.2585 364.165C11.2972 364.155 11.3375 364.154 11.3769 364.16C11.4163 364.166 11.4541 364.18 11.488 364.201C11.5219 364.222 11.5513 364.249 11.5745 364.282C11.5977 364.314 11.6142 364.351 11.623 364.39L12.695 369.139C12.7127 369.218 12.6983 369.301 12.6551 369.369C12.6119 369.437 12.5434 369.486 12.4646 369.504C12.3858 369.52 12.3038 369.505 12.2358 369.462C12.1679 369.419 12.1192 369.351 12.1001 369.273L11.028 364.524Z" fill="#FEEADA"/>
<path d="M101.273 380.953L101.294 381.649L89.9143 379.629L89.657 381.092L101.337 383.166L101.455 387.487L116.378 390.135L118.795 384.062L101.273 380.953Z" fill="#24285B"/>
<path d="M104.891 374.026C104.745 373.963 104.583 373.949 104.428 373.988C104.274 374.027 104.137 374.116 104.039 374.241C103.931 374.463 103.908 374.716 103.974 374.954C104.119 375.758 104.773 376.776 105.55 375.758C106.054 375.098 105.583 374.294 104.891 374.026Z" fill="#E6E6E6"/>
<path d="M107.699 372.285C107.628 372.108 107.504 371.958 107.343 371.855C107.183 371.752 106.995 371.702 106.804 371.712C106.659 371.712 106.493 371.797 106.477 371.947C106.475 372.006 106.486 372.065 106.509 372.119C106.581 372.361 106.705 372.585 106.874 372.773C106.96 372.866 107.074 372.929 107.199 372.951C107.324 372.974 107.453 372.954 107.565 372.896C107.618 372.857 107.662 372.807 107.693 372.749C107.724 372.692 107.743 372.628 107.746 372.562C107.75 372.496 107.739 372.431 107.714 372.37C107.689 372.309 107.651 372.254 107.603 372.21" fill="#E6E6E6"/>
<path d="M131.253 402.864H94.8461V407.506H131.253V402.864Z" fill="#C9C9C9"/>
<path d="M128.401 407.514H97.692V454.282H128.401V407.514Z" fill="#E6E6E6"/>
<path d="M130.69 400.523H95.4034V402.866H130.69V400.523Z" fill="#24285B"/>
<path d="M115.161 398.289H113.805V400.53H115.161V398.289Z" fill="#24285B"/>
<path d="M106.869 401.364H108.225L106.869 399.124H105.518L106.869 401.364Z" fill="#24285B"/>
<path d="M122.097 401.364H120.747L122.097 399.124H123.454L122.097 401.364Z" fill="#24285B"/>
<path opacity="0.46" d="M128.395 412.846H113.805V450.808H128.395V412.846Z" fill="white"/>
<path d="M14.49 329V317.432H21.786L21.778 318.736H15.978V322.512H21.202V323.808H15.97V327.664L21.938 327.68V329H14.49ZM31.2477 329H29.6397L27.2317 325.76L24.8397 329H23.2157L26.4077 324.704L23.4717 320.728H25.0877L27.2317 323.632L29.3837 320.728H30.9997L28.0557 324.704L31.2477 329ZM32.9673 331.576V320.728H34.4393L34.4553 322.168C34.5513 321.997 34.674 321.819 34.8233 321.632C34.978 321.445 35.1646 321.272 35.3833 321.112C35.6073 320.952 35.866 320.821 36.1593 320.72C36.458 320.619 36.7966 320.568 37.1753 320.568C37.8366 320.568 38.418 320.72 38.9193 321.024C39.426 321.323 39.8206 321.781 40.1033 322.4C40.386 323.019 40.5273 323.803 40.5273 324.752C40.5273 325.701 40.3886 326.504 40.1113 327.16C39.8393 327.811 39.4446 328.307 38.9273 328.648C38.41 328.989 37.786 329.16 37.0553 329.16C36.6873 329.16 36.3593 329.107 36.0713 329C35.7886 328.899 35.5406 328.765 35.3273 328.6C35.1193 328.429 34.9433 328.248 34.7993 328.056C34.6606 327.864 34.546 327.68 34.4553 327.504V331.576H32.9673ZM36.7753 328.008C37.458 328.008 38.0153 327.749 38.4473 327.232C38.8793 326.709 39.0953 325.899 39.0953 324.8C39.0953 323.856 38.898 323.107 38.5033 322.552C38.1086 321.997 37.5326 321.72 36.7753 321.72C36.0073 321.72 35.426 322.005 35.0313 322.576C34.6366 323.141 34.4393 323.883 34.4393 324.8C34.4393 325.392 34.5273 325.931 34.7033 326.416C34.8793 326.901 35.1406 327.288 35.4873 327.576C35.834 327.864 36.2633 328.008 36.7753 328.008ZM43.5233 325.208C43.5233 325.731 43.6086 326.205 43.7793 326.632C43.9553 327.053 44.2193 327.389 44.5713 327.64C44.9286 327.891 45.374 328.016 45.9073 328.016C46.4353 328.016 46.8886 327.893 47.2673 327.648C47.6513 327.403 47.8966 327.048 48.0033 326.584H49.4033C49.302 327.144 49.078 327.616 48.7313 328C48.3846 328.384 47.966 328.675 47.4753 328.872C46.9846 329.064 46.4726 329.16 45.9393 329.16C45.166 329.16 44.486 328.992 43.8993 328.656C43.3126 328.32 42.854 327.837 42.5233 327.208C42.1926 326.579 42.0273 325.824 42.0273 324.944C42.0273 324.075 42.1766 323.312 42.4753 322.656C42.774 322 43.206 321.488 43.7713 321.12C44.342 320.752 45.0273 320.568 45.8273 320.568C46.606 320.568 47.2646 320.736 47.8033 321.072C48.342 321.408 48.75 321.883 49.0273 322.496C49.31 323.104 49.4513 323.827 49.4513 324.664V325.208H43.5233ZM43.5313 324.208H48.0273C48.0273 323.733 47.9473 323.307 47.7873 322.928C47.6273 322.544 47.382 322.243 47.0513 322.024C46.726 321.8 46.3153 321.688 45.8193 321.688C45.302 321.688 44.8726 321.813 44.5313 322.064C44.1953 322.309 43.942 322.627 43.7713 323.016C43.606 323.4 43.526 323.797 43.5313 324.208ZM51.4829 329V320.728H52.8909V322.32C53.0296 321.925 53.2242 321.6 53.4749 321.344C53.7256 321.083 54.0109 320.888 54.3309 320.76C54.6562 320.632 54.9922 320.568 55.3389 320.568C55.4616 320.568 55.5816 320.576 55.6989 320.592C55.8162 320.608 55.9069 320.635 55.9709 320.672V322.104C55.8909 322.067 55.7869 322.043 55.6589 322.032C55.5362 322.016 55.4322 322.008 55.3469 322.008C55.0162 321.987 54.7069 322.008 54.4189 322.072C54.1309 322.131 53.8776 322.235 53.6589 322.384C53.4402 322.533 53.2669 322.731 53.1389 322.976C53.0162 323.216 52.9549 323.509 52.9549 323.856V329H51.4829ZM59.286 320.728V329H57.854V320.728H59.286ZM59.318 317.44V318.976H57.806V317.44H59.318ZM62.9452 325.208C62.9452 325.731 63.0305 326.205 63.2012 326.632C63.3772 327.053 63.6412 327.389 63.9932 327.64C64.3505 327.891 64.7958 328.016 65.3292 328.016C65.8572 328.016 66.3105 327.893 66.6892 327.648C67.0732 327.403 67.3185 327.048 67.4252 326.584H68.8252C68.7238 327.144 68.4998 327.616 68.1532 328C67.8065 328.384 67.3878 328.675 66.8972 328.872C66.4065 329.064 65.8945 329.16 65.3612 329.16C64.5878 329.16 63.9078 328.992 63.3212 328.656C62.7345 328.32 62.2758 327.837 61.9452 327.208C61.6145 326.579 61.4492 325.824 61.4492 324.944C61.4492 324.075 61.5985 323.312 61.8972 322.656C62.1958 322 62.6278 321.488 63.1932 321.12C63.7638 320.752 64.4492 320.568 65.2492 320.568C66.0278 320.568 66.6865 320.736 67.2252 321.072C67.7638 321.408 68.1718 321.883 68.4492 322.496C68.7318 323.104 68.8732 323.827 68.8732 324.664V325.208H62.9452ZM62.9532 324.208H67.4492C67.4492 323.733 67.3692 323.307 67.2092 322.928C67.0492 322.544 66.8038 322.243 66.4732 322.024C66.1478 321.8 65.7372 321.688 65.2412 321.688C64.7238 321.688 64.2945 321.813 63.9532 322.064C63.6172 322.309 63.3638 322.627 63.1932 323.016C63.0278 323.4 62.9478 323.797 62.9532 324.208ZM70.9048 329V320.728H72.3368V321.928C72.4701 321.699 72.6541 321.483 72.8888 321.28C73.1288 321.077 73.4168 320.915 73.7528 320.792C74.0941 320.669 74.4861 320.608 74.9288 320.608C75.4515 320.608 75.9315 320.712 76.3688 320.92C76.8115 321.128 77.1635 321.453 77.4248 321.896C77.6915 322.333 77.8248 322.899 77.8248 323.592V329H76.3448V323.736C76.3448 323.091 76.1741 322.613 75.8328 322.304C75.4968 321.989 75.0595 321.832 74.5208 321.832C74.1475 321.832 73.7981 321.893 73.4728 322.016C73.1475 322.133 72.8835 322.315 72.6808 322.56C72.4781 322.8 72.3768 323.104 72.3768 323.472V329H70.9048ZM83.4352 320.568C84.0272 320.568 84.5605 320.683 85.0352 320.912C85.5098 321.136 85.8965 321.456 86.1952 321.872C86.4992 322.288 86.6885 322.779 86.7632 323.344H85.4512C85.4032 323.056 85.2912 322.792 85.1152 322.552C84.9445 322.312 84.7178 322.12 84.4352 321.976C84.1525 321.832 83.8218 321.76 83.4432 321.76C82.7338 321.76 82.1578 322.016 81.7152 322.528C81.2725 323.04 81.0512 323.824 81.0512 324.88C81.0512 325.835 81.2538 326.6 81.6592 327.176C82.0698 327.747 82.6725 328.032 83.4672 328.032C83.8458 328.032 84.1738 327.96 84.4512 327.816C84.7338 327.667 84.9605 327.472 85.1312 327.232C85.3018 326.987 85.4112 326.725 85.4592 326.448H86.7472C86.6778 327.003 86.4912 327.483 86.1872 327.888C85.8832 328.293 85.4938 328.608 85.0192 328.832C84.5498 329.051 84.0218 329.16 83.4352 329.16C82.6938 329.16 82.0352 328.997 81.4592 328.672C80.8885 328.347 80.4405 327.867 80.1152 327.232C79.7898 326.597 79.6272 325.819 79.6272 324.896C79.6272 324.032 79.7738 323.277 80.0672 322.632C80.3658 321.981 80.7978 321.475 81.3632 321.112C81.9338 320.749 82.6245 320.568 83.4352 320.568ZM89.8202 325.208C89.8202 325.731 89.9055 326.205 90.0762 326.632C90.2522 327.053 90.5162 327.389 90.8682 327.64C91.2255 327.891 91.6708 328.016 92.2042 328.016C92.7322 328.016 93.1855 327.893 93.5642 327.648C93.9482 327.403 94.1935 327.048 94.3002 326.584H95.7002C95.5988 327.144 95.3748 327.616 95.0282 328C94.6815 328.384 94.2628 328.675 93.7722 328.872C93.2815 329.064 92.7695 329.16 92.2362 329.16C91.4628 329.16 90.7828 328.992 90.1962 328.656C89.6095 328.32 89.1508 327.837 88.8202 327.208C88.4895 326.579 88.3242 325.824 88.3242 324.944C88.3242 324.075 88.4735 323.312 88.7722 322.656C89.0708 322 89.5028 321.488 90.0682 321.12C90.6388 320.752 91.3242 320.568 92.1242 320.568C92.9028 320.568 93.5615 320.736 94.1002 321.072C94.6388 321.408 95.0468 321.883 95.3242 322.496C95.6068 323.104 95.7482 323.827 95.7482 324.664V325.208H89.8202ZM89.8282 324.208H94.3242C94.3242 323.733 94.2442 323.307 94.0842 322.928C93.9242 322.544 93.6788 322.243 93.3482 322.024C93.0228 321.8 92.6122 321.688 92.1162 321.688C91.5988 321.688 91.1695 321.813 90.8282 322.064C90.4922 322.309 90.2388 322.627 90.0682 323.016C89.9028 323.4 89.8228 323.797 89.8282 324.208ZM100.764 329.16C99.6918 329.16 98.8411 328.792 98.2118 328.056C97.5825 327.32 97.2678 326.245 97.2678 324.832C97.2678 323.973 97.3931 323.224 97.6438 322.584C97.8998 321.944 98.2785 321.448 98.7798 321.096C99.2811 320.744 99.9051 320.568 100.652 320.568C101.046 320.568 101.396 320.619 101.7 320.72C102.009 320.821 102.276 320.949 102.5 321.104C102.724 321.259 102.905 321.419 103.044 321.584C103.188 321.749 103.294 321.901 103.364 322.04V317.112H104.852V329H103.724L103.564 327.304C103.51 327.464 103.425 327.651 103.308 327.864C103.19 328.072 103.025 328.277 102.812 328.48C102.598 328.677 102.324 328.84 101.988 328.968C101.657 329.096 101.249 329.16 100.764 329.16ZM101.028 328.024C101.865 328.024 102.462 327.771 102.82 327.264C103.182 326.752 103.364 325.917 103.364 324.76C103.358 324.115 103.276 323.565 103.116 323.112C102.961 322.659 102.716 322.315 102.38 322.08C102.049 321.84 101.609 321.72 101.06 321.72C100.377 321.72 99.8225 321.963 99.3958 322.448C98.9691 322.933 98.7558 323.704 98.7558 324.76C98.7558 325.795 98.9478 326.597 99.3318 327.168C99.7211 327.739 100.286 328.024 101.028 328.024ZM18.498 337.808H16.634V342.952C16.634 343.245 16.6634 343.461 16.722 343.6C16.786 343.733 16.89 343.819 17.034 343.856C17.1834 343.893 17.386 343.912 17.642 343.912H18.546V344.904C18.4447 344.941 18.29 344.973 18.082 345C17.8794 345.027 17.626 345.04 17.322 345.04C16.7514 345.04 16.3087 344.963 15.994 344.808C15.6794 344.653 15.458 344.424 15.33 344.12C15.2074 343.816 15.146 343.443 15.146 343V337.808H13.802V336.728H15.186L15.546 334.32H16.634V336.72H18.498V337.808ZM21.4608 341.208C21.4608 341.731 21.5461 342.205 21.7168 342.632C21.8928 343.053 22.1568 343.389 22.5088 343.64C22.8661 343.891 23.3115 344.016 23.8448 344.016C24.3728 344.016 24.8261 343.893 25.2048 343.648C25.5888 343.403 25.8341 343.048 25.9408 342.584H27.3408C27.2395 343.144 27.0155 343.616 26.6688 344C26.3221 344.384 25.9035 344.675 25.4128 344.872C24.9221 345.064 24.4101 345.16 23.8768 345.16C23.1035 345.16 22.4235 344.992 21.8368 344.656C21.2501 344.32 20.7915 343.837 20.4608 343.208C20.1301 342.579 19.9648 341.824 19.9648 340.944C19.9648 340.075 20.1141 339.312 20.4128 338.656C20.7115 338 21.1435 337.488 21.7088 337.12C22.2795 336.752 22.9648 336.568 23.7648 336.568C24.5435 336.568 25.2021 336.736 25.7408 337.072C26.2795 337.408 26.6875 337.883 26.9648 338.496C27.2475 339.104 27.3888 339.827 27.3888 340.664V341.208H21.4608ZM21.4688 340.208H25.9648C25.9648 339.733 25.8848 339.307 25.7248 338.928C25.5648 338.544 25.3195 338.243 24.9888 338.024C24.6635 337.8 24.2528 337.688 23.7568 337.688C23.2395 337.688 22.8101 337.813 22.4688 338.064C22.1328 338.309 21.8795 338.627 21.7088 339.016C21.5435 339.4 21.4635 339.797 21.4688 340.208ZM31.6147 345.16C31.0813 345.16 30.6093 345.067 30.1987 344.88C29.788 344.688 29.4653 344.413 29.2307 344.056C29.0013 343.699 28.8867 343.267 28.8867 342.76C28.8867 341.843 29.2067 341.16 29.8467 340.712C30.4867 340.264 31.5133 340.024 32.9267 339.992L34.4067 339.952V339.304C34.4067 338.797 34.2547 338.397 33.9507 338.104C33.6467 337.805 33.1747 337.656 32.5347 337.656C32.06 337.661 31.6413 337.773 31.2787 337.992C30.9213 338.211 30.6893 338.568 30.5827 339.064H29.2787C29.3107 338.525 29.4627 338.072 29.7347 337.704C30.0067 337.331 30.3853 337.048 30.8707 336.856C31.3613 336.664 31.94 336.568 32.6067 336.568C33.3267 336.568 33.924 336.669 34.3987 336.872C34.8787 337.075 35.236 337.373 35.4707 337.768C35.7107 338.163 35.8307 338.648 35.8307 339.224V345H34.5667L34.4627 343.448C34.1427 344.093 33.7347 344.541 33.2387 344.792C32.748 345.037 32.2067 345.16 31.6147 345.16ZM32.0627 344.096C32.34 344.096 32.6147 344.045 32.8867 343.944C33.164 343.843 33.4173 343.707 33.6467 343.536C33.876 343.36 34.0573 343.165 34.1907 342.952C34.3293 342.733 34.4013 342.509 34.4067 342.28V340.864L33.1747 340.888C32.5453 340.899 32.0173 340.963 31.5907 341.08C31.1693 341.197 30.852 341.381 30.6387 341.632C30.4307 341.883 30.3267 342.211 30.3267 342.616C30.3267 343.08 30.4867 343.443 30.8067 343.704C31.132 343.965 31.5507 344.096 32.0627 344.096ZM38.3579 345V336.728H39.7819V337.928C40.0112 337.565 40.3259 337.248 40.7259 336.976C41.1259 336.704 41.6459 336.568 42.2859 336.568C42.5846 336.568 42.8886 336.619 43.1979 336.72C43.5126 336.821 43.8006 336.973 44.0619 337.176C44.3232 337.379 44.5259 337.627 44.6699 337.92C44.9259 337.515 45.2726 337.189 45.7099 336.944C46.1472 336.693 46.6406 336.568 47.1899 336.568C47.4779 336.568 47.7792 336.613 48.0939 336.704C48.4086 336.789 48.6992 336.944 48.9659 337.168C49.2379 337.387 49.4592 337.693 49.6299 338.088C49.8006 338.477 49.8859 338.979 49.8859 339.592V345H48.3979V339.736C48.3979 339.235 48.3179 338.848 48.1579 338.576C47.9979 338.299 47.7872 338.104 47.5259 337.992C47.2699 337.88 46.9952 337.824 46.7019 337.824C46.4459 337.824 46.1739 337.875 45.8859 337.976C45.5979 338.077 45.3526 338.248 45.1499 338.488C44.9472 338.728 44.8459 339.056 44.8459 339.472V345H43.3739V339.304C43.3739 338.979 43.2859 338.707 43.1099 338.488C42.9392 338.269 42.7232 338.104 42.4619 337.992C42.2059 337.88 41.9499 337.824 41.6939 337.824C41.4112 337.824 41.1259 337.88 40.8379 337.992C40.5552 338.104 40.3152 338.283 40.1179 338.528C39.9259 338.768 39.8299 339.083 39.8299 339.472V345H38.3579Z" fill="black"/>
</g>
<g clip-path="url(#clip6_3_1633)">
<rect x="145.097" y="298.501" width="239.484" height="126.519" fill="white"/>
<path opacity="0.45" d="M346.868 440.105C393.079 440.105 430.54 434.555 430.54 427.709C430.54 420.863 393.079 415.313 346.868 415.313C300.657 415.313 263.195 420.863 263.195 427.709C263.195 434.555 300.657 440.105 346.868 440.105Z" fill="#E6E6E6"/>
<path d="M281.191 343.306L267.743 343.414L268.427 428.157L281.875 428.05L281.191 343.306Z" fill="#FF0000"/>
<path d="M267.747 343.412L274.311 323.791L281.196 343.303L267.747 343.412Z" fill="#F4A28C"/>
<path d="M271.327 332.708L277.441 332.662L274.311 323.791L271.327 332.708Z" fill="#24285B"/>
<path opacity="0.08" d="M274.736 343.358L267.779 343.414L268.463 428.157L275.42 428.102L274.736 343.358Z" fill="black"/>
<path opacity="0.08" d="M268.125 386.601V395.081C268.125 395.081 275.434 395.894 281.574 391.932V384.311L276.292 383.281L268.125 386.601Z" fill="black"/>
<path d="M400.146 328.956H317.037V425.697H400.146V328.956Z" fill="#C9C9C9"/>
<path opacity="0.08" d="M395.076 341.996H330.377V419.446H395.076V341.996Z" fill="black"/>
<path d="M390.938 337.535H326.239V414.984H390.938V337.535Z" fill="white"/>
<path opacity="0.08" d="M319.536 350.227C319.536 350.227 332.059 351.426 335.162 367.635L345.218 354.256C345.218 354.256 351.068 353.551 348.482 358.887C346.785 362.397 346.371 372.503 341.913 379.342C333.071 392.885 327.148 408.104 324.517 424.039L324.3 425.377L318.222 425.649L319.903 376.213L319.536 350.227Z" fill="black"/>
<path d="M342.895 319.354H337.433V341.995H342.895V319.354Z" fill="#F2F2F2"/>
<path d="M379.843 319.354H374.381V341.995H379.843V319.354Z" fill="#F2F2F2"/>
<path d="M383.247 349.367H369.452V363.091H383.247V349.367Z" fill="#FF0000"/>
<path d="M383.247 369.395H369.452V383.119H383.247V369.395Z" fill="#FF0000"/>
<path d="M383.247 389.431H369.452V403.154H383.247V389.431Z" fill="#FF0000"/>
<path d="M294.764 356.378C291.086 364.292 280.095 379.73 269.475 381.51V387.057C269.475 387.057 288.5 386.075 305.244 369.438C312.211 362.502 312.092 357.711 309.584 354.479C305.606 349.37 297.485 350.517 294.764 356.378Z" fill="#FEEADA"/>
<path opacity="0.08" d="M294.764 356.378C291.086 364.292 280.095 379.73 269.475 381.51V387.057C269.475 387.057 288.5 386.075 305.244 369.438C312.211 362.502 312.092 357.711 309.584 354.479C305.606 349.37 297.485 350.517 294.764 356.378Z" fill="black"/>
<path d="M362.727 353.318H337.898V359.148H362.727V353.318Z" fill="#A5A5A5"/>
<path opacity="0.44" d="M362.727 373.342H337.898V379.172H362.727V373.342Z" fill="#A5A5A5"/>
<path opacity="0.13" d="M362.727 393.37H337.898V399.2H362.727V393.37Z" fill="#A5A5A5"/>
<path d="M372.555 356.23L375.312 359.75L379.967 353.318" stroke="white" stroke-width="1.44167" stroke-miterlimit="10"/>
<path d="M372.555 375.96L375.312 379.48L379.967 373.047" stroke="white" stroke-width="1.44167" stroke-miterlimit="10"/>
<path d="M372.555 395.686L375.312 399.206L379.967 392.773" stroke="white" stroke-width="1.44167" stroke-miterlimit="10"/>
<path d="M303.573 343.454L305.554 349.362L300.852 352.336L299.161 342.096L303.573 343.454Z" fill="#F4A28C"/>
<path d="M300.614 336.032C301.054 335.602 301.595 335.288 302.188 335.119C302.78 334.95 303.406 334.931 304.008 335.064C304.61 335.197 305.169 335.478 305.634 335.88C306.099 336.283 306.456 336.795 306.671 337.37C307.706 340.087 308.684 344.116 305.461 344.805C300.526 345.835 298.959 339.546 298.959 339.546C299.151 338.238 299.727 337.016 300.614 336.032Z" fill="#F4A28C"/>
<path d="M300.598 340.006C300.598 340.006 299.528 339.115 299.047 340.381C298.566 341.647 300.448 342.254 301.012 341.616C301.576 340.978 300.598 340.006 300.598 340.006Z" fill="#F4A28C"/>
<path d="M295.364 355.231C296.075 353.666 297.115 352.271 298.416 351.142C299.716 350.012 301.246 349.174 302.901 348.685C309.289 346.776 321.046 348.865 324.626 354.809C329.535 362.944 322.35 388.771 322.35 388.771L300.914 390.449C300.914 390.449 289.085 369.264 295.364 355.231Z" fill="#FEEADA"/>
<path d="M322.355 388.791L319.531 425.496H315.067L311.084 396.978L301.214 390.448L322.355 388.791Z" fill="#24285B"/>
<path d="M301.214 390.447L295.059 425.495H299.844L310.179 396.38L301.214 390.447Z" fill="#24285B"/>
<path opacity="0.08" d="M304.757 348.128C304.757 348.128 294.707 380.294 323.705 382.424L322.355 388.79L300.914 390.447C300.914 390.447 292.534 375.915 293.672 362.042C293.672 362.042 293.853 353.834 299.657 350.206C301.189 349.16 302.928 348.452 304.757 348.128Z" fill="black"/>
<path d="M313.51 348.515C312.44 350.223 311.872 352.196 311.872 354.209C311.872 356.222 312.44 358.194 313.51 359.902C315.848 363.834 322.639 371.496 327.295 376.544C327.82 377.121 328.477 377.564 329.209 377.837C329.942 378.11 330.729 378.205 331.506 378.113C332.283 378.022 333.027 377.748 333.675 377.313C334.324 376.878 334.858 376.295 335.235 375.613L345.239 358.076L341.845 355.909L332.679 369.288C332.679 369.288 326.405 348.772 313.51 348.515Z" fill="#FEEADA"/>
<path opacity="0.2" d="M313.51 348.515C312.44 350.223 311.872 352.196 311.872 354.209C311.872 356.222 312.44 358.194 313.51 359.902C315.848 363.834 322.639 371.496 327.295 376.544C327.82 377.121 328.477 377.564 329.209 377.837C329.942 378.11 330.729 378.205 331.506 378.113C332.283 378.022 333.027 377.748 333.675 377.313C334.324 376.878 334.858 376.295 335.235 375.613L345.239 358.076L341.845 355.909L332.679 369.288C332.679 369.288 326.405 348.772 313.51 348.515Z" fill="white"/>
<path d="M344.054 357.331C344.054 357.331 349.744 355.273 347.416 352.062C345.088 348.851 341.845 355.921 341.845 355.921L344.054 357.331Z" fill="#F4A28C"/>
<path d="M299.533 343.782L297.811 339.563C297.633 339.124 297.547 338.654 297.56 338.181C297.572 337.709 297.682 337.244 297.883 336.815C298.581 335.302 299.916 332.971 301.954 331.669C305.151 329.58 308.28 329.57 307.928 332.343C307.577 335.117 308.921 332.199 309.997 334.185C311.073 336.172 310.427 336.815 308.849 337C307.271 337.185 304.194 337.129 303.087 339.151C301.98 341.173 303.325 343.659 299.533 343.782Z" fill="#24285B"/>
<path d="M269.475 381.508C269.475 381.508 266.511 380.252 265.389 382.995C264.267 385.738 269.475 387.055 269.475 387.055V381.508Z" fill="#F4A28C"/>
<path d="M281.809 413.414L268.2 413.522L268.323 428.733L281.932 428.624L281.809 413.414Z" fill="#24285B"/>
<path d="M159.27 358.046V346.478H161.318L164.806 356.03L168.342 346.478H170.382V358.046H168.854V348.694L165.502 358.046H164.118L160.79 348.782V358.046H159.27ZM174.085 354.254C174.085 354.777 174.17 355.251 174.341 355.678C174.517 356.099 174.781 356.435 175.133 356.686C175.49 356.937 175.936 357.062 176.469 357.062C176.997 357.062 177.45 356.939 177.829 356.694C178.213 356.449 178.458 356.094 178.565 355.63H179.965C179.864 356.19 179.64 356.662 179.293 357.046C178.946 357.43 178.528 357.721 178.037 357.918C177.546 358.11 177.034 358.206 176.501 358.206C175.728 358.206 175.048 358.038 174.461 357.702C173.874 357.366 173.416 356.883 173.085 356.254C172.754 355.625 172.589 354.87 172.589 353.99C172.589 353.121 172.738 352.358 173.037 351.702C173.336 351.046 173.768 350.534 174.333 350.166C174.904 349.798 175.589 349.614 176.389 349.614C177.168 349.614 177.826 349.782 178.365 350.118C178.904 350.454 179.312 350.929 179.589 351.542C179.872 352.15 180.013 352.873 180.013 353.71V354.254H174.085ZM174.093 353.254H178.589C178.589 352.779 178.509 352.353 178.349 351.974C178.189 351.59 177.944 351.289 177.613 351.07C177.288 350.846 176.877 350.734 176.381 350.734C175.864 350.734 175.434 350.859 175.093 351.11C174.757 351.355 174.504 351.673 174.333 352.062C174.168 352.446 174.088 352.843 174.093 353.254ZM182.045 358.046V349.774H183.477V350.974C183.61 350.745 183.794 350.529 184.029 350.326C184.269 350.123 184.557 349.961 184.893 349.838C185.234 349.715 185.626 349.654 186.069 349.654C186.591 349.654 187.071 349.758 187.509 349.966C187.951 350.174 188.303 350.499 188.565 350.942C188.831 351.379 188.965 351.945 188.965 352.638V358.046H187.485V352.782C187.485 352.137 187.314 351.659 186.973 351.35C186.637 351.035 186.199 350.878 185.661 350.878C185.287 350.878 184.938 350.939 184.613 351.062C184.287 351.179 184.023 351.361 183.821 351.606C183.618 351.846 183.517 352.15 183.517 352.518V358.046H182.045ZM194.194 358.206C193.762 358.201 193.354 358.139 192.97 358.022C192.591 357.899 192.255 357.721 191.962 357.486C191.669 357.251 191.437 356.961 191.266 356.614C191.101 356.262 191.018 355.854 191.018 355.39V349.774H192.498V355.238C192.498 355.777 192.663 356.214 192.994 356.55C193.33 356.886 193.834 357.054 194.506 357.054C195.114 357.054 195.602 356.897 195.97 356.582C196.343 356.262 196.53 355.787 196.53 355.158V349.774H198.002V358.046H196.826L196.674 356.462C196.573 356.878 196.399 357.214 196.154 357.47C195.914 357.726 195.623 357.915 195.282 358.038C194.946 358.155 194.583 358.211 194.194 358.206ZM159.27 362.478C159.308 362.478 159.42 362.481 159.606 362.486C159.798 362.486 160.03 362.486 160.302 362.486C160.574 362.481 160.857 362.481 161.15 362.486C161.444 362.486 161.713 362.489 161.958 362.494C163.377 362.515 164.526 362.747 165.406 363.19C166.292 363.627 166.94 364.265 167.35 365.102C167.766 365.939 167.974 366.969 167.974 368.19C167.974 369.47 167.75 370.545 167.302 371.414C166.86 372.283 166.182 372.939 165.27 373.382C164.364 373.825 163.209 374.046 161.806 374.046H159.27V362.478ZM160.79 363.75V372.774H161.806C162.761 372.774 163.582 372.627 164.27 372.334C164.958 372.035 165.486 371.553 165.854 370.886C166.228 370.219 166.414 369.329 166.414 368.214C166.414 367.099 166.233 366.217 165.87 365.566C165.513 364.915 164.996 364.451 164.318 364.174C163.641 363.891 162.825 363.75 161.87 363.75H160.79ZM171.116 370.254C171.116 370.777 171.202 371.251 171.372 371.678C171.548 372.099 171.812 372.435 172.164 372.686C172.522 372.937 172.967 373.062 173.5 373.062C174.028 373.062 174.482 372.939 174.86 372.694C175.244 372.449 175.49 372.094 175.596 371.63H176.996C176.895 372.19 176.671 372.662 176.324 373.046C175.978 373.43 175.559 373.721 175.068 373.918C174.578 374.11 174.066 374.206 173.532 374.206C172.759 374.206 172.079 374.038 171.492 373.702C170.906 373.366 170.447 372.883 170.116 372.254C169.786 371.625 169.62 370.87 169.62 369.99C169.62 369.121 169.77 368.358 170.068 367.702C170.367 367.046 170.799 366.534 171.364 366.166C171.935 365.798 172.62 365.614 173.42 365.614C174.199 365.614 174.858 365.782 175.396 366.118C175.935 366.454 176.343 366.929 176.62 367.542C176.903 368.15 177.044 368.873 177.044 369.71V370.254H171.116ZM171.124 369.254H175.62C175.62 368.779 175.54 368.353 175.38 367.974C175.22 367.59 174.975 367.289 174.644 367.07C174.319 366.846 173.908 366.734 173.412 366.734C172.895 366.734 172.466 366.859 172.124 367.11C171.788 367.355 171.535 367.673 171.364 368.062C171.199 368.446 171.119 368.843 171.124 369.254ZM185.305 365.774L182.321 374.046H180.977L177.985 365.774H179.377L181.577 372.19H181.713L183.921 365.774H185.305ZM187.647 370.254C187.647 370.777 187.733 371.251 187.903 371.678C188.079 372.099 188.343 372.435 188.695 372.686C189.053 372.937 189.498 373.062 190.031 373.062C190.559 373.062 191.013 372.939 191.391 372.694C191.775 372.449 192.021 372.094 192.127 371.63H193.527C193.426 372.19 193.202 372.662 192.855 373.046C192.509 373.43 192.09 373.721 191.599 373.918C191.109 374.11 190.597 374.206 190.063 374.206C189.29 374.206 188.61 374.038 188.023 373.702C187.437 373.366 186.978 372.883 186.647 372.254C186.317 371.625 186.151 370.87 186.151 369.99C186.151 369.121 186.301 368.358 186.599 367.702C186.898 367.046 187.33 366.534 187.895 366.166C188.466 365.798 189.151 365.614 189.951 365.614C190.73 365.614 191.389 365.782 191.927 366.118C192.466 366.454 192.874 366.929 193.151 367.542C193.434 368.15 193.575 368.873 193.575 369.71V370.254H187.647ZM187.655 369.254H192.151C192.151 368.779 192.071 368.353 191.911 367.974C191.751 367.59 191.506 367.289 191.175 367.07C190.85 366.846 190.439 366.734 189.943 366.734C189.426 366.734 188.997 366.859 188.655 367.11C188.319 367.355 188.066 367.673 187.895 368.062C187.73 368.446 187.65 368.843 187.655 369.254ZM197.695 374.15C197.247 374.15 196.884 374.089 196.607 373.966C196.335 373.843 196.124 373.678 195.975 373.47C195.831 373.262 195.732 373.025 195.679 372.758C195.631 372.486 195.607 372.206 195.607 371.918V362.158H197.063V371.774C197.063 372.19 197.143 372.502 197.303 372.71C197.468 372.918 197.698 373.033 197.991 373.054L198.439 373.062V374.022C198.316 374.059 198.188 374.089 198.055 374.11C197.922 374.137 197.802 374.15 197.695 374.15ZM203.536 374.206C202.773 374.206 202.106 374.043 201.536 373.718C200.965 373.387 200.522 372.905 200.208 372.27C199.893 371.635 199.736 370.859 199.736 369.942C199.736 369.078 199.882 368.321 200.176 367.67C200.469 367.019 200.898 366.515 201.464 366.158C202.034 365.795 202.725 365.614 203.536 365.614C204.298 365.614 204.96 365.782 205.52 366.118C206.085 366.449 206.522 366.937 206.832 367.582C207.141 368.227 207.296 369.014 207.296 369.942C207.296 370.785 207.152 371.526 206.864 372.166C206.581 372.806 206.16 373.307 205.6 373.67C205.045 374.027 204.357 374.206 203.536 374.206ZM203.536 373.038C204.032 373.038 204.45 372.913 204.792 372.662C205.133 372.411 205.392 372.051 205.568 371.582C205.744 371.113 205.832 370.555 205.832 369.91C205.832 369.318 205.754 368.787 205.6 368.318C205.445 367.843 205.197 367.467 204.856 367.19C204.52 366.913 204.08 366.774 203.536 366.774C203.034 366.774 202.61 366.899 202.264 367.15C201.917 367.395 201.653 367.753 201.472 368.222C201.296 368.691 201.208 369.254 201.208 369.91C201.208 370.491 201.288 371.019 201.448 371.494C201.608 371.969 201.858 372.345 202.2 372.622C202.541 372.899 202.986 373.038 203.536 373.038ZM209.232 376.622V365.774H210.704L210.72 367.214C210.816 367.043 210.939 366.865 211.088 366.678C211.243 366.491 211.429 366.318 211.648 366.158C211.872 365.998 212.131 365.867 212.424 365.766C212.723 365.665 213.061 365.614 213.44 365.614C214.101 365.614 214.683 365.766 215.184 366.07C215.691 366.369 216.085 366.827 216.368 367.446C216.651 368.065 216.792 368.849 216.792 369.798C216.792 370.747 216.653 371.55 216.376 372.206C216.104 372.857 215.709 373.353 215.192 373.694C214.675 374.035 214.051 374.206 213.32 374.206C212.952 374.206 212.624 374.153 212.336 374.046C212.053 373.945 211.805 373.811 211.592 373.646C211.384 373.475 211.208 373.294 211.064 373.102C210.925 372.91 210.811 372.726 210.72 372.55V376.622H209.232ZM213.04 373.054C213.723 373.054 214.28 372.795 214.712 372.278C215.144 371.755 215.36 370.945 215.36 369.846C215.36 368.902 215.163 368.153 214.768 367.598C214.373 367.043 213.797 366.766 213.04 366.766C212.272 366.766 211.691 367.051 211.296 367.622C210.901 368.187 210.704 368.929 210.704 369.846C210.704 370.438 210.792 370.977 210.968 371.462C211.144 371.947 211.405 372.334 211.752 372.622C212.099 372.91 212.528 373.054 213.04 373.054ZM218.732 374.046V365.774H220.156V366.974C220.385 366.611 220.7 366.294 221.1 366.022C221.5 365.75 222.02 365.614 222.66 365.614C222.959 365.614 223.263 365.665 223.572 365.766C223.887 365.867 224.175 366.019 224.436 366.222C224.697 366.425 224.9 366.673 225.044 366.966C225.3 366.561 225.647 366.235 226.084 365.99C226.521 365.739 227.015 365.614 227.564 365.614C227.852 365.614 228.153 365.659 228.468 365.75C228.783 365.835 229.073 365.99 229.34 366.214C229.612 366.433 229.833 366.739 230.004 367.134C230.175 367.523 230.26 368.025 230.26 368.638V374.046H228.772V368.782C228.772 368.281 228.692 367.894 228.532 367.622C228.372 367.345 228.161 367.15 227.9 367.038C227.644 366.926 227.369 366.87 227.076 366.87C226.82 366.87 226.548 366.921 226.26 367.022C225.972 367.123 225.727 367.294 225.524 367.534C225.321 367.774 225.22 368.102 225.22 368.518V374.046H223.748V368.35C223.748 368.025 223.66 367.753 223.484 367.534C223.313 367.315 223.097 367.15 222.836 367.038C222.58 366.926 222.324 366.87 222.068 366.87C221.785 366.87 221.5 366.926 221.212 367.038C220.929 367.15 220.689 367.329 220.492 367.574C220.3 367.814 220.204 368.129 220.204 368.518V374.046H218.732ZM233.632 370.254C233.632 370.777 233.717 371.251 233.888 371.678C234.064 372.099 234.328 372.435 234.68 372.686C235.037 372.937 235.482 373.062 236.016 373.062C236.544 373.062 236.997 372.939 237.376 372.694C237.76 372.449 238.005 372.094 238.112 371.63H239.512C239.41 372.19 239.186 372.662 238.84 373.046C238.493 373.43 238.074 373.721 237.584 373.918C237.093 374.11 236.581 374.206 236.048 374.206C235.274 374.206 234.594 374.038 234.008 373.702C233.421 373.366 232.962 372.883 232.632 372.254C232.301 371.625 232.136 370.87 232.136 369.99C232.136 369.121 232.285 368.358 232.584 367.702C232.882 367.046 233.314 366.534 233.88 366.166C234.45 365.798 235.136 365.614 235.936 365.614C236.714 365.614 237.373 365.782 237.912 366.118C238.45 366.454 238.858 366.929 239.136 367.542C239.418 368.15 239.56 368.873 239.56 369.71V370.254H233.632ZM233.64 369.254H238.136C238.136 368.779 238.056 368.353 237.896 367.974C237.736 367.59 237.49 367.289 237.16 367.07C236.834 366.846 236.424 366.734 235.928 366.734C235.41 366.734 234.981 366.859 234.64 367.11C234.304 367.355 234.05 367.673 233.88 368.062C233.714 368.446 233.634 368.843 233.64 369.254ZM241.591 374.046V365.774H243.023V366.974C243.157 366.745 243.341 366.529 243.575 366.326C243.815 366.123 244.103 365.961 244.439 365.838C244.781 365.715 245.173 365.654 245.615 365.654C246.138 365.654 246.618 365.758 247.055 365.966C247.498 366.174 247.85 366.499 248.111 366.942C248.378 367.379 248.511 367.945 248.511 368.638V374.046H247.031V368.782C247.031 368.137 246.861 367.659 246.519 367.35C246.183 367.035 245.746 366.878 245.207 366.878C244.834 366.878 244.485 366.939 244.159 367.062C243.834 367.179 243.57 367.361 243.367 367.606C243.165 367.846 243.063 368.15 243.063 368.518V374.046H241.591ZM254.638 366.854H252.774V371.998C252.774 372.291 252.803 372.507 252.862 372.646C252.926 372.779 253.03 372.865 253.174 372.902C253.323 372.939 253.526 372.958 253.782 372.958H254.686V373.95C254.584 373.987 254.43 374.019 254.222 374.046C254.019 374.073 253.766 374.086 253.462 374.086C252.891 374.086 252.448 374.009 252.134 373.854C251.819 373.699 251.598 373.47 251.47 373.166C251.347 372.862 251.286 372.489 251.286 372.046V366.854H249.942V365.774H251.326L251.686 363.366H252.774V365.766H254.638V366.854Z" fill="black"/>
</g>
</g>
<defs>
<clipPath id="clip0_3_1633">
<rect x="0.902954" width="381" height="165" rx="4" fill="white"/>
</clipPath>
<clipPath id="clip1_3_1633">
<rect x="0.902954" y="173" width="382.194" height="117.503" rx="4" fill="white"/>
</clipPath>
<clipPath id="clip2_3_1633">
<rect x="0.902954" y="173" width="187.097" height="117.503" rx="4" fill="white"/>
</clipPath>
<clipPath id="clip3_3_1633">
<rect width="187.097" height="117.503" fill="white" transform="translate(196 173)"/>
</clipPath>
<clipPath id="clip4_3_1633">
<rect x="0.902954" y="298.503" width="382.194" height="126.519" rx="4" fill="white"/>
</clipPath>
<clipPath id="clip5_3_1633">
<rect width="136.194" height="126.519" fill="white" transform="translate(0.902954 298.503)"/>
</clipPath>
<clipPath id="clip6_3_1633">
<rect x="145.097" y="298.503" width="238" height="126" rx="4.28818" fill="white"/>
</clipPath>
</defs>
</svg>
