<svg width="439" height="438" viewBox="0 0 439 438" fill="none" xmlns="http://www.w3.org/2000/svg">
<rect x="21.9993" y="72.6914" width="3.58423" height="138.809" rx="1.79211" fill="white" fill-opacity="0.8"/>
<rect x="21.999" y="255.214" width="3.58423" height="117.286" rx="1.79211" fill="white" fill-opacity="0.8"/>
<rect x="20.854" y="69.8213" width="3.58423" height="66.9912" rx="1.79211" fill="#FF0000"/>
<rect x="1.86743" y="5.59717" width="43.4238" height="72.8057" rx="21.7119" fill="#FEC7B9" stroke="#FF0000" stroke-width="2"/>
<path d="M22.6793 36.9L19.7993 39.06V35.1L23.0393 32.7H26.2793V49.5H22.6793V36.9Z" fill="#FF0000"/>
<path d="M65.5853 28.972H69.4373V55H65.5853V28.972ZM75.3427 55V36.388H79.1047V39.07C79.4047 38.566 79.8067 38.092 80.3107 37.648C80.8267 37.204 81.4567 36.844 82.2007 36.568C82.9567 36.292 83.8267 36.154 84.8107 36.154C85.9747 36.154 87.0487 36.388 88.0327 36.856C89.0287 37.312 89.8267 38.032 90.4267 39.016C91.0267 39.988 91.3267 41.248 91.3267 42.796V55H87.4747V43.21C87.4747 41.878 87.1147 40.888 86.3947 40.24C85.6867 39.592 84.7687 39.268 83.6407 39.268C82.8847 39.268 82.1647 39.394 81.4807 39.646C80.7967 39.898 80.2447 40.282 79.8247 40.798C79.4047 41.302 79.1947 41.938 79.1947 42.706V55H75.3427ZM105.358 39.16H101.182L101.2 50.266C101.2 50.878 101.26 51.328 101.38 51.616C101.512 51.892 101.728 52.072 102.028 52.156C102.34 52.228 102.76 52.264 103.288 52.264H105.466V54.766C105.226 54.862 104.866 54.946 104.386 55.018C103.918 55.09 103.312 55.126 102.568 55.126C101.188 55.126 100.114 54.94 99.3459 54.568C98.5899 54.196 98.0619 53.662 97.7619 52.966C97.4739 52.258 97.3299 51.406 97.3299 50.41V39.16H94.3059V36.388H97.4379L98.3919 30.916H101.182V36.37H105.358V39.16ZM112.325 46.594C112.325 47.71 112.505 48.712 112.865 49.6C113.237 50.476 113.795 51.172 114.539 51.688C115.283 52.192 116.207 52.444 117.311 52.444C118.415 52.444 119.369 52.192 120.173 51.688C120.989 51.184 121.523 50.434 121.775 49.438H125.339C125.123 50.71 124.613 51.79 123.809 52.678C123.017 53.566 122.057 54.238 120.929 54.694C119.801 55.138 118.619 55.36 117.383 55.36C115.619 55.36 114.065 54.982 112.721 54.226C111.377 53.458 110.327 52.366 109.571 50.95C108.827 49.534 108.455 47.848 108.455 45.892C108.455 43.96 108.797 42.256 109.481 40.78C110.165 39.292 111.155 38.128 112.451 37.288C113.747 36.448 115.307 36.028 117.131 36.028C118.931 36.028 120.443 36.412 121.667 37.18C122.903 37.948 123.839 39.028 124.475 40.42C125.111 41.8 125.429 43.432 125.429 45.316V46.594H112.325ZM112.325 44.092H121.757C121.757 43.12 121.589 42.238 121.253 41.446C120.917 40.642 120.401 40.012 119.705 39.556C119.021 39.088 118.157 38.854 117.113 38.854C116.045 38.854 115.157 39.112 114.449 39.628C113.741 40.144 113.207 40.804 112.847 41.608C112.499 42.412 112.325 43.24 112.325 44.092ZM129.729 55V36.388H133.419V40.204C133.731 39.292 134.163 38.53 134.715 37.918C135.279 37.294 135.933 36.826 136.677 36.514C137.421 36.19 138.207 36.028 139.035 36.028C139.287 36.028 139.527 36.046 139.755 36.082C139.983 36.106 140.163 36.154 140.295 36.226V39.934C140.139 39.862 139.935 39.814 139.683 39.79C139.443 39.766 139.233 39.748 139.053 39.736C138.237 39.676 137.493 39.718 136.821 39.862C136.149 40.006 135.567 40.246 135.075 40.582C134.595 40.918 134.223 41.356 133.959 41.896C133.707 42.436 133.581 43.072 133.581 43.804V55H129.729ZM159.646 36.388L152.878 55H149.62L142.834 36.388H146.398L151.114 50.122H151.366L156.082 36.388H159.646ZM167.055 36.388V55H163.347V36.388H167.055ZM167.127 28.99V32.788H163.257V28.99H167.127ZM175.501 46.594C175.501 47.71 175.681 48.712 176.041 49.6C176.413 50.476 176.971 51.172 177.715 51.688C178.459 52.192 179.383 52.444 180.487 52.444C181.591 52.444 182.545 52.192 183.349 51.688C184.165 51.184 184.699 50.434 184.951 49.438H188.515C188.299 50.71 187.789 51.79 186.985 52.678C186.193 53.566 185.233 54.238 184.105 54.694C182.977 55.138 181.795 55.36 180.559 55.36C178.795 55.36 177.241 54.982 175.897 54.226C174.553 53.458 173.503 52.366 172.747 50.95C172.003 49.534 171.631 47.848 171.631 45.892C171.631 43.96 171.973 42.256 172.657 40.78C173.341 39.292 174.331 38.128 175.627 37.288C176.923 36.448 178.483 36.028 180.307 36.028C182.107 36.028 183.619 36.412 184.843 37.18C186.079 37.948 187.015 39.028 187.651 40.42C188.287 41.8 188.605 43.432 188.605 45.316V46.594H175.501ZM175.501 44.092H184.933C184.933 43.12 184.765 42.238 184.429 41.446C184.093 40.642 183.577 40.012 182.881 39.556C182.197 39.088 181.333 38.854 180.289 38.854C179.221 38.854 178.333 39.112 177.625 39.628C176.917 40.144 176.383 40.804 176.023 41.608C175.675 42.412 175.501 43.24 175.501 44.092ZM217.059 36.388L211.281 55H207.753L203.721 41.932L199.851 55H196.377L190.545 36.388H194.055L198.123 49.942H198.375L202.353 36.388H205.215L209.319 49.906H209.571L213.495 36.388H217.059ZM239.084 28.612C240.956 28.612 242.618 28.996 244.07 29.764C245.522 30.532 246.686 31.564 247.562 32.86C248.45 34.156 248.978 35.59 249.146 37.162H245.042C244.862 36.178 244.514 35.29 243.998 34.498C243.494 33.694 242.822 33.064 241.982 32.608C241.142 32.14 240.146 31.906 238.994 31.906C237.518 31.906 236.264 32.254 235.232 32.95C234.2 33.646 233.414 34.732 232.874 36.208C232.346 37.684 232.082 39.586 232.082 41.914C232.082 45.43 232.676 48.004 233.864 49.636C235.052 51.256 236.762 52.066 238.994 52.066C240.146 52.066 241.142 51.82 241.982 51.328C242.822 50.824 243.494 50.158 243.998 49.33C244.514 48.49 244.862 47.578 245.042 46.594H249.146C249.002 47.734 248.702 48.832 248.246 49.888C247.79 50.932 247.154 51.868 246.338 52.696C245.534 53.524 244.532 54.178 243.332 54.658C242.132 55.126 240.716 55.36 239.084 55.36C236.732 55.36 234.716 54.82 233.036 53.74C231.356 52.648 230.066 51.1 229.166 49.096C228.278 47.08 227.834 44.668 227.834 41.86C227.834 39.064 228.278 36.682 229.166 34.714C230.054 32.734 231.338 31.222 233.018 30.178C234.698 29.134 236.72 28.612 239.084 28.612ZM258.524 55.36C257.324 55.36 256.256 55.144 255.32 54.712C254.396 54.28 253.67 53.656 253.142 52.84C252.614 52.024 252.35 51.04 252.35 49.888C252.35 47.824 253.082 46.282 254.546 45.262C256.01 44.242 258.344 43.702 261.548 43.642L264.608 43.552V42.202C264.608 41.134 264.29 40.294 263.654 39.682C263.018 39.07 262.04 38.77 260.72 38.782C259.724 38.782 258.836 39.01 258.056 39.466C257.288 39.922 256.784 40.672 256.544 41.716H253.196C253.268 40.48 253.622 39.442 254.258 38.602C254.906 37.75 255.794 37.108 256.922 36.676C258.05 36.244 259.376 36.028 260.9 36.028C262.592 36.028 263.984 36.262 265.076 36.73C266.168 37.186 266.978 37.858 267.506 38.746C268.046 39.634 268.316 40.714 268.316 41.986V55H265.058L264.752 51.58C264.056 53.008 263.174 53.998 262.106 54.55C261.05 55.09 259.856 55.36 258.524 55.36ZM259.73 52.678C260.318 52.678 260.9 52.576 261.476 52.372C262.052 52.156 262.574 51.868 263.042 51.508C263.51 51.136 263.882 50.722 264.158 50.266C264.446 49.81 264.596 49.342 264.608 48.862V45.784L262.088 45.838C260.804 45.85 259.712 45.982 258.812 46.234C257.924 46.486 257.24 46.876 256.76 47.404C256.292 47.932 256.058 48.634 256.058 49.51C256.058 50.506 256.406 51.286 257.102 51.85C257.798 52.402 258.674 52.678 259.73 52.678ZM278.769 55.252C277.665 55.252 276.777 55.108 276.105 54.82C275.445 54.532 274.941 54.148 274.593 53.668C274.245 53.176 274.011 52.624 273.891 52.012C273.783 51.388 273.729 50.746 273.729 50.086V28.252H277.527V49.69C277.527 50.554 277.695 51.214 278.031 51.67C278.379 52.126 278.907 52.384 279.615 52.444L280.587 52.48V54.928C280.287 55.024 279.975 55.102 279.651 55.162C279.339 55.222 279.045 55.252 278.769 55.252ZM289.211 55.252C288.107 55.252 287.219 55.108 286.547 54.82C285.887 54.532 285.383 54.148 285.035 53.668C284.687 53.176 284.453 52.624 284.333 52.012C284.225 51.388 284.171 50.746 284.171 50.086V28.252H287.969V49.69C287.969 50.554 288.137 51.214 288.473 51.67C288.821 52.126 289.349 52.384 290.057 52.444L291.029 52.48V54.928C290.729 55.024 290.417 55.102 290.093 55.162C289.781 55.222 289.487 55.252 289.211 55.252Z" fill="#2B061E"/>
<rect x="0.867432" y="184" width="45.4238" height="84" rx="22.7119" fill="white"/>
<path d="M17.1313 230.14L22.7713 226.42C23.4273 225.988 23.9793 225.596 24.4273 225.244C24.8913 224.876 25.2673 224.524 25.5553 224.188C25.8433 223.836 26.0513 223.484 26.1793 223.132C26.3073 222.78 26.3713 222.396 26.3713 221.98C26.3713 221.26 26.1393 220.684 25.6753 220.252C25.2273 219.804 24.5793 219.58 23.7313 219.58C23.0593 219.58 22.5313 219.708 22.1473 219.964C21.7633 220.204 21.4673 220.476 21.2593 220.78C21.0193 221.132 20.8513 221.532 20.7553 221.98H17.0113C17.1873 220.908 17.5393 219.948 18.0673 219.1C18.2913 218.748 18.5713 218.396 18.9073 218.044C19.2433 217.692 19.6353 217.388 20.0833 217.132C20.5473 216.86 21.0753 216.644 21.6673 216.484C22.2753 216.308 22.9633 216.22 23.7313 216.22C24.7233 216.22 25.6193 216.372 26.4193 216.676C27.2193 216.964 27.8993 217.364 28.4593 217.876C29.0193 218.388 29.4513 218.988 29.7553 219.676C30.0593 220.348 30.2113 221.076 30.2113 221.86C30.2113 222.612 30.1153 223.276 29.9233 223.852C29.7473 224.428 29.4673 224.972 29.0833 225.484C28.7153 225.98 28.2353 226.46 27.6433 226.924C27.0673 227.388 26.3873 227.884 25.6033 228.412L23.7313 229.66L22.5313 230.14V230.26L24.0913 230.14H30.2113V233.5H17.1313V230.14Z" fill="#3F3F3F"/>
<path d="M63.0833 216.482V212.972H83.0813V216.482H75.2153V239H71.3273V216.482H63.0833ZM85.4677 239V220.388H89.1577V224.204C89.4697 223.292 89.9017 222.53 90.4537 221.918C91.0177 221.294 91.6717 220.826 92.4157 220.514C93.1597 220.19 93.9457 220.028 94.7737 220.028C95.0257 220.028 95.2657 220.046 95.4937 220.082C95.7217 220.106 95.9017 220.154 96.0337 220.226V223.934C95.8777 223.862 95.6737 223.814 95.4217 223.79C95.1817 223.766 94.9717 223.748 94.7917 223.736C93.9757 223.676 93.2317 223.718 92.5597 223.862C91.8877 224.006 91.3057 224.246 90.8137 224.582C90.3337 224.918 89.9617 225.356 89.6977 225.896C89.4457 226.436 89.3197 227.072 89.3197 227.804V239H85.4677ZM104.434 239.36C103.234 239.36 102.166 239.144 101.23 238.712C100.306 238.28 99.5798 237.656 99.0518 236.84C98.5238 236.024 98.2598 235.04 98.2598 233.888C98.2598 231.824 98.9918 230.282 100.456 229.262C101.92 228.242 104.254 227.702 107.458 227.642L110.518 227.552V226.202C110.518 225.134 110.2 224.294 109.564 223.682C108.928 223.07 107.95 222.77 106.63 222.782C105.634 222.782 104.746 223.01 103.966 223.466C103.198 223.922 102.694 224.672 102.454 225.716H99.1058C99.1778 224.48 99.5318 223.442 100.168 222.602C100.816 221.75 101.704 221.108 102.832 220.676C103.96 220.244 105.286 220.028 106.81 220.028C108.502 220.028 109.894 220.262 110.986 220.73C112.078 221.186 112.888 221.858 113.416 222.746C113.956 223.634 114.226 224.714 114.226 225.986V239H110.968L110.662 235.58C109.966 237.008 109.084 237.998 108.016 238.55C106.96 239.09 105.766 239.36 104.434 239.36ZM105.64 236.678C106.228 236.678 106.81 236.576 107.386 236.372C107.962 236.156 108.484 235.868 108.952 235.508C109.42 235.136 109.792 234.722 110.068 234.266C110.356 233.81 110.506 233.342 110.518 232.862V229.784L107.998 229.838C106.714 229.85 105.622 229.982 104.722 230.234C103.834 230.486 103.15 230.876 102.67 231.404C102.202 231.932 101.968 232.634 101.968 233.51C101.968 234.506 102.316 235.286 103.012 235.85C103.708 236.402 104.584 236.678 105.64 236.678ZM123.708 220.388V239H120V220.388H123.708ZM123.78 212.99V216.788H119.91V212.99H123.78ZM129.448 239V220.388H133.21V223.07C133.51 222.566 133.912 222.092 134.416 221.648C134.932 221.204 135.562 220.844 136.306 220.568C137.062 220.292 137.932 220.154 138.916 220.154C140.08 220.154 141.154 220.388 142.138 220.856C143.134 221.312 143.932 222.032 144.532 223.016C145.132 223.988 145.432 225.248 145.432 226.796V239H141.58V227.21C141.58 225.878 141.22 224.888 140.5 224.24C139.792 223.592 138.874 223.268 137.746 223.268C136.99 223.268 136.27 223.394 135.586 223.646C134.902 223.898 134.35 224.282 133.93 224.798C133.51 225.302 133.3 225.938 133.3 226.706V239H129.448ZM154.434 220.388V239H150.726V220.388H154.434ZM154.506 212.99V216.788H150.636V212.99H154.506ZM160.175 239V220.388H163.937V223.07C164.237 222.566 164.639 222.092 165.143 221.648C165.659 221.204 166.289 220.844 167.033 220.568C167.789 220.292 168.659 220.154 169.643 220.154C170.807 220.154 171.881 220.388 172.865 220.856C173.861 221.312 174.659 222.032 175.259 223.016C175.859 223.988 176.159 225.248 176.159 226.796V239H172.307V227.21C172.307 225.878 171.947 224.888 171.227 224.24C170.519 223.592 169.601 223.268 168.473 223.268C167.717 223.268 166.997 223.394 166.313 223.646C165.629 223.898 165.077 224.282 164.657 224.798C164.237 225.302 164.027 225.938 164.027 226.706V239H160.175ZM189.157 245.156C186.133 245.156 183.793 244.73 182.137 243.878C180.481 243.038 179.653 241.862 179.653 240.35C179.653 239.69 179.809 239.132 180.121 238.676C180.445 238.208 180.823 237.824 181.255 237.524C181.699 237.224 182.107 236.99 182.479 236.822C182.851 236.642 183.091 236.516 183.199 236.444C182.995 236.324 182.731 236.174 182.407 235.994C182.095 235.802 181.813 235.55 181.561 235.238C181.309 234.914 181.183 234.494 181.183 233.978C181.183 233.378 181.465 232.826 182.029 232.322C182.605 231.806 183.463 231.428 184.603 231.188C183.475 230.636 182.599 229.892 181.975 228.956C181.363 228.02 181.057 227.024 181.057 225.968C181.057 224.756 181.399 223.712 182.083 222.836C182.767 221.948 183.727 221.27 184.963 220.802C186.211 220.334 187.675 220.1 189.355 220.1C190.579 220.1 191.605 220.238 192.433 220.514C193.261 220.79 194.023 221.174 194.719 221.666C194.947 221.582 195.271 221.456 195.691 221.288C196.111 221.108 196.573 220.916 197.077 220.712C197.593 220.508 198.079 220.31 198.535 220.118C199.003 219.926 199.381 219.77 199.669 219.65L199.651 222.998L196.411 223.592C196.579 223.952 196.711 224.348 196.807 224.78C196.915 225.212 196.969 225.608 196.969 225.968C196.969 227.048 196.675 228.044 196.087 228.956C195.499 229.856 194.617 230.576 193.441 231.116C192.265 231.656 190.795 231.926 189.031 231.926C188.863 231.926 188.647 231.926 188.383 231.926C188.119 231.914 187.897 231.896 187.717 231.872C186.601 231.908 185.833 232.04 185.413 232.268C184.993 232.484 184.783 232.724 184.783 232.988C184.783 233.324 185.053 233.552 185.593 233.672C186.133 233.792 187.021 233.894 188.257 233.978C188.701 234.014 189.265 234.05 189.949 234.086C190.645 234.122 191.413 234.17 192.253 234.23C194.293 234.35 195.847 234.86 196.915 235.76C197.995 236.66 198.535 237.854 198.535 239.342C198.535 241.046 197.761 242.438 196.213 243.518C194.665 244.61 192.313 245.156 189.157 245.156ZM189.823 242.798C191.467 242.798 192.703 242.558 193.531 242.078C194.371 241.61 194.791 240.908 194.791 239.972C194.791 239.276 194.521 238.706 193.981 238.262C193.441 237.818 192.637 237.56 191.569 237.488L186.601 237.164C186.109 237.14 185.617 237.248 185.125 237.488C184.645 237.728 184.243 238.064 183.919 238.496C183.607 238.916 183.451 239.384 183.451 239.9C183.451 240.836 183.967 241.55 184.999 242.042C186.043 242.546 187.651 242.798 189.823 242.798ZM189.139 229.568C190.387 229.568 191.389 229.268 192.145 228.668C192.913 228.056 193.297 227.18 193.297 226.04C193.297 224.864 192.913 223.958 192.145 223.322C191.389 222.674 190.387 222.35 189.139 222.35C187.879 222.35 186.859 222.674 186.079 223.322C185.311 223.97 184.927 224.876 184.927 226.04C184.927 227.144 185.293 228.008 186.025 228.632C186.769 229.256 187.807 229.568 189.139 229.568ZM216.863 239.36C215.663 239.36 214.595 239.144 213.659 238.712C212.735 238.28 212.009 237.656 211.481 236.84C210.953 236.024 210.689 235.04 210.689 233.888C210.689 231.824 211.421 230.282 212.885 229.262C214.349 228.242 216.683 227.702 219.887 227.642L222.947 227.552V226.202C222.947 225.134 222.629 224.294 221.993 223.682C221.357 223.07 220.379 222.77 219.059 222.782C218.063 222.782 217.175 223.01 216.395 223.466C215.627 223.922 215.123 224.672 214.883 225.716H211.535C211.607 224.48 211.961 223.442 212.597 222.602C213.245 221.75 214.133 221.108 215.261 220.676C216.389 220.244 217.715 220.028 219.239 220.028C220.931 220.028 222.323 220.262 223.415 220.73C224.507 221.186 225.317 221.858 225.845 222.746C226.385 223.634 226.655 224.714 226.655 225.986V239H223.397L223.091 235.58C222.395 237.008 221.513 237.998 220.445 238.55C219.389 239.09 218.195 239.36 216.863 239.36ZM218.069 236.678C218.657 236.678 219.239 236.576 219.815 236.372C220.391 236.156 220.913 235.868 221.381 235.508C221.849 235.136 222.221 234.722 222.497 234.266C222.785 233.81 222.935 233.342 222.947 232.862V229.784L220.427 229.838C219.143 229.85 218.051 229.982 217.151 230.234C216.263 230.486 215.579 230.876 215.099 231.404C214.631 231.932 214.397 232.634 214.397 233.51C214.397 234.506 214.745 235.286 215.441 235.85C216.137 236.402 217.013 236.678 218.069 236.678ZM232.069 239V220.388H235.831V223.07C236.131 222.566 236.533 222.092 237.037 221.648C237.553 221.204 238.183 220.844 238.927 220.568C239.683 220.292 240.553 220.154 241.537 220.154C242.701 220.154 243.775 220.388 244.759 220.856C245.755 221.312 246.553 222.032 247.153 223.016C247.753 223.988 248.053 225.248 248.053 226.796V239H244.201V227.21C244.201 225.878 243.841 224.888 243.121 224.24C242.413 223.592 241.495 223.268 240.367 223.268C239.611 223.268 238.891 223.394 238.207 223.646C237.523 223.898 236.971 224.282 236.551 224.798C236.131 225.302 235.921 225.938 235.921 226.706V239H232.069ZM259.773 239.36C257.325 239.36 255.399 238.526 253.995 236.858C252.591 235.178 251.889 232.76 251.889 229.604C251.889 227.672 252.171 225.992 252.735 224.564C253.299 223.124 254.139 222.008 255.255 221.216C256.383 220.424 257.775 220.028 259.431 220.028C260.271 220.028 261.015 220.13 261.663 220.334C262.323 220.538 262.899 220.802 263.391 221.126C263.895 221.45 264.309 221.798 264.633 222.17C264.969 222.542 265.227 222.89 265.407 223.214V212.252H269.277V239H266.397L265.965 235.184C265.833 235.592 265.629 236.036 265.353 236.516C265.077 236.996 264.699 237.452 264.219 237.884C263.751 238.316 263.151 238.67 262.419 238.946C261.687 239.222 260.805 239.36 259.773 239.36ZM260.511 236.462C262.239 236.462 263.487 235.922 264.255 234.842C265.023 233.75 265.407 231.962 265.407 229.478C265.395 228.074 265.221 226.886 264.885 225.914C264.549 224.942 264.027 224.21 263.319 223.718C262.623 223.214 261.705 222.962 260.565 222.962C259.137 222.962 257.973 223.478 257.073 224.51C256.173 225.53 255.723 227.186 255.723 229.478C255.723 231.734 256.131 233.462 256.947 234.662C257.775 235.862 258.963 236.462 260.511 236.462ZM283.308 212.972H287.16V239H283.308V212.972ZM293.065 239V220.388H296.827V223.07C297.127 222.566 297.529 222.092 298.033 221.648C298.549 221.204 299.179 220.844 299.923 220.568C300.679 220.292 301.549 220.154 302.533 220.154C303.697 220.154 304.771 220.388 305.755 220.856C306.751 221.312 307.549 222.032 308.149 223.016C308.749 223.988 309.049 225.248 309.049 226.796V239H305.197V227.21C305.197 225.878 304.837 224.888 304.117 224.24C303.409 223.592 302.491 223.268 301.363 223.268C300.607 223.268 299.887 223.394 299.203 223.646C298.519 223.898 297.967 224.282 297.547 224.798C297.127 225.302 296.917 225.938 296.917 226.706V239H293.065ZM320.769 239.36C318.321 239.36 316.395 238.526 314.991 236.858C313.587 235.178 312.885 232.76 312.885 229.604C312.885 227.672 313.167 225.992 313.731 224.564C314.295 223.124 315.135 222.008 316.251 221.216C317.379 220.424 318.771 220.028 320.427 220.028C321.267 220.028 322.011 220.13 322.659 220.334C323.319 220.538 323.895 220.802 324.387 221.126C324.891 221.45 325.305 221.798 325.629 222.17C325.965 222.542 326.223 222.89 326.403 223.214V212.252H330.273V239H327.393L326.961 235.184C326.829 235.592 326.625 236.036 326.349 236.516C326.073 236.996 325.695 237.452 325.215 237.884C324.747 238.316 324.147 238.67 323.415 238.946C322.683 239.222 321.801 239.36 320.769 239.36ZM321.507 236.462C323.235 236.462 324.483 235.922 325.251 234.842C326.019 233.75 326.403 231.962 326.403 229.478C326.391 228.074 326.217 226.886 325.881 225.914C325.545 224.942 325.023 224.21 324.315 223.718C323.619 223.214 322.701 222.962 321.561 222.962C320.133 222.962 318.969 223.478 318.069 224.51C317.169 225.53 316.719 227.186 316.719 229.478C316.719 231.734 317.127 233.462 317.943 234.662C318.771 235.862 319.959 236.462 321.507 236.462ZM342.339 239.36C341.403 239.348 340.509 239.21 339.657 238.946C338.805 238.682 338.043 238.286 337.371 237.758C336.711 237.23 336.183 236.576 335.787 235.796C335.403 235.016 335.211 234.11 335.211 233.078V220.388H339.081V232.664C339.081 233.78 339.429 234.686 340.125 235.382C340.821 236.078 341.871 236.426 343.275 236.426C344.547 236.426 345.567 236.096 346.335 235.436C347.103 234.764 347.487 233.786 347.487 232.502V220.388H351.321V239H348.333L347.901 235.4C347.685 236.372 347.295 237.152 346.731 237.74C346.179 238.316 345.519 238.736 344.751 239C343.995 239.252 343.191 239.372 342.339 239.36ZM363.854 220.028C365.246 220.028 366.482 220.304 367.562 220.856C368.654 221.396 369.536 222.152 370.208 223.124C370.88 224.096 371.288 225.23 371.432 226.526H368.102C367.994 225.914 367.76 225.344 367.4 224.816C367.052 224.288 366.578 223.868 365.978 223.556C365.39 223.232 364.688 223.07 363.872 223.07C362.384 223.07 361.172 223.616 360.236 224.708C359.3 225.8 358.832 227.474 358.832 229.73C358.832 231.794 359.264 233.438 360.128 234.662C361.004 235.886 362.276 236.498 363.944 236.498C364.748 236.498 365.444 236.33 366.032 235.994C366.632 235.658 367.106 235.226 367.454 234.698C367.802 234.17 368.024 233.624 368.12 233.06H371.396C371.264 234.308 370.856 235.406 370.172 236.354C369.5 237.302 368.618 238.04 367.526 238.568C366.446 239.096 365.222 239.36 363.854 239.36C362.162 239.36 360.662 238.994 359.354 238.262C358.046 237.518 357.02 236.432 356.276 235.004C355.544 233.564 355.178 231.818 355.178 229.766C355.178 227.834 355.52 226.136 356.204 224.672C356.888 223.208 357.878 222.068 359.174 221.252C360.482 220.436 362.042 220.028 363.854 220.028ZM385.061 223.16H380.885L380.903 234.266C380.903 234.878 380.963 235.328 381.083 235.616C381.215 235.892 381.431 236.072 381.731 236.156C382.043 236.228 382.463 236.264 382.991 236.264H385.169V238.766C384.929 238.862 384.569 238.946 384.089 239.018C383.621 239.09 383.015 239.126 382.271 239.126C380.891 239.126 379.817 238.94 379.049 238.568C378.293 238.196 377.765 237.662 377.465 236.966C377.177 236.258 377.033 235.406 377.033 234.41V223.16H374.009V220.388H377.141L378.095 214.916H380.885V220.37H385.061V223.16ZM393.672 220.388V239H389.964V220.388H393.672ZM393.744 212.99V216.788H389.874V212.99H393.744ZM406.762 239.36C405.022 239.36 403.498 238.988 402.19 238.244C400.894 237.488 399.886 236.396 399.166 234.968C398.458 233.54 398.104 231.812 398.104 229.784C398.104 227.828 398.44 226.118 399.112 224.654C399.796 223.19 400.786 222.056 402.082 221.252C403.378 220.436 404.944 220.028 406.78 220.028C408.532 220.028 410.05 220.412 411.334 221.18C412.618 221.936 413.614 223.046 414.322 224.51C415.03 225.962 415.384 227.72 415.384 229.784C415.384 231.668 415.048 233.33 414.376 234.77C413.716 236.21 412.744 237.338 411.46 238.154C410.188 238.958 408.622 239.36 406.762 239.36ZM406.78 236.39C407.836 236.39 408.718 236.114 409.426 235.562C410.146 234.998 410.686 234.212 411.046 233.204C411.406 232.184 411.586 231.008 411.586 229.676C411.586 228.44 411.424 227.318 411.1 226.31C410.788 225.29 410.278 224.48 409.57 223.88C408.862 223.28 407.932 222.98 406.78 222.98C405.7 222.98 404.8 223.256 404.08 223.808C403.36 224.348 402.814 225.122 402.442 226.13C402.082 227.126 401.902 228.308 401.902 229.676C401.902 230.888 402.064 232.004 402.388 233.024C402.712 234.044 403.234 234.86 403.954 235.472C404.674 236.084 405.616 236.39 406.78 236.39ZM419.522 239V220.388H423.284V223.07C423.584 222.566 423.986 222.092 424.49 221.648C425.006 221.204 425.636 220.844 426.38 220.568C427.136 220.292 428.006 220.154 428.99 220.154C430.154 220.154 431.228 220.388 432.212 220.856C433.208 221.312 434.006 222.032 434.606 223.016C435.206 223.988 435.506 225.248 435.506 226.796V239H431.654V227.21C431.654 225.878 431.294 224.888 430.574 224.24C429.866 223.592 428.948 223.268 427.82 223.268C427.064 223.268 426.344 223.394 425.66 223.646C424.976 223.898 424.424 224.282 424.004 224.798C423.584 225.302 423.374 225.938 423.374 226.706V239H419.522Z" fill="#2B061E"/>
<rect x="0.867432" y="353.188" width="45.4238" height="84" rx="22.7119" fill="white"/>
<path d="M22.8513 403.168C22.0673 403.168 21.3633 403.088 20.7393 402.928C20.1313 402.768 19.5873 402.559 19.1073 402.303C18.6433 402.047 18.2353 401.759 17.8833 401.439C17.5473 401.103 17.2593 400.759 17.0193 400.407C16.4593 399.607 16.0833 398.687 15.8913 397.647H19.6113C19.7233 398.063 19.9153 398.423 20.1873 398.727C20.4113 398.999 20.7313 399.247 21.1473 399.471C21.5793 399.695 22.1473 399.807 22.8513 399.807C23.8753 399.807 24.6513 399.575 25.1793 399.111C25.7073 398.647 25.9713 398.079 25.9713 397.407C25.9713 396.687 25.7313 396.111 25.2513 395.679C24.7713 395.231 24.0513 395.007 23.0913 395.007H19.0113V392.367L23.4513 389.367V389.247H16.7313V385.887H28.6113V389.247L24.1713 392.007L23.9313 392.103V392.247H24.5313C25.2513 392.247 25.9233 392.383 26.5473 392.655C27.1713 392.911 27.7153 393.279 28.1793 393.759C28.6593 394.223 29.0273 394.767 29.2833 395.391C29.5553 396.015 29.6913 396.687 29.6913 397.407C29.6913 398.191 29.5313 398.935 29.2113 399.639C28.8913 400.327 28.4353 400.935 27.8433 401.463C27.2513 401.991 26.5313 402.407 25.6833 402.712C24.8513 403.016 23.9073 403.168 22.8513 403.168Z" fill="#3F3F3F"/>
<path d="M75.4313 381.799C77.3033 381.799 78.9653 382.183 80.4173 382.951C81.8693 383.719 83.0333 384.751 83.9093 386.047C84.7973 387.343 85.3253 388.777 85.4933 390.349H81.3893C81.2093 389.365 80.8613 388.477 80.3453 387.685C79.8413 386.881 79.1693 386.251 78.3293 385.795C77.4893 385.327 76.4933 385.093 75.3413 385.093C73.8653 385.093 72.6113 385.441 71.5793 386.137C70.5473 386.833 69.7613 387.919 69.2213 389.395C68.6933 390.871 68.4293 392.773 68.4293 395.101C68.4293 398.617 69.0233 401.191 70.2113 402.823C71.3993 404.443 73.1093 405.253 75.3413 405.253C76.4933 405.253 77.4893 405.007 78.3293 404.515C79.1693 404.011 79.8413 403.345 80.3453 402.517C80.8613 401.677 81.2093 400.765 81.3893 399.781H85.4933C85.3493 400.921 85.0493 402.019 84.5933 403.075C84.1373 404.119 83.5013 405.055 82.6853 405.883C81.8813 406.711 80.8793 407.365 79.6793 407.845C78.4793 408.314 77.0633 408.548 75.4313 408.548C73.0793 408.548 71.0633 408.008 69.3833 406.927C67.7033 405.835 66.4133 404.287 65.5133 402.283C64.6253 400.267 64.1813 397.855 64.1813 395.047C64.1813 392.251 64.6253 389.869 65.5133 387.901C66.4013 385.921 67.6853 384.409 69.3653 383.365C71.0453 382.321 73.0673 381.799 75.4313 381.799ZM97.4925 408.548C95.7525 408.548 94.2285 408.175 92.9205 407.431C91.6245 406.675 90.6165 405.583 89.8965 404.155C89.1885 402.727 88.8345 400.999 88.8345 398.971C88.8345 397.015 89.1705 395.305 89.8425 393.841C90.5265 392.377 91.5165 391.243 92.8125 390.439C94.1085 389.623 95.6745 389.215 97.5105 389.215C99.2625 389.215 100.781 389.599 102.065 390.367C103.349 391.123 104.345 392.233 105.053 393.697C105.761 395.149 106.115 396.907 106.115 398.971C106.115 400.855 105.779 402.517 105.107 403.957C104.447 405.397 103.475 406.525 102.191 407.341C100.919 408.146 99.3525 408.548 97.4925 408.548ZM97.5105 405.577C98.5665 405.577 99.4485 405.301 100.157 404.749C100.877 404.185 101.417 403.399 101.777 402.391C102.137 401.371 102.317 400.195 102.317 398.863C102.317 397.627 102.155 396.505 101.831 395.497C101.519 394.477 101.009 393.667 100.301 393.067C99.5925 392.467 98.6625 392.167 97.5105 392.167C96.4305 392.167 95.5305 392.443 94.8105 392.995C94.0905 393.535 93.5445 394.309 93.1725 395.317C92.8125 396.313 92.6325 397.495 92.6325 398.863C92.6325 400.075 92.7945 401.191 93.1185 402.211C93.4425 403.231 93.9645 404.047 94.6845 404.659C95.4045 405.271 96.3465 405.577 97.5105 405.577ZM119.532 397.423V400.357L110.208 400.393V397.441L119.532 397.423ZM132.227 408.548C130.487 408.548 128.963 408.175 127.655 407.431C126.359 406.675 125.351 405.583 124.631 404.155C123.923 402.727 123.569 400.999 123.569 398.971C123.569 397.015 123.905 395.305 124.577 393.841C125.261 392.377 126.251 391.243 127.547 390.439C128.843 389.623 130.409 389.215 132.245 389.215C133.997 389.215 135.515 389.599 136.799 390.367C138.083 391.123 139.079 392.233 139.787 393.697C140.495 395.149 140.849 396.907 140.849 398.971C140.849 400.855 140.513 402.517 139.841 403.957C139.181 405.397 138.209 406.525 136.925 407.341C135.653 408.146 134.087 408.548 132.227 408.548ZM132.245 405.577C133.301 405.577 134.183 405.301 134.891 404.749C135.611 404.185 136.151 403.399 136.511 402.391C136.871 401.371 137.051 400.195 137.051 398.863C137.051 397.627 136.889 396.505 136.565 395.497C136.253 394.477 135.743 393.667 135.035 393.067C134.327 392.467 133.397 392.167 132.245 392.167C131.165 392.167 130.265 392.443 129.545 392.995C128.825 393.535 128.279 394.309 127.907 395.317C127.547 396.313 127.367 397.495 127.367 398.863C127.367 400.075 127.529 401.191 127.853 402.211C128.177 403.231 128.699 404.047 129.419 404.659C130.139 405.271 131.081 405.577 132.245 405.577ZM169.141 389.575L163.363 408.188H159.835L155.803 395.119L151.933 408.188H148.459L142.627 389.575H146.137L150.205 403.129H150.457L154.435 389.575H157.297L161.401 403.093H161.653L165.577 389.575H169.141ZM172.655 408.188V389.575H176.417V392.257C176.717 391.753 177.119 391.279 177.623 390.835C178.139 390.391 178.769 390.031 179.513 389.755C180.269 389.479 181.139 389.341 182.123 389.341C183.287 389.341 184.361 389.575 185.345 390.043C186.341 390.499 187.139 391.219 187.739 392.203C188.339 393.175 188.639 394.435 188.639 395.983V408.188H184.787V396.397C184.787 395.065 184.427 394.075 183.707 393.427C182.999 392.779 182.081 392.455 180.953 392.455C180.197 392.455 179.477 392.581 178.793 392.833C178.109 393.085 177.557 393.469 177.137 393.985C176.717 394.489 176.507 395.125 176.507 395.893V408.188H172.655ZM206.914 408.548C205.714 408.548 204.646 408.332 203.71 407.899C202.786 407.467 202.06 406.843 201.532 406.027C201.004 405.211 200.74 404.227 200.74 403.075C200.74 401.011 201.472 399.469 202.936 398.449C204.4 397.429 206.734 396.889 209.938 396.829L212.998 396.739V395.389C212.998 394.321 212.68 393.481 212.044 392.869C211.408 392.257 210.43 391.957 209.11 391.969C208.114 391.969 207.226 392.197 206.446 392.653C205.678 393.109 205.174 393.859 204.934 394.903H201.586C201.658 393.667 202.012 392.629 202.648 391.789C203.296 390.937 204.184 390.295 205.312 389.863C206.44 389.431 207.766 389.215 209.29 389.215C210.982 389.215 212.374 389.449 213.466 389.917C214.558 390.373 215.368 391.045 215.896 391.933C216.436 392.821 216.706 393.901 216.706 395.173V408.188H213.448L213.142 404.767C212.446 406.195 211.564 407.185 210.496 407.737C209.44 408.278 208.246 408.548 206.914 408.548ZM208.12 405.865C208.708 405.865 209.29 405.763 209.866 405.559C210.442 405.343 210.964 405.055 211.432 404.695C211.9 404.323 212.272 403.909 212.548 403.453C212.836 402.997 212.986 402.529 212.998 402.049V398.971L210.478 399.025C209.194 399.037 208.102 399.169 207.202 399.421C206.314 399.673 205.63 400.063 205.15 400.591C204.682 401.119 204.448 401.821 204.448 402.697C204.448 403.693 204.796 404.473 205.492 405.037C206.188 405.589 207.064 405.865 208.12 405.865ZM230.241 408.188V389.575H233.931V393.391C234.243 392.479 234.675 391.717 235.227 391.105C235.791 390.481 236.445 390.013 237.189 389.701C237.933 389.377 238.719 389.215 239.547 389.215C239.799 389.215 240.039 389.233 240.267 389.27C240.495 389.293 240.675 389.341 240.807 389.413V393.121C240.651 393.049 240.447 393.001 240.195 392.977C239.955 392.953 239.745 392.935 239.565 392.923C238.749 392.863 238.005 392.905 237.333 393.049C236.661 393.193 236.079 393.433 235.587 393.769C235.107 394.105 234.735 394.543 234.471 395.083C234.219 395.623 234.093 396.259 234.093 396.991V408.188H230.241ZM246.974 399.781C246.974 400.897 247.154 401.899 247.514 402.787C247.886 403.663 248.444 404.359 249.188 404.875C249.932 405.379 250.856 405.631 251.96 405.631C253.064 405.631 254.018 405.379 254.822 404.875C255.638 404.371 256.172 403.621 256.424 402.625H259.988C259.772 403.897 259.262 404.977 258.458 405.865C257.666 406.753 256.706 407.425 255.578 407.881C254.45 408.326 253.268 408.548 252.032 408.548C250.268 408.548 248.714 408.17 247.37 407.413C246.026 406.645 244.976 405.553 244.22 404.137C243.476 402.721 243.104 401.035 243.104 399.079C243.104 397.147 243.446 395.443 244.13 393.967C244.814 392.479 245.804 391.315 247.1 390.475C248.396 389.635 249.956 389.215 251.78 389.215C253.58 389.215 255.092 389.599 256.316 390.367C257.552 391.135 258.488 392.215 259.124 393.607C259.76 394.987 260.078 396.619 260.078 398.503V399.781H246.974ZM246.974 397.279H256.406C256.406 396.307 256.238 395.425 255.902 394.633C255.566 393.829 255.05 393.199 254.354 392.743C253.67 392.275 252.806 392.041 251.762 392.041C250.694 392.041 249.806 392.299 249.098 392.815C248.39 393.331 247.856 393.991 247.496 394.795C247.148 395.599 246.974 396.427 246.974 397.279ZM271.094 408.548C269.798 408.548 268.58 408.344 267.44 407.935C266.312 407.527 265.364 406.885 264.596 406.009C263.84 405.133 263.366 404.011 263.174 402.643H266.612C266.768 403.351 267.062 403.939 267.494 404.407C267.938 404.863 268.466 405.205 269.078 405.433C269.702 405.649 270.368 405.757 271.076 405.757C272.252 405.757 273.2 405.547 273.92 405.127C274.652 404.695 275.018 404.035 275.018 403.147C275.018 402.511 274.82 402.001 274.424 401.617C274.04 401.233 273.428 400.951 272.588 400.771L268.88 399.889C267.344 399.529 266.114 398.959 265.19 398.179C264.266 397.387 263.798 396.283 263.786 394.867C263.786 393.775 264.056 392.803 264.596 391.951C265.148 391.099 265.964 390.433 267.044 389.953C268.124 389.461 269.468 389.215 271.076 389.215C273.176 389.215 274.862 389.683 276.134 390.619C277.406 391.555 278.066 392.911 278.114 394.687H274.784C274.664 393.835 274.274 393.169 273.614 392.689C272.966 392.197 272.108 391.951 271.04 391.951C269.936 391.951 269.03 392.173 268.322 392.617C267.614 393.049 267.26 393.715 267.26 394.615C267.26 395.227 267.518 395.713 268.034 396.073C268.55 396.421 269.324 396.709 270.356 396.938L273.884 397.819C274.796 398.059 275.546 398.377 276.134 398.773C276.722 399.157 277.184 399.583 277.52 400.051C277.856 400.519 278.09 401.005 278.222 401.509C278.366 402.013 278.438 402.487 278.438 402.931C278.438 404.107 278.138 405.115 277.538 405.955C276.95 406.783 276.104 407.425 275 407.881C273.908 408.326 272.606 408.548 271.094 408.548ZM292.424 392.347H288.248L288.266 403.453C288.266 404.065 288.326 404.515 288.446 404.803C288.578 405.079 288.794 405.259 289.094 405.343C289.406 405.415 289.826 405.451 290.354 405.451H292.532V407.953C292.292 408.049 291.932 408.133 291.452 408.206C290.984 408.278 290.378 408.314 289.634 408.314C288.254 408.314 287.18 408.128 286.412 407.755C285.656 407.383 285.128 406.849 284.828 406.153C284.54 405.445 284.396 404.593 284.396 403.597V392.347H281.372V389.575H284.504L285.458 384.103H288.248V389.557H292.424V392.347ZM302.082 408.548C300.882 408.548 299.814 408.332 298.878 407.899C297.954 407.467 297.228 406.843 296.7 406.027C296.172 405.211 295.908 404.227 295.908 403.075C295.908 401.011 296.64 399.469 298.104 398.449C299.568 397.429 301.902 396.889 305.106 396.829L308.166 396.739V395.389C308.166 394.321 307.848 393.481 307.212 392.869C306.576 392.257 305.598 391.957 304.278 391.969C303.282 391.969 302.394 392.197 301.614 392.653C300.846 393.109 300.342 393.859 300.102 394.903H296.754C296.826 393.667 297.18 392.629 297.816 391.789C298.464 390.937 299.352 390.295 300.48 389.863C301.608 389.431 302.934 389.215 304.458 389.215C306.15 389.215 307.542 389.449 308.634 389.917C309.726 390.373 310.536 391.045 311.064 391.933C311.604 392.821 311.874 393.901 311.874 395.173V408.188H308.616L308.31 404.767C307.614 406.195 306.732 407.185 305.664 407.737C304.608 408.278 303.414 408.548 302.082 408.548ZM303.288 405.865C303.876 405.865 304.458 405.763 305.034 405.559C305.61 405.343 306.132 405.055 306.6 404.695C307.068 404.323 307.44 403.909 307.716 403.453C308.004 402.997 308.154 402.529 308.166 402.049V398.971L305.646 399.025C304.362 399.037 303.27 399.169 302.37 399.421C301.482 399.673 300.798 400.063 300.318 400.591C299.85 401.119 299.616 401.821 299.616 402.697C299.616 403.693 299.964 404.473 300.66 405.037C301.356 405.589 302.232 405.865 303.288 405.865ZM323.847 408.548C322.911 408.536 322.017 408.398 321.165 408.133C320.313 407.869 319.551 407.473 318.879 406.945C318.219 406.417 317.691 405.763 317.295 404.983C316.911 404.203 316.719 403.297 316.719 402.265V389.575H320.589V401.851C320.589 402.967 320.937 403.873 321.633 404.569C322.329 405.265 323.379 405.613 324.783 405.613C326.055 405.613 327.075 405.283 327.843 404.623C328.611 403.951 328.995 402.973 328.995 401.689V389.575H332.829V408.188H329.841L329.409 404.587C329.193 405.559 328.803 406.339 328.239 406.927C327.687 407.503 327.027 407.923 326.259 408.188C325.503 408.44 324.699 408.56 323.847 408.548ZM337.995 408.188V389.575H341.685V393.391C341.997 392.479 342.429 391.717 342.981 391.105C343.545 390.481 344.199 390.013 344.943 389.701C345.687 389.377 346.473 389.215 347.301 389.215C347.553 389.215 347.793 389.233 348.021 389.27C348.249 389.293 348.429 389.341 348.561 389.413V393.121C348.405 393.049 348.201 393.001 347.949 392.977C347.709 392.953 347.499 392.935 347.319 392.923C346.503 392.863 345.759 392.905 345.087 393.049C344.415 393.193 343.833 393.433 343.341 393.769C342.861 394.105 342.489 394.543 342.225 395.083C341.973 395.623 341.847 396.259 341.847 396.991V408.188H337.995ZM356.961 408.548C355.761 408.548 354.693 408.332 353.757 407.899C352.833 407.467 352.107 406.843 351.579 406.027C351.051 405.211 350.787 404.227 350.787 403.075C350.787 401.011 351.519 399.469 352.983 398.449C354.447 397.429 356.781 396.889 359.985 396.829L363.045 396.739V395.389C363.045 394.321 362.727 393.481 362.091 392.869C361.455 392.257 360.477 391.957 359.157 391.969C358.161 391.969 357.273 392.197 356.493 392.653C355.725 393.109 355.221 393.859 354.981 394.903H351.633C351.705 393.667 352.059 392.629 352.695 391.789C353.343 390.937 354.231 390.295 355.359 389.863C356.487 389.431 357.813 389.215 359.337 389.215C361.029 389.215 362.421 389.449 363.513 389.917C364.605 390.373 365.415 391.045 365.943 391.933C366.483 392.821 366.753 393.901 366.753 395.173V408.188H363.495L363.189 404.767C362.493 406.195 361.611 407.185 360.543 407.737C359.487 408.278 358.293 408.548 356.961 408.548ZM358.167 405.865C358.755 405.865 359.337 405.763 359.913 405.559C360.489 405.343 361.011 405.055 361.479 404.695C361.947 404.323 362.319 403.909 362.595 403.453C362.883 402.997 363.033 402.529 363.045 402.049V398.971L360.525 399.025C359.241 399.037 358.149 399.169 357.249 399.421C356.361 399.673 355.677 400.063 355.197 400.591C354.729 401.119 354.495 401.821 354.495 402.697C354.495 403.693 354.843 404.473 355.539 405.037C356.235 405.589 357.111 405.865 358.167 405.865ZM372.167 408.188V389.575H375.929V392.257C376.229 391.753 376.631 391.279 377.135 390.835C377.651 390.391 378.281 390.031 379.025 389.755C379.781 389.479 380.651 389.341 381.635 389.341C382.799 389.341 383.873 389.575 384.857 390.043C385.853 390.499 386.651 391.219 387.251 392.203C387.851 393.175 388.151 394.435 388.151 395.983V408.188H384.299V396.397C384.299 395.065 383.939 394.075 383.219 393.427C382.511 392.779 381.593 392.455 380.465 392.455C379.709 392.455 378.989 392.581 378.305 392.833C377.621 393.085 377.069 393.469 376.649 393.985C376.229 394.489 376.019 395.125 376.019 395.893V408.188H372.167ZM402.182 392.347H398.006L398.024 403.453C398.024 404.065 398.084 404.515 398.204 404.803C398.336 405.079 398.552 405.259 398.852 405.343C399.164 405.415 399.584 405.451 400.112 405.451H402.29V407.953C402.05 408.049 401.69 408.133 401.21 408.206C400.742 408.278 400.136 408.314 399.392 408.314C398.012 408.314 396.938 408.128 396.17 407.755C395.414 407.383 394.886 406.849 394.586 406.153C394.298 405.445 394.154 404.593 394.154 403.597V392.347H391.13V389.575H394.262L395.216 384.103H398.006V389.557H402.182V392.347Z" fill="#2B061E"/>
</svg>
