<svg width="295" height="222" viewBox="0 0 295 222" fill="none" xmlns="http://www.w3.org/2000/svg">
<path opacity="0.45" d="M149.519 200.908C218.923 200.908 275.187 196.488 275.187 191.037C275.187 185.585 218.923 181.166 149.519 181.166C80.1145 181.166 23.8511 185.585 23.8511 191.037C23.8511 196.488 80.1145 200.908 149.519 200.908Z" fill="white"/>
<path d="M79.6461 180.008C79.6461 180.008 79.6903 182.915 81.9531 183.918C84.2158 184.921 84.0463 187.415 81.7467 187.289C79.4471 187.164 74.951 182.59 74.951 182.59L76.6536 178.385L79.6461 180.008Z" fill="#FFD5B3"/>
<path d="M70.7574 149.48C70.7574 149.48 84.2823 150.077 82.8082 159.262C81.3341 168.447 75.364 178.385 75.364 178.385L80.5676 180.561C80.5676 180.561 90.8863 168.698 91.8961 154.061C92.9059 139.424 72.1725 142.693 70.7574 149.48Z" fill="#24285B"/>
<path opacity="0.08" d="M70.7574 149.48C70.7574 149.48 84.2823 150.077 82.8082 159.262C81.3341 168.447 75.364 178.385 75.364 178.385L80.5676 180.561C80.5676 180.561 90.8863 168.698 91.8961 154.061C92.9059 139.424 72.1725 142.693 70.7574 149.48Z" fill="black"/>
<path d="M61.4043 93.9283C56.4955 90.1289 49.1103 92.0766 47.0539 97.9416C46.422 99.7668 46.4039 101.749 47.0023 103.585C49.3387 111.088 53.024 121.291 66.7775 124.98C80.5309 128.669 92.0879 131.428 93.1935 126.596C94.2991 121.763 91.2256 115.618 79.9265 111.841C71.8852 109.111 67.6472 98.7531 61.4043 93.9283Z" fill="#FFD5B3"/>
<path opacity="0.08" d="M61.4043 93.9283C56.4955 90.1289 49.1103 92.0766 47.0539 97.9416C46.422 99.7668 46.4039 101.749 47.0023 103.585C49.3387 111.088 53.024 121.291 66.7775 124.98C80.5309 128.669 92.0879 131.428 93.1935 126.596C94.2991 121.763 91.2256 115.618 79.9265 111.841C71.8852 109.111 67.6472 98.7531 61.4043 93.9283Z" fill="black"/>
<path d="M90.5178 180.644C90.5178 180.644 90.5178 183.551 92.8248 184.554C95.1318 185.558 94.918 188.051 92.611 187.926C90.304 187.8 85.8228 183.226 85.8228 183.226L87.4885 179.014L90.5178 180.644Z" fill="#FFD5B3"/>
<path d="M232.725 131.146L209.714 114.126C209.714 114.126 202.484 108.962 201.312 113.388C200.14 117.815 208.461 118.553 208.461 118.553C208.461 118.553 222.539 141.091 229.6 138.405C236.661 135.72 232.725 131.146 232.725 131.146Z" fill="#F4A28C"/>
<path opacity="0.08" d="M232.725 131.146L209.714 114.126C209.714 114.126 202.484 108.962 201.312 113.388C200.14 117.815 208.461 118.553 208.461 118.553C208.461 118.553 222.539 141.091 229.6 138.405C236.661 135.72 232.725 131.146 232.725 131.146Z" fill="black"/>
<path d="M210.923 158.289L231.428 180.635L234.258 179.411L218.787 151.9L210.923 158.289Z" fill="#F4A28C"/>
<path d="M231.052 180.067C231.052 180.067 231.052 182.848 229.209 184.109C227.366 185.371 229.047 188.034 231.656 185.585C232.461 184.838 233.201 184.024 233.867 183.15C234.511 182.366 235.35 181.765 236.299 181.409C236.476 181.328 236.624 181.195 236.723 181.028C236.822 180.86 236.867 180.666 236.852 180.472C236.933 178.923 233.314 178.259 233.314 178.259L231.052 180.067Z" fill="#FFD5B3"/>
<path d="M224.205 138.355C224.205 138.355 195.57 138.141 199.72 155.109C200.848 159.988 203.046 164.555 206.156 168.478C209.265 172.402 213.207 175.584 217.697 177.794L228.015 158.856L222.34 142.383L224.205 138.355Z" fill="#24285B"/>
<path opacity="0.08" d="M224.205 138.355C224.205 138.355 195.57 138.141 199.72 155.109C200.848 159.988 203.046 164.555 206.156 168.478C209.265 172.402 213.207 175.584 217.697 177.794L228.015 158.856L222.34 142.383L224.205 138.355Z" fill="black"/>
<path d="M240.332 153.574H237.28V179.919H240.332V153.574Z" fill="white"/>
<path d="M248.918 89.7165C248.918 89.7165 251.726 74.6518 265.236 81.4686C275.194 86.4926 265.465 126.559 259.664 147.283C258.668 150.828 256.54 153.95 253.606 156.173C250.672 158.396 247.092 159.598 243.412 159.595H224.359C218.529 159.595 217.49 151.281 223.136 149.843L223.468 149.761C226.755 149.024 230.61 148.404 234.118 147.939C237.087 147.556 239.834 146.161 241.896 143.988C243.958 141.815 245.21 138.998 245.439 136.01L248.918 89.7165Z" fill="white"/>
<path d="M235.378 75.4107C235.365 77.0985 235.575 78.7805 236.005 80.4126C236.07 80.6026 236.171 80.7779 236.304 80.9286C236.436 81.0792 236.597 81.2023 236.777 81.2907C236.957 81.3791 237.153 81.4311 237.353 81.4437C237.553 81.4563 237.754 81.4293 237.943 81.3643C238.567 81.1906 239.127 80.8407 239.557 80.3567C239.987 79.8726 240.269 79.2747 240.368 78.6347L241.068 75.9271C241.152 75.3696 241.061 74.7998 240.808 74.2963C240.554 73.7928 240.151 73.3805 239.653 73.1163C237.855 72.0245 235.305 73.5664 235.378 75.4107Z" fill="#F4A28C"/>
<path d="M241.518 77.5269L242.373 87.4274L236.889 87.5159L238.43 80.4557L241.518 77.5269Z" fill="#F4A28C"/>
<path d="M235.459 77.3204L234.722 78.5525C234.68 78.6224 234.655 78.7019 234.652 78.7837C234.648 78.8655 234.665 78.947 234.701 79.0206C234.737 79.0941 234.791 79.1574 234.858 79.2045C234.924 79.2516 235.002 79.2811 235.084 79.2902L236.255 79.4156L235.459 77.3204Z" fill="#F4A28C"/>
<path opacity="0.31" d="M238.386 80.6565C239.044 80.5303 239.656 80.2268 240.155 79.7786C240.155 79.7786 240.545 81.918 237.943 82.6779L238.386 80.6565Z" fill="#CE8172"/>
<path d="M206.11 153.574V183.91L209.029 184.921L216.223 154.187L206.11 153.574Z" fill="#F4A28C"/>
<path d="M206.221 183.24C206.221 183.24 204.312 185.269 202.13 184.973C199.948 184.678 199.351 187.755 202.911 187.74C204.018 187.739 205.122 187.645 206.213 187.46C207.211 187.32 208.227 187.445 209.161 187.821C209.347 187.881 209.546 187.884 209.733 187.828C209.92 187.773 210.085 187.663 210.208 187.511C211.306 186.419 209.08 183.491 209.08 183.491L206.221 183.24Z" fill="#FFD5B3"/>
<path d="M241.312 77.5577C241.312 77.5577 241.238 76.3921 242.122 76.4143C243.007 76.4364 243.11 78.1184 241.931 78.3693L241.312 77.5577Z" fill="#F4A28C"/>
<path d="M235.998 75.2471C236.962 75.4041 237.945 75.4041 238.909 75.2471C238.909 75.2471 239.528 78.6112 242.196 79.4596C242.196 79.4596 244.724 74.4282 241.621 72.4805C239.027 70.8501 237.088 69.4041 234.951 71.3444C234.642 71.6252 234.417 71.9856 234.299 72.3862C234.182 72.7868 234.177 73.212 234.285 73.6153C234.393 74.0185 234.61 74.3841 234.912 74.6719C235.214 74.9598 235.59 75.1588 235.998 75.2471Z" fill="#24285B"/>
<path d="M243.354 74.0388C245.019 74.0388 246.368 72.6878 246.368 71.0214C246.368 69.3549 245.019 68.004 243.354 68.004C241.689 68.004 240.339 69.3549 240.339 71.0214C240.339 72.6878 241.689 74.0388 243.354 74.0388Z" fill="#24285B"/>
<path d="M238.857 76.9892C238.857 76.9892 238.99 75.6391 240.066 75.8531C241.142 76.067 241.127 77.6384 239.771 78.2581L238.857 76.9892Z" fill="#F4A28C"/>
<path d="M236.506 89.0884L241.864 87.5465C241.864 87.5465 256.171 89.0884 256.023 100.575C255.913 109.089 245.985 140.907 245.985 140.907H224.205V129.701C224.253 124.397 223.011 119.161 220.586 114.445C217.217 108.056 215.456 96.938 236.506 89.0884Z" fill="#FFD5B3"/>
<path d="M232.452 102.744C233.329 92.6518 247.599 91.3977 250.355 101.143C251.829 106.307 252.566 113.759 250.871 124.242C246.81 149.517 198.164 133.095 198.164 133.095V127.104C198.164 127.104 226.91 132.519 233.816 125.142C237.877 120.819 231.745 110.911 232.452 102.744Z" fill="#FFD5B3"/>
<path d="M224.205 135.671L245.985 140.909C245.985 140.909 247.039 150.315 239.462 151.053C231.885 151.79 208.668 149.208 217.697 177.796H199.742C199.742 177.796 188.826 147.076 215.508 140.909C218.743 140.171 224.168 139.551 224.22 136.224L224.205 135.671Z" fill="#24285B"/>
<path d="M126.773 80.0527C122.389 82.7061 118.721 86.3948 116.091 90.796C113.46 95.1971 111.948 100.177 111.686 105.298C110.757 122.045 112.275 140.009 133.481 137.995C154.686 135.981 126.773 80.0527 126.773 80.0527Z" fill="#FFD5B3"/>
<path opacity="0.08" d="M126.773 80.0527C122.389 82.7061 118.721 86.3948 116.091 90.796C113.46 95.1971 111.948 100.177 111.686 105.298C110.757 122.045 112.275 140.009 133.481 137.995C154.686 135.981 126.773 80.0527 126.773 80.0527Z" fill="black"/>
<path d="M139.635 62.5374C139.372 64.4959 139.372 66.4808 139.635 68.4393C139.683 68.6681 139.776 68.8851 139.908 69.0779C140.04 69.2707 140.209 69.4355 140.405 69.563C140.601 69.6905 140.82 69.778 141.049 69.8207C141.279 69.8633 141.515 69.8602 141.743 69.8115C142.489 69.6997 143.186 69.3751 143.752 68.8766C144.318 68.378 144.729 67.7268 144.935 67.0007L146.129 63.9538C146.309 63.3221 146.289 62.6499 146.071 62.0301C145.853 61.4103 145.448 60.8735 144.912 60.4938C142.989 58.9593 139.812 60.3905 139.635 62.5374Z" fill="#F4A28C"/>
<path d="M145.944 64.4846L147.256 76.0008L140.866 76.2737L142.473 67.7823L145.944 64.4846Z" fill="#F4A28C"/>
<path d="M139.458 64.7653L138.419 66.0784C138.359 66.1536 138.319 66.2426 138.303 66.3372C138.287 66.4319 138.295 66.5291 138.327 66.6197C138.359 66.7103 138.413 66.7914 138.484 66.8555C138.556 66.9195 138.642 66.9644 138.736 66.9859L140.07 67.2957L139.458 64.7653Z" fill="#F4A28C"/>
<path opacity="0.31" d="M142.045 69.6282C142.848 69.4648 143.584 69.0668 144.161 68.4847C144.161 68.4847 143.977 70.6021 141.566 72.5866L142.045 69.6282Z" fill="#CE8172"/>
<path d="M133.768 77.2853C133.768 77.2853 161.179 71.1399 170.997 76.6508C180.814 82.1618 161.548 134.084 161.548 134.084L131.277 133.125C131.277 133.125 104.794 82.5601 133.768 77.2853Z" fill="#FFD5B3"/>
<path d="M139.893 182.84C139.893 182.84 138.478 185.385 136.009 185.193C133.54 185.001 132.515 187.281 134.601 188.262C136.687 189.243 142.804 187.34 142.804 187.34L143.328 182.84H139.893Z" fill="#FFD5B3"/>
<path d="M162.064 182.28C162.064 182.28 163.066 185.009 165.543 185.194C168.019 185.378 168.675 187.798 166.464 188.447C164.253 189.096 158.467 186.278 158.467 186.278L158.636 181.756L162.064 182.28Z" fill="#FFD5B3"/>
<path opacity="0.08" d="M157.568 81.469C157.568 81.469 148.885 87.0537 153.308 99.9052C157.73 112.757 158.43 121.934 148.03 118.718C137.63 115.501 138.39 101.137 138.39 101.137L127.783 102.782L126.774 123.159L131.277 133.126L157.568 131.473L168.284 128.736L172.279 115.294L165.005 92.5204L157.568 81.469Z" fill="black"/>
<path d="M131.277 133.124L139.023 182.841H144.08C144.08 182.841 139.392 145.452 147.581 140.937C155.769 136.422 157.376 182.841 157.376 182.841L162.749 182.413L162.683 131.154L131.277 133.124Z" fill="#24285B"/>
<path d="M162.889 75.0196C162.889 75.0196 179.945 72.1424 179.945 99.0036C179.945 125.865 175.847 149.768 136.459 125.813L139.451 121.239C139.451 121.239 160.678 130.579 165.211 122.375C169.744 114.172 147.5 79.5715 162.889 75.0196Z" fill="#FFD5B3"/>
<path opacity="0.46" d="M162.889 75.0196C162.889 75.0196 179.945 72.1424 179.945 99.0036C179.945 125.865 175.847 149.768 136.459 125.813L139.451 121.239C139.451 121.239 160.678 130.579 165.211 122.375C169.744 114.172 147.5 79.5715 162.889 75.0196Z" fill="white"/>
<path d="M131.739 98.9083L117.3 102.544L122.735 124.172L137.174 120.536L131.739 98.9083Z" fill="#FF0000"/>
<path d="M139.503 121.24C139.503 121.24 132.397 115.603 131.277 119.912C130.157 124.22 137.535 124.242 137.535 124.242L139.503 121.24Z" fill="#F4A28C"/>
<path d="M174.254 51.8334C183.906 51.8334 191.73 45.3166 191.73 37.2777C191.73 29.2388 183.906 22.722 174.254 22.722C164.603 22.722 156.779 29.2388 156.779 37.2777C156.779 45.3166 164.603 51.8334 174.254 51.8334Z" fill="#24285B"/>
<path d="M162.064 43.9226L155.843 54.5166L166.088 46.9105L162.064 43.9226Z" fill="#24285B"/>
<path d="M167.37 39.4391C168.563 39.4391 169.53 38.4714 169.53 37.2776C169.53 36.0837 168.563 35.116 167.37 35.116C166.178 35.116 165.211 36.0837 165.211 37.2776C165.211 38.4714 166.178 39.4391 167.37 39.4391Z" fill="white"/>
<path d="M174.291 39.4391C175.484 39.4391 176.451 38.4714 176.451 37.2776C176.451 36.0837 175.484 35.116 174.291 35.116C173.099 35.116 172.132 36.0837 172.132 37.2776C172.132 38.4714 173.099 39.4391 174.291 39.4391Z" fill="white"/>
<path d="M181.139 39.4391C182.331 39.4391 183.298 38.4714 183.298 37.2776C183.298 36.0837 182.331 35.116 181.139 35.116C179.946 35.116 178.979 36.0837 178.979 37.2776C178.979 38.4714 179.946 39.4391 181.139 39.4391Z" fill="white"/>
<path d="M140.32 62.7079C140.581 62.7951 140.847 62.8665 141.116 62.9219C141.5 63.0046 141.873 63.1283 142.229 63.2908L142.517 63.4162C142.72 63.5047 142.893 63.6513 143.014 63.8376C143.134 64.0239 143.197 64.2417 143.195 64.4638C143.195 65.5925 143.549 67.6656 146.276 67.9016C146.276 67.9016 149.047 63.7408 146.829 60.5242C146.176 59.6463 145.336 58.9257 144.369 58.4151C143.403 57.9044 142.334 57.6168 141.242 57.5732C138.271 57.47 137.497 61.7562 140.32 62.7079Z" fill="#24285B"/>
<path d="M60.2469 179.914H63.2983V153.569H60.2469V179.914Z" fill="white"/>
<path d="M51.6604 89.7165C51.6604 89.7165 48.8522 74.6518 35.3789 81.4686C25.4213 86.4926 35.1504 126.559 40.951 147.283C41.9477 150.828 44.0753 153.95 47.0094 156.173C49.9435 158.396 53.5232 159.598 57.2031 159.595H76.2559C82.086 159.595 83.1253 151.281 77.4794 149.843L77.1478 149.761C73.8605 149.024 70.0057 148.404 66.4973 147.939C63.5319 147.552 60.7901 146.154 58.7325 143.982C56.6749 141.809 55.427 138.995 55.1983 136.01L51.6604 89.7165Z" fill="white"/>
<path d="M63.2983 179.92L74.2215 188.545H49.8987L60.2396 179.92H63.2983Z" fill="white"/>
<path d="M61.5221 69.9973C61.9129 71.8988 62.0493 73.8438 61.9275 75.7812C61.86 76.2386 61.6143 76.6506 61.2441 76.9271C60.8739 77.2036 60.4094 77.3221 59.9522 77.2567C59.2101 77.199 58.5002 76.9292 57.907 76.4793C57.3137 76.0294 56.8622 75.4183 56.6059 74.7189L55.2129 71.8195C54.9941 71.208 54.9709 70.5435 55.1466 69.9182C55.3222 69.2929 55.688 68.7378 56.1932 68.33C57.9768 66.7291 61.1757 67.8726 61.5221 69.9973Z" fill="#F4A28C"/>
<path d="M55.4638 72.3719L55.0142 83.7922L61.316 83.593L59.1196 75.3672L55.4638 72.3719Z" fill="#F4A28C"/>
<path d="M60.682 70.2487C59.6267 70.4143 58.5559 70.4589 57.4905 70.3815C57.8552 70.8147 58.0851 71.3452 58.1519 71.9077C58.2187 72.4701 58.1195 73.0398 57.8664 73.5465C57.6306 74.043 57.2294 74.4419 56.7318 74.6748C56.2343 74.9076 55.6712 74.9599 55.1393 74.8227L54.675 70.3963C54.5841 69.7616 54.667 69.1142 54.9149 68.523C55.1629 67.9318 55.5665 67.4191 56.0828 67.0396C56.5314 66.6995 57.0016 66.389 57.4905 66.11C58.7067 65.4387 60.6894 66.11 61.7286 65.0698C61.835 64.9708 61.9649 64.9008 62.1061 64.8665C62.2473 64.8323 62.3948 64.8349 62.5347 64.8742C62.6745 64.9134 62.802 64.988 62.9048 65.0907C63.0075 65.1934 63.0822 65.3209 63.1216 65.4608C63.4828 66.7961 63.4902 68.9503 61.7507 69.8873C61.4171 70.0665 61.0559 70.1887 60.682 70.2487Z" fill="#24285B"/>
<path d="M58.2276 73.397C58.2276 73.397 58.0433 72.0691 57.0557 72.2904C56.068 72.5117 56.3186 74.4372 57.7043 74.452L58.2276 73.397Z" fill="#F4A28C"/>
<path d="M61.861 72.1719L62.9813 73.3892C63.0453 73.4586 63.0907 73.543 63.1133 73.6347C63.1359 73.7263 63.1351 73.8222 63.1108 73.9134C63.0866 74.0047 63.0397 74.0883 62.9745 74.1566C62.9094 74.2249 62.828 74.2755 62.7381 74.304L61.4482 74.7097L61.861 72.1719Z" fill="#F4A28C"/>
<path opacity="0.31" d="M59.7016 77.1449C58.8848 77.0504 58.1149 76.7139 57.4904 76.1785C57.4904 76.1785 57.8295 78.2441 60.3502 80.0221L59.7016 77.1449Z" fill="#CE8172"/>
<path d="M55.0137 83.7907L61.3155 83.5916C61.3155 83.5916 75.15 86.5425 78.5405 104.123C81.9309 121.703 72.2313 137.425 72.2313 137.425L52.3308 137.602C52.3308 137.602 25.9443 86.7638 55.0137 83.7907Z" fill="#FFD5B3"/>
<path d="M52.331 137.603C52.331 137.603 52.5963 149.024 60.3207 150.005C68.045 150.986 85.7343 145.04 87.9455 154.682C90.1566 164.324 85.7343 179.655 85.7343 179.655L91.1222 181.13C91.1222 181.13 103.225 157.95 96.0973 146.958C88.97 135.965 72.2536 137.367 72.2536 137.367L52.331 137.603Z" fill="#24285B"/>
<path opacity="0.08" d="M50.1197 96.4662C50.1197 96.4662 45.0635 110.609 53.805 118.289C62.5465 125.969 67.5658 126.891 63.1287 137.603L72.2314 137.426C72.2314 137.426 77.0148 128.72 77.9804 122.553C78.9459 116.385 50.1197 96.4662 50.1197 96.4662Z" fill="black"/>
<path d="M64.9641 89.5087C60.0553 85.7094 52.67 87.657 50.6136 93.5221C49.9817 95.3473 49.9636 97.3293 50.562 99.1658C52.8985 106.669 56.5838 116.872 70.3446 120.56C84.1054 124.249 95.6477 127.008 96.7533 122.183C97.8588 117.359 94.7853 111.206 83.4863 107.429C75.4524 104.691 71.2069 94.3336 64.9641 89.5087Z" fill="#FFD5B3"/>
<path opacity="0.46" d="M64.9641 89.5087C60.0553 85.7094 52.67 87.657 50.6136 93.5221C49.9817 95.3473 49.9636 97.3293 50.562 99.1658C52.8985 106.669 56.5838 116.872 70.3446 120.56C84.1054 124.249 95.6477 127.008 96.7533 122.183C97.8588 117.359 94.7853 111.206 83.4863 107.429C75.4524 104.691 71.2069 94.3336 64.9641 89.5087Z" fill="white"/>
<path d="M81.1718 106.367C81.1718 106.367 84.9824 103.549 87.9306 106.367C90.8788 109.186 85.0413 113.236 81.1718 106.367Z" fill="#F4A28C"/>
<path opacity="0.08" d="M234.995 97.1017C234.995 97.1017 224.374 100.945 228.015 113.856C231.656 126.766 224.198 128.736 224.198 128.736L233.816 138.15L245.985 140.909L249.795 128.065L234.995 97.1017Z" fill="black"/>
<path d="M99.7087 139.242H94.7557V188.862H99.7087V139.242Z" fill="#A5A5A5"/>
<path d="M202.196 139.242H197.243V188.862H202.196V139.242Z" fill="#A5A5A5"/>
<path d="M206.774 131.464H89.7587V144.529H206.774V131.464Z" fill="white"/>
<path d="M143.254 66.395C143.159 66.2734 143.098 66.1291 143.076 65.9764C143.054 65.8237 143.072 65.6679 143.129 65.5244C143.328 65.0449 143.718 64.4178 144.36 64.5137C145.001 64.6096 145.141 65.6646 144.691 66.3655C144.609 66.4797 144.502 66.5728 144.377 66.637C144.252 66.7012 144.113 66.7347 143.973 66.7347C143.832 66.7347 143.694 66.7012 143.569 66.637C143.444 66.5728 143.336 66.4797 143.254 66.3655V66.395Z" fill="#F4A28C"/>
<path d="M232.452 102.744C233.329 92.6518 247.599 91.3977 250.355 101.143C251.829 106.307 252.566 113.759 250.871 124.242C246.81 149.517 198.164 133.095 198.164 133.095V127.104C198.164 127.104 226.91 132.519 233.816 125.142C237.877 120.819 231.745 110.911 232.452 102.744Z" fill="#F4A28C"/>
<path d="M172.309 131.464L166.007 107.952L169.066 107.296L175.006 127.871L192.202 129.347V131.464H172.309Z" fill="#FF0000"/>
<path d="M198.164 127.136C198.164 127.136 191.855 124.067 189.873 126.523C187.89 128.98 190.182 132.669 198.164 133.126V127.136Z" fill="#F4A28C"/>
<path d="M200.483 126.231L197.645 125.948L196.849 133.935L199.687 134.218L200.483 126.231Z" fill="#FFD5B3"/>
<path d="M237.28 179.92L226.357 188.545H250.68L240.339 179.92H237.28Z" fill="white"/>
<path d="M233.816 90.1592C233.644 89.3632 233.753 88.5321 234.126 87.8081C234.498 87.0841 235.11 86.5121 235.858 86.1901C238.577 84.84 245.027 83.2391 245.985 88.5066C245.985 88.5287 239.993 92.4093 233.816 90.1592Z" fill="#FFD5B3"/>
<path opacity="0.46" d="M233.816 90.1592C233.644 89.3632 233.753 88.5321 234.126 87.8081C234.498 87.0841 235.11 86.5121 235.858 86.1901C238.577 84.84 245.027 83.2391 245.985 88.5066C245.985 88.5287 239.993 92.4093 233.816 90.1592Z" fill="white"/>
</svg>
