<svg width="293" height="293" viewBox="0 0 293 293" fill="none" xmlns="http://www.w3.org/2000/svg">
<g clip-path="url(#clip0_3_1485)">
<path d="M293 0H0V293H293V0Z" fill="white"/>
<path opacity="0.1" d="M293 0V11.9075L178.537 120.64L293 42.5905V61.1374L187.895 125.164L293 80.1531V96.0102L194.083 132.489L293 110.42V124.988L192.847 141.994L293 139.421V153.579L187.438 150.866L293 170.831V185.492L190.86 160.687L293 201.572V217.711L190.057 170.239L293 235.625V254.535L182.463 176.087L293 281.092V293H281.092L172.354 178.537L250.41 293H231.863L167.836 187.895L212.847 293H196.99L160.511 194.083L182.58 293H168.012L151.006 192.853L153.579 293H139.421L142.134 187.432L122.163 293H107.508L132.313 190.854L91.4219 293H75.2893L122.761 190.057L57.3753 293H38.465L116.913 182.463L11.9075 293H0V281.092L114.469 172.354L0 250.41V231.863L105.105 167.836L0 212.847V196.99L98.9168 160.511L0 182.58V168.012L100.147 151.006L0 153.579V139.421L105.562 142.134L0 122.163V107.508L102.146 132.313L0 91.4219V75.2893L102.943 122.761L0 57.3753V38.465L110.537 116.913L0 11.9075V0H11.9075L120.64 114.463L42.5905 0H61.1374L125.164 105.105L80.1531 0H96.0102L132.489 98.9168L110.42 0H124.988L141.994 100.147L139.421 0H153.579L150.866 105.562L170.831 0H185.492L160.687 102.14L201.572 0H217.711L170.239 102.943L235.625 0H254.535L176.087 110.537L281.092 0H293Z" fill="url(#paint0_radial_3_1485)"/>
<path opacity="0.2" d="M293 6.25262L171.194 121.958L173.175 124.97L175.7 127.543L293 47.5539V56.3322L178.361 126.172L180.951 132.6L293 84.6125V91.6387L181.678 132.688L182.305 135.958L183.547 139.04L293 114.622V120.827L182.984 139.509L184.291 146.318L293 143.529V149.471L181.314 146.605L180.588 150.139L180.552 153.743L293 175.009V181.273L183.4 154.651L180.687 161.033L293 205.991V213.193L181.138 161.607L179.275 164.361L177.974 167.42L293 240.483V249.513L177.242 167.356L173.351 173.093L293 286.753V293H286.747L171.042 171.194L168.03 173.175L165.457 175.7L245.446 293H236.668L166.828 178.361L160.4 180.951L208.387 293H201.361L160.312 181.678L157.042 182.305L153.96 183.547L178.378 293H172.173L153.491 182.984L146.682 184.291L149.471 293H143.523L146.395 181.314L142.861 180.588L139.257 180.552L117.991 293H111.727L138.349 183.4L131.967 180.687L87.0093 293H79.8073L131.393 181.138L128.639 179.275L125.58 177.974L52.5173 293H43.4871L125.644 177.242L119.907 173.351L6.24676 293H0V286.747L121.806 171.042L119.825 168.03L117.3 165.457L0 245.446V236.668L114.639 166.828L112.049 160.4L0 208.387V201.361L111.322 160.312L110.695 157.042L109.453 153.96L0 178.378V172.173L110.016 153.491L108.709 146.682L0 149.471V143.523L111.686 146.395L112.412 142.861L112.448 139.257L0 117.991V111.727L109.6 138.349L112.313 131.967L0 87.0093V79.8073L111.862 131.393L113.725 128.639L115.026 125.58L0 52.5173V43.4871L115.753 125.644L119.649 119.907L0 6.24676V0H6.25262L121.958 121.806L124.97 119.825L127.543 117.3L47.5539 0H56.3322L126.172 114.639L132.6 112.049L84.6125 0H91.6387L132.688 111.322L135.958 110.695L139.04 109.453L114.622 0H120.827L139.509 110.016L146.318 108.709L143.529 0H149.477L146.605 111.686L150.139 112.412L153.743 112.448L175.009 0H181.273L154.651 109.6L161.033 112.313L205.991 0H213.193L161.607 111.862L164.361 113.725L167.42 115.026L240.483 0H249.513L167.356 115.753L173.093 119.649L286.753 0H293V6.25262Z" fill="url(#paint1_radial_3_1485)"/>
<path d="M253.55 217.002H48.0461C43.8433 217.002 40.4363 213.577 40.4363 209.353V113.787C40.4363 109.563 43.8433 106.138 48.0461 106.138H253.55C257.753 106.138 261.161 109.563 261.161 113.787V209.353C261.161 213.578 257.753 217.002 253.55 217.002Z" fill="white"/>
<path opacity="0.7" d="M245.506 117.445H242.507L162.427 45.7542C157.943 44.0648 148.901 37.5502 147.201 39.2185L53.2369 117.445H39.4495C35.2467 117.445 31.8397 120.833 31.8397 125.012V219.562C31.8397 223.742 35.2467 227.129 39.4495 227.129H244.954C249.157 227.129 252.564 223.742 252.564 219.562V125.012C252.564 120.833 249.709 117.445 245.506 117.445ZM149.112 41.2121C149.753 40.5833 150.55 40.5833 151.169 41.1892L238.648 117.445H60.0339L149.112 41.2121Z" fill="black"/>
<path d="M252.35 217.002H48.0033C43.8239 217.002 40.4363 213.614 40.4363 209.435V114.885C40.4363 110.705 43.8239 107.318 48.0033 107.318H252.351C256.53 107.318 259.918 110.706 259.918 114.885V209.435C259.918 213.614 256.53 217.002 252.35 217.002Z" fill="#F8EBD1"/>
<path d="M248.502 214.655H48.8367C45.7274 214.655 43.1982 212.125 43.1982 209.016V118.341C43.1982 115.233 45.7274 112.703 48.8367 112.703H248.503C251.611 112.703 254.141 115.232 254.141 118.341V209.015C254.141 212.125 251.611 214.655 248.502 214.655ZM50.3885 115.833C48.5273 115.833 47.0131 117.347 47.0131 119.209V208.148C47.0131 210.009 48.5273 211.524 50.389 211.524H246.951C248.812 211.524 250.327 210.009 250.327 208.148V119.209C250.327 117.347 248.813 115.833 246.952 115.833H50.3885Z" fill="#EACE97"/>
<path d="M251.489 211.668H51.8231C48.7138 211.668 46.1846 209.139 46.1846 206.03V115.355C46.1846 112.246 48.7138 109.717 51.8231 109.717H251.489C254.598 109.717 257.127 112.246 257.127 115.355V206.029C257.127 209.138 254.598 211.668 251.489 211.668ZM52.9096 111.926C51.0291 111.926 49.499 113.456 49.499 115.337V205.414C49.499 207.294 51.0291 208.825 52.9102 208.825H251.507C253.388 208.825 254.918 207.295 254.918 205.414V115.337C254.918 113.456 253.388 111.926 251.508 111.926H52.9096Z" fill="white"/>
<path d="M250.01 213.136H50.3451C47.2358 213.136 44.706 210.606 44.706 207.497V116.822C44.706 113.714 47.2352 111.184 50.3445 111.184H250.01C253.119 111.184 255.649 113.713 255.649 116.822V207.496C255.649 210.606 253.119 213.136 250.01 213.136ZM50.3445 113.394C48.4541 113.394 46.9158 114.932 46.9158 116.822V207.496C46.9158 209.387 48.4541 210.926 50.3451 210.926H250.01C251.901 210.926 253.439 209.387 253.439 207.496V116.822C253.439 114.932 251.902 113.394 250.01 113.394H50.3445Z" fill="#A71E22"/>
<path d="M55.1032 105.644C54.6976 105.644 54.2957 105.466 54.0232 105.125C53.5473 104.529 53.6446 103.66 54.2406 103.184L147.025 39.0853C148.881 37.6039 151.473 37.6039 153.327 39.0853L246.068 103.148C246.664 103.624 246.762 104.493 246.285 105.089C245.81 105.684 244.94 105.782 244.345 105.306L151.604 41.2435C150.763 40.5726 149.589 40.5726 148.749 41.2435L55.964 105.342C55.7091 105.545 55.405 105.644 55.1032 105.644Z" fill="#333333"/>
<path d="M149.387 40.8826C149.166 40.9653 148.95 41.0813 148.751 41.2418L55.9618 105.341C55.7075 105.546 55.404 105.645 55.1057 105.645C54.8238 105.645 54.5425 105.562 54.3046 105.391C54.3322 105.38 54.3544 105.357 54.3767 105.341L147.161 41.2418C147.807 40.7279 148.647 40.6119 149.387 40.8826Z" fill="black"/>
<path opacity="0.3" d="M246.286 105.087C245.828 105.661 245 105.777 244.408 105.352C244.513 105.286 244.613 105.192 244.695 105.087C245.171 104.491 245.076 103.623 244.48 103.148L151.74 39.0877C151.033 38.5187 150.226 38.1706 149.387 38.0382C150.746 37.8172 152.182 38.1653 153.325 39.0877L246.066 103.149C246.662 103.623 246.762 104.491 246.286 105.087Z" fill="#F8EBD1"/>
<path d="M60.3541 106.137H49.3449C49.3449 105.281 49.5436 104.468 49.8916 103.745C50.7812 101.905 52.6646 100.635 54.8521 100.635C57.0338 100.635 58.9178 101.905 59.8068 103.745C60.1607 104.468 60.3541 105.281 60.3541 106.137Z" fill="#F8EBD1"/>
<path d="M60.3541 106.137H49.3449C49.3449 105.281 49.5436 104.468 49.8916 103.745H59.8068C60.1607 104.468 60.3541 105.281 60.3541 106.137Z" fill="#EACE97"/>
<path d="M251.01 106.137H240.001C240.001 105.281 240.194 104.468 240.548 103.745C241.437 101.905 243.321 100.635 245.508 100.635C247.69 100.635 249.574 101.905 250.463 103.745C250.812 104.468 251.01 105.281 251.01 106.137Z" fill="#F8EBD1"/>
<path d="M251.01 106.137H240.001C240.001 105.281 240.194 104.468 240.548 103.745H250.463C250.812 104.468 251.01 105.281 251.01 106.137Z" fill="#EACE97"/>
<path d="M155.015 39.8419C155.652 37.157 153.991 34.4647 151.306 33.8284C148.621 33.1921 145.929 34.8528 145.293 37.5376C144.656 40.2224 146.317 42.9148 149.002 43.5511C151.687 44.1874 154.379 42.5267 155.015 39.8419Z" fill="#F8EBD1"/>
<path d="M155.148 38.6849C155.148 41.4385 152.915 43.6776 150.156 43.6776C147.396 43.6776 145.157 41.4379 145.157 38.6849C145.157 38.3297 145.195 37.9869 145.264 37.6506C145.74 39.9155 147.751 41.6154 150.156 41.6154C152.56 41.6154 154.565 39.9155 155.041 37.6506C155.11 37.9869 155.148 38.3297 155.148 38.6849Z" fill="#EACE97"/>
<path d="M80.5738 187.223H82.3516L85.9073 193.207H86.0575L89.6132 187.223H91.391L86.7586 194.76V200.043H85.2062V194.76L80.5738 187.223ZM103.614 193.633C103.614 194.985 103.369 196.154 102.881 197.139C102.393 198.124 101.723 198.883 100.872 199.417C100.02 199.951 99.0479 200.219 97.9545 200.219C96.8611 200.219 95.8887 199.951 95.0374 199.417C94.186 198.883 93.5162 198.124 93.028 197.139C92.5397 196.154 92.2955 194.985 92.2955 193.633C92.2955 192.281 92.5397 191.112 93.028 190.128C93.5162 189.143 94.186 188.383 95.0374 187.849C95.8887 187.315 96.8611 187.048 97.9545 187.048C99.0479 187.048 100.02 187.315 100.872 187.849C101.723 188.383 102.393 189.143 102.881 190.128C103.369 191.112 103.614 192.281 103.614 193.633ZM102.111 193.633C102.111 192.523 101.925 191.586 101.554 190.822C101.187 190.059 100.688 189.481 100.058 189.088C99.4319 188.696 98.7308 188.5 97.9545 188.5C97.1783 188.5 96.4751 188.696 95.8449 189.088C95.2189 189.481 94.7202 190.059 94.3488 190.822C93.9816 191.586 93.7979 192.523 93.7979 193.633C93.7979 194.743 93.9816 195.68 94.3488 196.444C94.7202 197.208 95.2189 197.786 95.8449 198.178C96.4751 198.57 97.1783 198.766 97.9545 198.766C98.7308 198.766 99.4319 198.57 100.058 198.178C100.688 197.786 101.187 197.208 101.554 196.444C101.925 195.68 102.111 194.743 102.111 193.633ZM114.637 187.223H116.19V195.711C116.19 196.588 115.983 197.37 115.57 198.059C115.161 198.743 114.583 199.284 113.836 199.68C113.089 200.072 112.213 200.269 111.207 200.269C110.201 200.269 109.325 200.072 108.578 199.68C107.831 199.284 107.251 198.743 106.837 198.059C106.428 197.37 106.224 196.588 106.224 195.711V187.223H107.776V195.586C107.776 196.212 107.914 196.769 108.19 197.258C108.465 197.742 108.857 198.124 109.366 198.403C109.88 198.679 110.493 198.816 111.207 198.816C111.92 198.816 112.534 198.679 113.047 198.403C113.561 198.124 113.953 197.742 114.224 197.258C114.5 196.769 114.637 196.212 114.637 195.586V187.223ZM119.29 200.043V187.223H123.622C124.623 187.223 125.446 187.394 126.088 187.736C126.731 188.074 127.207 188.54 127.515 189.132C127.824 189.725 127.979 190.399 127.979 191.154C127.979 191.91 127.824 192.579 127.515 193.164C127.207 193.748 126.733 194.207 126.094 194.541C125.456 194.87 124.64 195.035 123.647 195.035H120.141V193.633H123.597C124.281 193.633 124.832 193.533 125.249 193.333C125.671 193.132 125.976 192.849 126.163 192.481C126.355 192.11 126.451 191.667 126.451 191.154C126.451 190.641 126.355 190.192 126.163 189.808C125.971 189.424 125.665 189.128 125.243 188.919C124.822 188.707 124.264 188.6 123.572 188.6H120.842V200.043H119.29ZM125.325 194.284L128.48 200.043H126.677L123.572 194.284H125.325ZM135.524 200.043V187.223H140.006C140.899 187.223 141.635 187.377 142.215 187.686C142.795 187.991 143.227 188.402 143.511 188.919C143.795 189.433 143.937 190.002 143.937 190.628C143.937 191.179 143.839 191.634 143.643 191.993C143.451 192.352 143.196 192.636 142.879 192.844C142.566 193.053 142.226 193.207 141.859 193.308V193.433C142.251 193.458 142.645 193.596 143.042 193.846C143.438 194.096 143.77 194.455 144.037 194.923C144.304 195.39 144.438 195.962 144.438 196.638C144.438 197.281 144.292 197.859 143.999 198.372C143.707 198.885 143.246 199.292 142.616 199.593C141.986 199.893 141.166 200.043 140.156 200.043H135.524ZM137.076 198.666H140.156C141.17 198.666 141.89 198.47 142.316 198.078C142.745 197.681 142.96 197.201 142.96 196.638C142.96 196.204 142.85 195.803 142.629 195.436C142.407 195.065 142.092 194.768 141.683 194.547C141.274 194.322 140.79 194.209 140.231 194.209H137.076V198.666ZM137.076 192.857H139.956C140.423 192.857 140.844 192.765 141.22 192.581C141.6 192.398 141.9 192.139 142.121 191.805C142.347 191.471 142.46 191.079 142.46 190.628C142.46 190.065 142.263 189.587 141.871 189.195C141.479 188.798 140.857 188.6 140.006 188.6H137.076V192.857ZM155.402 187.223H156.954V195.711C156.954 196.588 156.748 197.37 156.335 198.059C155.926 198.743 155.348 199.284 154.601 199.68C153.854 200.072 152.977 200.269 151.971 200.269C150.966 200.269 150.089 200.072 149.342 199.68C148.595 199.284 148.015 198.743 147.602 198.059C147.193 197.37 146.989 196.588 146.989 195.711V187.223H148.541V195.586C148.541 196.212 148.679 196.769 148.954 197.258C149.23 197.742 149.622 198.124 150.131 198.403C150.644 198.679 151.258 198.816 151.971 198.816C152.685 198.816 153.299 198.679 153.812 198.403C154.325 198.124 154.718 197.742 154.989 197.258C155.264 196.769 155.402 196.212 155.402 195.586V187.223ZM167.066 190.428C166.991 189.794 166.686 189.301 166.152 188.951C165.618 188.6 164.962 188.425 164.186 188.425C163.619 188.425 163.122 188.517 162.696 188.7C162.275 188.884 161.945 189.136 161.707 189.458C161.474 189.779 161.357 190.144 161.357 190.553C161.357 190.895 161.438 191.19 161.601 191.436C161.768 191.678 161.981 191.88 162.239 192.043C162.498 192.202 162.769 192.333 163.053 192.437C163.337 192.538 163.598 192.619 163.836 192.682L165.138 193.032C165.472 193.12 165.843 193.241 166.252 193.395C166.665 193.55 167.059 193.76 167.435 194.027C167.815 194.29 168.128 194.628 168.374 195.042C168.62 195.455 168.743 195.962 168.743 196.563C168.743 197.256 168.562 197.882 168.199 198.441C167.84 199 167.314 199.444 166.621 199.774C165.933 200.104 165.096 200.269 164.111 200.269C163.193 200.269 162.398 200.12 161.726 199.824C161.058 199.528 160.532 199.115 160.149 198.585C159.769 198.055 159.554 197.439 159.504 196.738H161.106C161.148 197.222 161.311 197.623 161.595 197.94C161.883 198.253 162.246 198.487 162.684 198.641C163.126 198.791 163.602 198.866 164.111 198.866C164.704 198.866 165.236 198.77 165.707 198.578C166.179 198.382 166.552 198.111 166.828 197.765C167.103 197.414 167.241 197.005 167.241 196.538C167.241 196.112 167.122 195.766 166.884 195.499C166.646 195.231 166.333 195.014 165.945 194.848C165.557 194.681 165.138 194.535 164.687 194.409L163.109 193.959C162.108 193.671 161.315 193.26 160.731 192.725C160.146 192.191 159.854 191.492 159.854 190.628C159.854 189.911 160.048 189.285 160.436 188.75C160.829 188.212 161.355 187.795 162.014 187.498C162.678 187.198 163.418 187.048 164.236 187.048C165.063 187.048 165.797 187.196 166.44 187.492C167.082 187.784 167.592 188.185 167.967 188.694C168.347 189.203 168.547 189.781 168.568 190.428H167.066ZM172.848 187.223V200.043H171.296V187.223H172.848ZM186.127 187.223V200.043H184.625L177.639 189.977H177.514V200.043H175.961V187.223H177.463L184.475 197.314H184.6V187.223H186.127ZM189.234 200.043V187.223H196.971V188.6H190.786V192.932H196.57V194.309H190.786V198.666H197.071V200.043H189.234ZM206.78 190.428C206.705 189.794 206.401 189.301 205.866 188.951C205.332 188.6 204.677 188.425 203.901 188.425C203.333 188.425 202.837 188.517 202.411 188.7C201.989 188.884 201.66 189.136 201.422 189.458C201.188 189.779 201.071 190.144 201.071 190.553C201.071 190.895 201.153 191.19 201.315 191.436C201.482 191.678 201.695 191.88 201.954 192.043C202.213 192.202 202.484 192.333 202.768 192.437C203.051 192.538 203.312 192.619 203.55 192.682L204.852 193.032C205.186 193.12 205.558 193.241 205.967 193.395C206.38 193.55 206.774 193.76 207.15 194.027C207.529 194.29 207.842 194.628 208.089 195.042C208.335 195.455 208.458 195.962 208.458 196.563C208.458 197.256 208.276 197.882 207.913 198.441C207.554 199 207.029 199.444 206.336 199.774C205.647 200.104 204.811 200.269 203.826 200.269C202.908 200.269 202.113 200.12 201.441 199.824C200.773 199.528 200.247 199.115 199.863 198.585C199.483 198.055 199.268 197.439 199.218 196.738H200.821C200.863 197.222 201.025 197.623 201.309 197.94C201.597 198.253 201.96 198.487 202.398 198.641C202.841 198.791 203.316 198.866 203.826 198.866C204.418 198.866 204.95 198.77 205.422 198.578C205.893 198.382 206.267 198.111 206.542 197.765C206.818 197.414 206.956 197.005 206.956 196.538C206.956 196.112 206.837 195.766 206.599 195.499C206.361 195.231 206.048 195.014 205.66 194.848C205.272 194.681 204.852 194.535 204.402 194.409L202.824 193.959C201.822 193.671 201.03 193.26 200.445 192.725C199.861 192.191 199.569 191.492 199.569 190.628C199.569 189.911 199.763 189.285 200.151 188.75C200.543 188.212 201.069 187.795 201.729 187.498C202.392 187.198 203.133 187.048 203.951 187.048C204.777 187.048 205.512 187.196 206.154 187.492C206.797 187.784 207.306 188.185 207.682 188.694C208.062 189.203 208.262 189.781 208.283 190.428H206.78ZM218.022 190.428C217.946 189.794 217.642 189.301 217.108 188.951C216.573 188.6 215.918 188.425 215.142 188.425C214.574 188.425 214.078 188.517 213.652 188.7C213.231 188.884 212.901 189.136 212.663 189.458C212.429 189.779 212.313 190.144 212.313 190.553C212.313 190.895 212.394 191.19 212.557 191.436C212.724 191.678 212.936 191.88 213.195 192.043C213.454 192.202 213.725 192.333 214.009 192.437C214.293 192.538 214.554 192.619 214.791 192.682L216.094 193.032C216.427 193.12 216.799 193.241 217.208 193.395C217.621 193.55 218.015 193.76 218.391 194.027C218.771 194.29 219.084 194.628 219.33 195.042C219.576 195.455 219.699 195.962 219.699 196.563C219.699 197.256 219.518 197.882 219.155 198.441C218.796 199 218.27 199.444 217.577 199.774C216.889 200.104 216.052 200.269 215.067 200.269C214.149 200.269 213.354 200.12 212.682 199.824C212.014 199.528 211.488 199.115 211.104 198.585C210.725 198.055 210.51 197.439 210.46 196.738H212.062C212.104 197.222 212.267 197.623 212.55 197.94C212.838 198.253 213.201 198.487 213.64 198.641C214.082 198.791 214.558 198.866 215.067 198.866C215.66 198.866 216.192 198.77 216.663 198.578C217.135 198.382 217.508 198.111 217.784 197.765C218.059 197.414 218.197 197.005 218.197 196.538C218.197 196.112 218.078 195.766 217.84 195.499C217.602 195.231 217.289 195.014 216.901 194.848C216.513 194.681 216.094 194.535 215.643 194.409L214.065 193.959C213.064 193.671 212.271 193.26 211.687 192.725C211.102 192.191 210.81 191.492 210.81 190.628C210.81 189.911 211.004 189.285 211.392 188.75C211.785 188.212 212.31 187.795 212.97 187.498C213.633 187.198 214.374 187.048 215.192 187.048C216.018 187.048 216.753 187.196 217.396 187.492C218.038 187.784 218.547 188.185 218.923 188.694C219.303 189.203 219.503 189.781 219.524 190.428H218.022Z" fill="#EACE97"/>
<path d="M81.981 185.816H83.7589L87.3145 191.8H87.4648L91.0204 185.816H92.7982L88.1659 193.353V198.636H86.6134V193.353L81.981 185.816ZM105.021 192.226C105.021 193.578 104.777 194.747 104.288 195.732C103.8 196.716 103.13 197.476 102.279 198.01C101.428 198.544 100.455 198.811 99.3618 198.811C98.2684 198.811 97.296 198.544 96.4446 198.01C95.5933 197.476 94.9235 196.716 94.4352 195.732C93.9469 194.747 93.7028 193.578 93.7028 192.226C93.7028 190.874 93.9469 189.705 94.4352 188.72C94.9235 187.736 95.5933 186.976 96.4446 186.442C97.296 185.908 98.2684 185.641 99.3618 185.641C100.455 185.641 101.428 185.908 102.279 186.442C103.13 186.976 103.8 187.736 104.288 188.72C104.777 189.705 105.021 190.874 105.021 192.226ZM103.518 192.226C103.518 191.116 103.333 190.179 102.961 189.415C102.594 188.652 102.095 188.074 101.465 187.681C100.839 187.289 100.138 187.093 99.3618 187.093C98.5855 187.093 97.8823 187.289 97.2522 187.681C96.6262 188.074 96.1275 188.652 95.756 189.415C95.3888 190.179 95.2052 191.116 95.2052 192.226C95.2052 193.336 95.3888 194.273 95.756 195.037C96.1275 195.8 96.6262 196.378 97.2522 196.771C97.8823 197.163 98.5855 197.359 99.3618 197.359C100.138 197.359 100.839 197.163 101.465 196.771C102.095 196.378 102.594 195.8 102.961 195.037C103.333 194.273 103.518 193.336 103.518 192.226ZM116.044 185.816H117.597V194.304C117.597 195.181 117.39 195.963 116.977 196.652C116.568 197.336 115.99 197.877 115.243 198.273C114.496 198.665 113.62 198.862 112.614 198.862C111.608 198.862 110.732 198.665 109.985 198.273C109.238 197.877 108.658 197.336 108.245 196.652C107.836 195.963 107.631 195.181 107.631 194.304V185.816H109.184V194.179C109.184 194.805 109.321 195.362 109.597 195.85C109.872 196.335 110.264 196.716 110.774 196.996C111.287 197.272 111.9 197.409 112.614 197.409C113.328 197.409 113.941 197.272 114.454 196.996C114.968 196.716 115.36 196.335 115.631 195.85C115.907 195.362 116.044 194.805 116.044 194.179V185.816ZM120.697 198.636V185.816H125.029C126.031 185.816 126.853 185.987 127.495 186.329C128.138 186.667 128.614 187.132 128.923 187.725C129.232 188.318 129.386 188.992 129.386 189.747C129.386 190.502 129.232 191.172 128.923 191.757C128.614 192.341 128.14 192.8 127.502 193.134C126.863 193.463 126.047 193.628 125.054 193.628H121.549V192.226H125.004C125.688 192.226 126.239 192.126 126.657 191.926C127.078 191.725 127.383 191.441 127.571 191.074C127.763 190.703 127.859 190.26 127.859 189.747C127.859 189.234 127.763 188.785 127.571 188.401C127.379 188.017 127.072 187.721 126.65 187.512C126.229 187.299 125.672 187.193 124.979 187.193H122.25V198.636H120.697ZM126.732 192.877L129.887 198.636H128.084L124.979 192.877H126.732ZM136.931 198.636V185.816H141.413C142.306 185.816 143.043 185.97 143.623 186.279C144.203 186.584 144.635 186.995 144.918 187.512C145.202 188.026 145.344 188.595 145.344 189.221C145.344 189.772 145.246 190.227 145.05 190.586C144.858 190.945 144.603 191.229 144.286 191.437C143.973 191.646 143.633 191.8 143.266 191.9V192.026C143.658 192.051 144.052 192.188 144.449 192.439C144.845 192.689 145.177 193.048 145.444 193.516C145.711 193.983 145.845 194.555 145.845 195.231C145.845 195.873 145.699 196.451 145.407 196.965C145.115 197.478 144.653 197.885 144.023 198.185C143.393 198.486 142.573 198.636 141.563 198.636H136.931ZM138.483 197.259H141.563C142.577 197.259 143.297 197.063 143.723 196.671C144.153 196.274 144.368 195.794 144.368 195.231C144.368 194.797 144.257 194.396 144.036 194.029C143.815 193.657 143.499 193.361 143.091 193.14C142.682 192.915 142.197 192.802 141.638 192.802H138.483V197.259ZM138.483 191.45H141.363C141.83 191.45 142.252 191.358 142.627 191.174C143.007 190.991 143.308 190.732 143.529 190.398C143.754 190.064 143.867 189.672 143.867 189.221C143.867 188.658 143.671 188.18 143.278 187.788C142.886 187.391 142.264 187.193 141.413 187.193H138.483V191.45ZM156.809 185.816H158.362V194.304C158.362 195.181 158.155 195.963 157.742 196.652C157.333 197.336 156.755 197.877 156.008 198.273C155.261 198.665 154.384 198.862 153.379 198.862C152.373 198.862 151.497 198.665 150.75 198.273C150.003 197.877 149.422 197.336 149.009 196.652C148.6 195.963 148.396 195.181 148.396 194.304V185.816H149.948V194.179C149.948 194.805 150.086 195.362 150.361 195.85C150.637 196.335 151.029 196.716 151.538 196.996C152.052 197.272 152.665 197.409 153.379 197.409C154.092 197.409 154.706 197.272 155.219 196.996C155.732 196.716 156.125 196.335 156.396 195.85C156.671 195.362 156.809 194.805 156.809 194.179V185.816ZM168.473 189.021C168.398 188.387 168.093 187.894 167.559 187.544C167.025 187.193 166.37 187.018 165.593 187.018C165.026 187.018 164.529 187.11 164.104 187.293C163.682 187.477 163.352 187.729 163.114 188.051C162.881 188.372 162.764 188.737 162.764 189.146C162.764 189.488 162.845 189.783 163.008 190.029C163.175 190.271 163.388 190.473 163.647 190.636C163.905 190.795 164.177 190.926 164.46 191.03C164.744 191.131 165.005 191.212 165.243 191.274L166.545 191.625C166.879 191.713 167.25 191.834 167.659 191.988C168.072 192.143 168.467 192.353 168.842 192.62C169.222 192.883 169.535 193.221 169.781 193.634C170.028 194.048 170.151 194.555 170.151 195.156C170.151 195.848 169.969 196.474 169.606 197.034C169.247 197.593 168.721 198.037 168.029 198.367C167.34 198.697 166.503 198.862 165.518 198.862C164.6 198.862 163.805 198.713 163.133 198.417C162.466 198.121 161.94 197.708 161.556 197.178C161.176 196.648 160.961 196.032 160.911 195.331H162.514C162.555 195.815 162.718 196.216 163.002 196.533C163.29 196.846 163.653 197.08 164.091 197.234C164.533 197.384 165.009 197.459 165.518 197.459C166.111 197.459 166.643 197.363 167.115 197.171C167.586 196.975 167.96 196.704 168.235 196.358C168.511 196.007 168.648 195.598 168.648 195.131C168.648 194.705 168.529 194.359 168.291 194.091C168.054 193.824 167.741 193.607 167.352 193.44C166.964 193.273 166.545 193.127 166.094 193.002L164.517 192.552C163.515 192.264 162.722 191.852 162.138 191.318C161.554 190.784 161.262 190.085 161.262 189.221C161.262 188.503 161.456 187.877 161.844 187.343C162.236 186.805 162.762 186.388 163.421 186.091C164.085 185.791 164.826 185.641 165.643 185.641C166.47 185.641 167.204 185.789 167.847 186.085C168.49 186.377 168.999 186.778 169.374 187.287C169.754 187.796 169.954 188.374 169.975 189.021H168.473ZM174.256 185.816V198.636H172.703V185.816H174.256ZM187.534 185.816V198.636H186.032L179.046 188.57H178.921V198.636H177.368V185.816H178.871L185.882 195.907H186.007V185.816H187.534ZM190.641 198.636V185.816H198.378V187.193H192.193V191.525H197.978V192.902H192.193V197.259H198.478V198.636H190.641ZM208.188 189.021C208.112 188.387 207.808 187.894 207.274 187.544C206.739 187.193 206.084 187.018 205.308 187.018C204.74 187.018 204.244 187.11 203.818 187.293C203.397 187.477 203.067 187.729 202.829 188.051C202.595 188.372 202.478 188.737 202.478 189.146C202.478 189.488 202.56 189.783 202.723 190.029C202.89 190.271 203.102 190.473 203.361 190.636C203.62 190.795 203.891 190.926 204.175 191.03C204.459 191.131 204.72 191.212 204.957 191.274L206.259 191.625C206.593 191.713 206.965 191.834 207.374 191.988C207.787 192.143 208.181 192.353 208.557 192.62C208.937 192.883 209.25 193.221 209.496 193.634C209.742 194.048 209.865 194.555 209.865 195.156C209.865 195.848 209.684 196.474 209.321 197.034C208.962 197.593 208.436 198.037 207.743 198.367C207.055 198.697 206.218 198.862 205.233 198.862C204.315 198.862 203.52 198.713 202.848 198.417C202.18 198.121 201.654 197.708 201.27 197.178C200.891 196.648 200.676 196.032 200.626 195.331H202.228C202.27 195.815 202.433 196.216 202.716 196.533C203.004 196.846 203.367 197.08 203.806 197.234C204.248 197.384 204.724 197.459 205.233 197.459C205.825 197.459 206.358 197.363 206.829 197.171C207.301 196.975 207.674 196.704 207.95 196.358C208.225 196.007 208.363 195.598 208.363 195.131C208.363 194.705 208.244 194.359 208.006 194.091C207.768 193.824 207.455 193.607 207.067 193.44C206.679 193.273 206.259 193.127 205.809 193.002L204.231 192.552C203.23 192.264 202.437 191.852 201.852 191.318C201.268 190.784 200.976 190.085 200.976 189.221C200.976 188.503 201.17 187.877 201.558 187.343C201.951 186.805 202.476 186.388 203.136 186.091C203.799 185.791 204.54 185.641 205.358 185.641C206.184 185.641 206.919 185.789 207.562 186.085C208.204 186.377 208.713 186.778 209.089 187.287C209.469 187.796 209.669 188.374 209.69 189.021H208.188ZM219.429 189.021C219.354 188.387 219.049 187.894 218.515 187.544C217.981 187.193 217.325 187.018 216.549 187.018C215.982 187.018 215.485 187.11 215.059 187.293C214.638 187.477 214.308 187.729 214.07 188.051C213.837 188.372 213.72 188.737 213.72 189.146C213.72 189.488 213.801 189.783 213.964 190.029C214.131 190.271 214.344 190.473 214.602 190.636C214.861 190.795 215.132 190.926 215.416 191.03C215.7 191.131 215.961 191.212 216.199 191.274L217.501 191.625C217.835 191.713 218.206 191.834 218.615 191.988C219.028 192.143 219.423 192.353 219.798 192.62C220.178 192.883 220.491 193.221 220.737 193.634C220.983 194.048 221.106 194.555 221.106 195.156C221.106 195.848 220.925 196.474 220.562 197.034C220.203 197.593 219.677 198.037 218.984 198.367C218.296 198.697 217.459 198.862 216.474 198.862C215.556 198.862 214.761 198.713 214.089 198.417C213.421 198.121 212.896 197.708 212.512 197.178C212.132 196.648 211.917 196.032 211.867 195.331H213.469C213.511 195.815 213.674 196.216 213.958 196.533C214.246 196.846 214.609 197.08 215.047 197.234C215.489 197.384 215.965 197.459 216.474 197.459C217.067 197.459 217.599 197.363 218.07 197.171C218.542 196.975 218.916 196.704 219.191 196.358C219.466 196.007 219.604 195.598 219.604 195.131C219.604 194.705 219.485 194.359 219.247 194.091C219.009 193.824 218.696 193.607 218.308 193.44C217.92 193.273 217.501 193.127 217.05 193.002L215.473 192.552C214.471 192.264 213.678 191.852 213.094 191.318C212.51 190.784 212.217 190.085 212.217 189.221C212.217 188.503 212.411 187.877 212.8 187.343C213.192 186.805 213.718 186.388 214.377 186.091C215.041 185.791 215.781 185.641 216.599 185.641C217.426 185.641 218.16 185.789 218.803 186.085C219.446 186.377 219.955 186.778 220.33 187.287C220.71 187.796 220.91 188.374 220.931 189.021H219.429Z" fill="#A71E22"/>
<path d="M117.345 152.544C117.345 155.997 116.721 158.982 115.474 161.497C114.227 164.013 112.516 165.953 110.342 167.317C108.167 168.682 105.684 169.364 102.891 169.364C100.098 169.364 97.6147 168.682 95.4402 167.317C93.2657 165.953 91.5549 164.013 90.3078 161.497C89.0607 158.982 88.4371 155.997 88.4371 152.544C88.4371 149.09 89.0607 146.106 90.3078 143.59C91.5549 141.074 93.2657 139.134 95.4402 137.77C97.6147 136.406 100.098 135.723 102.891 135.723C105.684 135.723 108.167 136.406 110.342 137.77C112.516 139.134 114.227 141.074 115.474 143.59C116.721 146.106 117.345 149.09 117.345 152.544ZM113.508 152.544C113.508 149.708 113.033 147.315 112.085 145.365C111.147 143.414 109.873 141.938 108.263 140.936C106.664 139.934 104.874 139.433 102.891 139.433C100.908 139.433 99.1123 139.934 97.5028 140.936C95.9039 141.938 94.6301 143.414 93.6814 145.365C92.7434 147.315 92.2744 149.708 92.2744 152.544C92.2744 155.379 92.7434 157.772 93.6814 159.723C94.6301 161.673 95.9039 163.15 97.5028 164.152C99.1123 165.154 100.908 165.655 102.891 165.655C104.874 165.655 106.664 165.154 108.263 164.152C109.873 163.15 111.147 161.673 112.085 159.723C113.033 157.772 113.508 155.379 113.508 152.544ZM124.012 168.916V136.171H135.076C137.645 136.171 139.745 136.635 141.376 137.562C143.018 138.479 144.233 139.721 145.021 141.288C145.81 142.854 146.205 144.603 146.205 146.532C146.205 148.461 145.81 150.215 145.021 151.792C144.243 153.37 143.039 154.628 141.408 155.566C139.777 156.493 137.688 156.957 135.14 156.957H127.21V153.439H135.012C136.771 153.439 138.184 153.135 139.25 152.528C140.315 151.92 141.088 151.099 141.568 150.065C142.058 149.021 142.303 147.843 142.303 146.532C142.303 145.221 142.058 144.048 141.568 143.014C141.088 141.98 140.31 141.17 139.234 140.584C138.157 139.987 136.729 139.689 134.949 139.689H127.977V168.916H124.012ZM152.592 168.916V136.171H172.354V139.689H156.557V150.753H171.331V154.271H156.557V165.399H172.61V168.916H152.592ZM205.467 136.171V168.916H201.63L183.786 143.206H183.467V168.916H179.501V136.171H183.339L201.246 161.945H201.566V136.171H205.467Z" fill="#EACE97"/>
<path d="M120.72 149.169C120.72 152.623 120.096 155.607 118.849 158.123C117.602 160.638 115.891 162.578 113.717 163.943C111.542 165.307 109.059 165.989 106.266 165.989C103.473 165.989 100.99 165.307 98.8151 163.943C96.6407 162.578 94.9299 160.638 93.6827 158.123C92.4356 155.607 91.812 152.623 91.812 149.169C91.812 145.716 92.4356 142.731 93.6827 140.215C94.9299 137.7 96.6407 135.76 98.8151 134.395C100.99 133.031 103.473 132.349 106.266 132.349C109.059 132.349 111.542 133.031 113.717 134.395C115.891 135.76 117.602 137.7 118.849 140.215C120.096 142.731 120.72 145.716 120.72 149.169ZM116.882 149.169C116.882 146.334 116.408 143.941 115.459 141.99C114.521 140.04 113.248 138.563 111.638 137.561C110.039 136.559 108.249 136.058 106.266 136.058C104.283 136.058 102.487 136.559 100.878 137.561C99.2788 138.563 98.005 140.04 97.0564 141.99C96.1184 143.941 95.6494 146.334 95.6494 149.169C95.6494 152.004 96.1184 154.397 97.0564 156.348C98.005 158.299 99.2788 159.775 100.878 160.777C102.487 161.779 104.283 162.28 106.266 162.28C108.249 162.28 110.039 161.779 111.638 160.777C113.248 159.775 114.521 158.299 115.459 156.348C116.408 154.397 116.882 152.004 116.882 149.169ZM127.387 165.542V132.797H138.451C141.02 132.797 143.12 133.26 144.751 134.188C146.392 135.104 147.608 136.346 148.396 137.913C149.185 139.48 149.58 141.228 149.58 143.157C149.58 145.087 149.185 146.84 148.396 148.418C147.618 149.995 146.414 151.253 144.783 152.191C143.152 153.118 141.063 153.582 138.515 153.582H130.585V150.065H138.387C140.146 150.065 141.559 149.761 142.624 149.153C143.69 148.546 144.463 147.725 144.943 146.691C145.433 145.646 145.678 144.468 145.678 143.157C145.678 141.846 145.433 140.674 144.943 139.64C144.463 138.606 143.685 137.796 142.608 137.21C141.532 136.613 140.104 136.314 138.323 136.314H131.352V165.542H127.387ZM155.967 165.542V132.797H175.729V136.314H159.932V147.378H174.706V150.896H159.932V162.024H175.985V165.542H155.967ZM208.842 132.797V165.542H205.005L187.161 139.832H186.842V165.542H182.876V132.797H186.714L204.621 158.571H204.941V132.797H208.842Z" fill="#A71E22"/>
</g>
<defs>
<radialGradient id="paint0_radial_3_1485" cx="0" cy="0" r="1" gradientUnits="userSpaceOnUse" gradientTransform="translate(146.5 146.5) rotate(90) scale(146.5)">
<stop offset="0.64" stop-color="#F16722"/>
<stop offset="1" stop-color="#F16722" stop-opacity="0"/>
</radialGradient>
<radialGradient id="paint1_radial_3_1485" cx="0" cy="0" r="1" gradientUnits="userSpaceOnUse" gradientTransform="translate(146.5 150.82) rotate(-90) scale(150.82)">
<stop stop-color="#F16722"/>
<stop offset="1" stop-color="white"/>
</radialGradient>
<clipPath id="clip0_3_1485">
<rect width="293" height="293" fill="white"/>
</clipPath>
</defs>
</svg>
