<svg width="578" height="643" viewBox="0 0 578 643" fill="none" xmlns="http://www.w3.org/2000/svg">
<path opacity="0.45" d="M434.577 583.563C636.301 583.563 799.831 570.73 799.831 554.9C799.831 539.069 636.301 526.236 434.577 526.236C232.853 526.236 69.3233 539.069 69.3233 554.9C69.3233 570.73 232.853 583.563 434.577 583.563Z" fill="white"/>
<path d="M231.492 522.872C231.492 522.872 231.62 531.313 238.197 534.226C244.774 537.14 244.281 544.381 237.597 544.016C230.913 543.652 217.846 530.37 217.846 530.37L222.794 518.159L231.492 522.872Z" fill="#FFD5B3"/>
<path d="M205.656 434.225C205.656 434.225 244.967 435.96 240.682 462.631C236.398 489.302 219.045 518.158 219.045 518.158L234.17 524.478C234.17 524.478 264.161 490.031 267.096 447.528C270.031 405.026 209.769 414.516 205.656 434.225Z" fill="#24285B"/>
<path opacity="0.08" d="M205.656 434.225C205.656 434.225 244.967 435.96 240.682 462.631C236.398 489.302 219.045 518.158 219.045 518.158L234.17 524.478C234.17 524.478 264.161 490.031 267.096 447.528C270.031 405.026 209.769 414.516 205.656 434.225Z" fill="black"/>
<path d="M178.471 272.915C164.204 261.882 142.739 267.538 136.762 284.569C134.925 289.869 134.872 295.624 136.612 300.957C143.403 322.743 154.114 352.371 194.088 363.082C234.063 373.793 267.653 381.805 270.866 367.774C274.08 353.742 265.147 335.897 232.306 324.929C208.934 317.002 196.616 286.925 178.471 272.915Z" fill="#FFD5B3"/>
<path opacity="0.08" d="M178.471 272.915C164.204 261.882 142.739 267.538 136.762 284.569C134.925 289.869 134.872 295.624 136.612 300.957C143.403 322.743 154.114 352.371 194.088 363.082C234.063 373.793 267.653 381.805 270.866 367.774C274.08 353.742 265.147 335.897 232.306 324.929C208.934 317.002 196.616 286.925 178.471 272.915Z" fill="black"/>
<path d="M263.09 524.716C263.09 524.716 263.09 533.156 269.795 536.07C276.5 538.983 275.879 546.224 269.174 545.86C262.469 545.495 249.444 532.213 249.444 532.213L254.285 519.981L263.09 524.716Z" fill="#FFD5B3"/>
<path d="M651.651 401.921C651.651 401.921 568.425 401.3 580.486 450.572C583.765 464.739 590.154 478 599.191 489.393C608.228 500.787 619.686 510.027 632.735 516.446L662.727 461.454L646.232 413.618L651.651 401.921Z" fill="#24285B"/>
<path opacity="0.08" d="M651.651 401.921C651.651 401.921 568.425 401.3 580.486 450.572C583.765 464.739 590.154 478 599.191 489.393C608.228 500.787 619.686 510.027 632.735 516.446L662.727 461.454L646.232 413.618L651.651 401.921Z" fill="black"/>
<path d="M675.623 298.514C678.172 269.208 719.646 265.566 727.658 293.865C731.943 308.861 734.085 330.498 729.158 360.939C717.354 434.333 575.965 386.646 575.965 386.646V369.251C575.965 369.251 659.513 384.975 679.586 363.553C691.39 350.999 673.566 322.229 675.623 298.514Z" fill="#FFD5B3"/>
<path d="M651.652 394.124L714.955 409.334C714.955 409.334 718.019 436.648 695.996 438.79C673.974 440.932 606.493 433.434 632.736 516.447H580.551C580.551 516.447 548.824 427.243 626.373 409.334C635.778 407.192 651.545 405.392 651.695 395.731L651.652 394.124Z" fill="#24285B"/>
<path d="M368.467 232.619C355.724 240.324 345.063 251.035 337.418 263.815C329.773 276.595 325.377 291.054 324.616 305.927C321.916 354.556 326.329 406.72 387.962 400.871C449.594 395.023 368.467 232.619 368.467 232.619Z" fill="#FFD5B3"/>
<path opacity="0.08" d="M368.467 232.619C355.724 240.324 345.063 251.035 337.418 263.815C329.773 276.595 325.377 291.054 324.616 305.927C321.916 354.556 326.329 406.72 387.962 400.871C449.594 395.023 368.467 232.619 368.467 232.619Z" fill="black"/>
<path d="M405.85 181.761C405.084 187.448 405.084 193.212 405.85 198.899C405.99 199.563 406.259 200.193 406.643 200.753C407.027 201.313 407.518 201.792 408.087 202.162C408.656 202.532 409.292 202.786 409.96 202.91C410.627 203.034 411.312 203.025 411.976 202.884C414.144 202.559 416.171 201.616 417.816 200.169C419.462 198.721 420.655 196.83 421.252 194.722L424.723 185.874C425.247 184.04 425.188 182.088 424.555 180.288C423.922 178.488 422.745 176.93 421.188 175.827C415.597 171.371 406.364 175.527 405.85 181.761Z" fill="#F4A28C"/>
<path d="M424.187 187.417L428 220.858L409.427 221.651L414.097 196.993L424.187 187.417Z" fill="#F4A28C"/>
<path d="M405.335 188.231L402.315 192.045C402.141 192.263 402.026 192.521 401.979 192.796C401.933 193.071 401.956 193.353 402.048 193.616C402.14 193.879 402.298 194.115 402.505 194.301C402.713 194.487 402.964 194.617 403.236 194.68L407.114 195.579L405.335 188.231Z" fill="#F4A28C"/>
<path opacity="0.31" d="M412.855 202.349C415.187 201.874 417.327 200.719 419.003 199.029C419.003 199.029 418.467 205.177 411.462 210.939L412.855 202.349Z" fill="#CE8172"/>
<path d="M388.797 224.586C388.797 224.586 468.468 206.741 497.002 222.743C525.537 238.746 469.539 389.517 469.539 389.517L381.557 386.732C381.557 386.732 304.585 239.903 388.797 224.586Z" fill="#FFD5B3"/>
<path d="M406.599 531.099C406.599 531.099 402.486 538.489 395.31 537.932C388.133 537.375 385.156 543.995 391.218 546.844C397.281 549.693 415.061 544.166 415.061 544.166L416.582 531.099H406.599Z" fill="#FFD5B3"/>
<path d="M471.038 529.47C471.038 529.47 473.952 537.397 481.15 537.932C488.348 538.468 490.254 545.495 483.828 547.38C477.401 549.265 460.584 541.081 460.584 541.081L461.077 527.949L471.038 529.47Z" fill="#FFD5B3"/>
<path opacity="0.08" d="M457.971 236.731C457.971 236.731 432.735 252.948 445.588 290.266C458.442 327.584 460.477 354.234 430.25 344.894C400.023 335.553 402.229 293.844 402.229 293.844L371.402 298.621L368.467 357.79L381.557 386.732L457.971 381.933L489.119 373.985L500.73 334.954L479.586 268.822L457.971 236.731Z" fill="black"/>
<path d="M381.556 386.733L404.071 531.099H418.767C418.767 531.099 405.142 422.53 428.943 409.419C452.743 396.309 457.413 531.099 457.413 531.099L473.03 529.857L472.838 381.013L381.556 386.733Z" fill="#24285B"/>
<path d="M473.438 218.008C473.438 218.008 523.01 209.654 523.01 287.653C523.01 365.652 511.099 435.061 396.617 365.502L405.314 352.22C405.314 352.22 467.011 379.341 480.186 355.519C493.361 331.698 428.708 231.226 473.438 218.008Z" fill="#FFD5B3"/>
<path opacity="0.46" d="M473.438 218.008C473.438 218.008 523.01 209.654 523.01 287.653C523.01 365.652 511.099 435.061 396.617 365.502L405.314 352.22C405.314 352.22 467.011 379.341 480.186 355.519C493.361 331.698 428.708 231.226 473.438 218.008Z" fill="white"/>
<path d="M382.898 287.377L340.932 297.934L356.731 360.737L398.697 350.18L382.898 287.377Z" fill="#FF0000"/>
<path d="M405.464 352.221C405.464 352.221 384.813 335.854 381.557 348.365C378.3 360.875 399.744 360.94 399.744 360.94L405.464 352.221Z" fill="#F4A28C"/>
<path d="M506.471 150.678C534.523 150.678 557.264 131.755 557.264 108.411C557.264 85.0682 534.523 66.1448 506.471 66.1448C478.419 66.1448 455.678 85.0682 455.678 108.411C455.678 131.755 478.419 150.678 506.471 150.678Z" fill="#24285B"/>
<path d="M471.038 127.713L452.958 158.476L482.735 136.389L471.038 127.713Z" fill="#24285B"/>
<path d="M486.462 114.687C489.929 114.687 492.739 111.877 492.739 108.41C492.739 104.944 489.929 102.134 486.462 102.134C482.996 102.134 480.186 104.944 480.186 108.41C480.186 111.877 482.996 114.687 486.462 114.687Z" fill="white"/>
<path d="M506.578 114.687C510.045 114.687 512.855 111.877 512.855 108.41C512.855 104.944 510.045 102.134 506.578 102.134C503.112 102.134 500.302 104.944 500.302 108.41C500.302 111.877 503.112 114.687 506.578 114.687Z" fill="white"/>
<path d="M526.48 114.687C529.946 114.687 532.757 111.877 532.757 108.41C532.757 104.944 529.946 102.134 526.48 102.134C523.013 102.134 520.203 104.944 520.203 108.41C520.203 111.877 523.013 114.687 526.48 114.687Z" fill="white"/>
<path d="M407.842 182.254C408.6 182.507 409.373 182.714 410.156 182.875C411.269 183.115 412.353 183.474 413.39 183.946L414.226 184.31C414.817 184.567 415.319 184.993 415.67 185.534C416.021 186.075 416.204 186.708 416.197 187.352C416.197 190.63 417.225 196.65 425.151 197.335C425.151 197.335 433.206 185.253 426.758 175.913C424.862 173.364 422.42 171.271 419.61 169.788C416.8 168.305 413.694 167.47 410.52 167.344C401.886 167.044 399.637 179.49 407.842 182.254Z" fill="#24285B"/>
<path d="M175.108 522.594H183.977V446.094H175.108V522.594Z" fill="white"/>
<path d="M150.151 260.682C150.151 260.682 141.989 216.938 102.828 236.732C73.8866 251.321 102.164 367.666 119.024 427.842C121.921 438.138 128.104 447.204 136.632 453.659C145.16 460.114 155.565 463.604 166.26 463.596H221.638C238.583 463.596 241.603 439.453 225.194 435.276L224.23 435.04C214.675 432.898 203.471 431.098 193.274 429.749C184.655 428.623 176.686 424.566 170.706 418.258C164.725 411.95 161.098 403.775 160.433 395.109L150.151 260.682Z" fill="white"/>
<path d="M183.977 522.615L215.725 547.658H145.031L175.086 522.615H183.977Z" fill="white"/>
<path d="M178.814 203.419C179.95 208.941 180.346 214.589 179.992 220.215C179.796 221.543 179.082 222.739 178.006 223.542C176.93 224.345 175.58 224.689 174.251 224.499C172.094 224.332 170.031 223.548 168.306 222.242C166.582 220.935 165.27 219.161 164.525 217.13L160.476 208.711C159.84 206.935 159.773 205.005 160.283 203.189C160.794 201.374 161.857 199.762 163.325 198.578C168.509 193.929 177.807 197.25 178.814 203.419Z" fill="#F4A28C"/>
<path d="M161.205 210.317L159.898 243.479L178.214 242.901L171.831 219.015L161.205 210.317Z" fill="#F4A28C"/>
<path d="M176.372 204.149C173.304 204.63 170.192 204.759 167.096 204.535C168.156 205.793 168.824 207.333 169.018 208.966C169.212 210.6 168.924 212.254 168.188 213.725C167.503 215.167 166.337 216.325 164.891 217.002C163.444 217.678 161.808 217.83 160.262 217.431L158.912 204.578C158.648 202.735 158.889 200.855 159.61 199.138C160.33 197.421 161.504 195.933 163.004 194.831C164.308 193.843 165.675 192.941 167.096 192.131C170.63 190.182 176.393 192.131 179.414 189.111C179.723 188.823 180.101 188.62 180.511 188.521C180.921 188.421 181.35 188.429 181.757 188.543C182.163 188.657 182.533 188.873 182.832 189.171C183.131 189.47 183.348 189.84 183.463 190.246C184.512 194.124 184.534 200.379 179.478 203.1C178.508 203.62 177.458 203.975 176.372 204.149Z" fill="#24285B"/>
<path d="M169.238 213.296C169.238 213.296 168.703 209.44 165.832 210.083C162.961 210.725 163.69 216.316 167.717 216.359L169.238 213.296Z" fill="#F4A28C"/>
<path d="M179.799 209.74L183.056 213.274C183.241 213.476 183.373 213.721 183.439 213.987C183.505 214.254 183.503 214.532 183.432 214.797C183.362 215.062 183.225 215.305 183.036 215.503C182.847 215.701 182.61 215.848 182.349 215.931L178.6 217.109L179.799 209.74Z" fill="#F4A28C"/>
<path opacity="0.31" d="M173.523 224.178C171.149 223.904 168.911 222.927 167.096 221.372C167.096 221.372 168.081 227.37 175.408 232.533L173.523 224.178Z" fill="#CE8172"/>
<path d="M159.897 243.479L178.214 242.901C178.214 242.901 218.424 251.47 228.278 302.52C238.132 353.57 209.94 399.221 209.94 399.221L152.1 399.735C152.1 399.735 75.4071 252.113 159.897 243.479Z" fill="#FFD5B3"/>
<path d="M152.1 399.735C152.1 399.735 152.871 432.897 175.322 435.746C197.773 438.595 249.187 421.329 255.614 449.328C262.04 477.327 249.187 521.843 249.187 521.843L264.847 526.128C264.847 526.128 300.022 458.818 279.307 426.899C258.591 394.979 210.005 399.049 210.005 399.049L152.1 399.735Z" fill="#24285B"/>
<path opacity="0.08" d="M145.673 280.284C145.673 280.284 130.978 321.351 156.385 343.652C181.792 365.953 196.38 368.63 183.484 399.736L209.941 399.222C209.941 399.222 223.844 373.943 226.65 356.034C229.457 338.125 145.673 280.284 145.673 280.284Z" fill="black"/>
<path d="M188.818 260.082C174.55 249.049 153.085 254.705 147.108 271.736C145.272 277.036 145.219 282.791 146.958 288.124C153.749 309.911 164.46 339.538 204.456 350.249C244.452 360.96 278 368.973 281.213 354.962C284.426 340.952 275.493 323.086 242.653 312.117C219.302 304.169 206.963 274.092 188.818 260.082Z" fill="#FFD5B3"/>
<path opacity="0.46" d="M188.818 260.082C174.55 249.049 153.085 254.705 147.108 271.736C145.272 277.036 145.219 282.791 146.958 288.124C153.749 309.911 164.46 339.538 204.456 350.249C244.452 360.96 278 368.973 281.213 354.962C284.426 340.952 275.493 323.086 242.653 312.117C219.302 304.169 206.963 274.092 188.818 260.082Z" fill="white"/>
<path d="M235.926 309.033C235.926 309.033 247.002 300.85 255.571 309.033C264.14 317.216 247.173 328.977 235.926 309.033Z" fill="#F4A28C"/>
<path d="M289.804 404.492H275.408V548.579H289.804V404.492Z" fill="#A5A5A5"/>
<path d="M587.684 404.492H573.288V548.579H587.684V404.492Z" fill="#A5A5A5"/>
<path d="M600.987 381.912H260.884V419.852H600.987V381.912Z" fill="white"/>
<path d="M416.368 192.966C416.092 192.613 415.914 192.194 415.85 191.75C415.786 191.307 415.839 190.855 416.004 190.438C416.582 189.046 417.718 187.225 419.581 187.503C421.445 187.782 421.852 190.845 420.545 192.88C420.307 193.212 419.994 193.482 419.631 193.669C419.267 193.855 418.865 193.952 418.457 193.952C418.049 193.952 417.646 193.855 417.283 193.669C416.92 193.482 416.606 193.212 416.368 192.88V192.966Z" fill="#F4A28C"/>
<path d="M675.623 298.514C678.172 269.208 719.646 265.566 727.658 293.865C731.943 308.861 734.085 330.498 729.158 360.939C717.354 434.333 575.965 386.646 575.965 386.646V369.251C575.965 369.251 659.513 384.975 679.586 363.553C691.39 350.999 673.566 322.229 675.623 298.514Z" fill="#F4A28C"/>
<path d="M500.816 381.913L482.499 313.64L491.39 311.733L508.656 371.481L558.635 375.765V381.913H500.816Z" fill="#FF0000"/>
<path d="M575.965 369.337C575.965 369.337 557.628 360.425 551.865 367.559C546.102 374.692 552.765 385.404 575.965 386.732V369.337Z" fill="#F4A28C"/>
<path d="M582.706 366.719L574.456 365.896L572.141 389.088L580.391 389.912L582.706 366.719Z" fill="#FFD5B3"/>
</svg>
